<svg width="45" height="46" viewBox="0 0 45 46" fill="none" xmlns="http://www.w3.org/2000/svg">
<path d="M18.8928 23.5976C24.7996 16.834 25.2956 5.87711 21.8236 0.601562H8.16132C3.6523 0.601562 0 4.25387 0 8.76289V37.4402C0 41.9493 3.6523 45.6016 8.16132 45.6016H11.0471C8.65731 36.7639 12.8056 30.6767 18.8928 23.5976Z" fill="#00AC94"/>
<path d="M36.8386 0.601562H25.025C34.3587 6.55347 39.2735 21.2529 28.6773 29.5044C17.8106 37.9362 12.7154 38.2519 12.3547 45.6016H36.8386C41.3477 45.6016 45 41.9493 45 37.4402V8.76289C45 4.25387 41.3477 0.601562 36.8386 0.601562Z" fill="#00AC94"/>
</svg>
