<svg width="235" height="51" viewBox="0 0 235 51" fill="none" xmlns="http://www.w3.org/2000/svg">
<path d="M220.215 49.5733L205.047 27.0204H198.711L217.591 1.29285H231.287L214.391 24.3087V19.613L234.551 49.5733H220.215ZM189.111 49.5733V1.29285H201.015V49.5733H189.111Z" fill="black"/>
<path d="M144.936 49.5733V0.895996H156.84V49.5733H144.936ZM173.096 49.5733L159.976 29.0706H172.904L186.792 49.5733H173.096ZM153.832 34.7585V25.3008H165.032C166.44 25.3008 167.656 25.0142 168.68 24.441C169.704 23.8678 170.493 23.0521 171.048 21.9939C171.645 20.9357 171.944 19.7011 171.944 18.2902C171.944 16.8352 171.645 15.5785 171.048 14.5203C170.493 13.4621 169.704 12.6464 168.68 12.0733C167.656 11.5001 166.44 11.2135 165.032 11.2135H153.832V0.895996H164.328C168.381 0.895996 171.88 1.53533 174.824 2.81399C177.768 4.04856 180.029 5.90041 181.608 8.36955C183.187 10.7946 183.976 13.8149 183.976 17.4304V18.4886C183.976 22.1041 183.165 25.1244 181.544 27.5495C179.965 29.9304 177.704 31.7382 174.76 32.9727C171.859 34.1632 168.381 34.7585 164.328 34.7585H153.832Z" fill="black"/>
<path d="M117.418 49.5733V10.6844H129.322V49.5733H117.418ZM104.618 12.0071V1.29285H142.122V12.0071H104.618Z" fill="black"/>
<path d="M67.6089 49.5733L78.0409 29.8643L77.7849 31.5838L67.9289 13.0653H80.4729L86.1689 25.0362H87.1929L92.5689 13.0653H104.345L94.9369 31.9145L95.1929 30.4595L106.265 49.5733H93.7209L86.8089 36.8087H85.7849L79.3849 49.5733H67.6089Z" fill="black"/>
<path d="M49.4991 50.896C46.3844 50.896 43.6111 50.411 41.1791 49.441C38.7471 48.471 36.6777 47.1262 34.9711 45.4066C33.3071 43.687 32.0271 41.7029 31.1311 39.4542C30.2777 37.2055 29.8511 34.8025 29.8511 32.2452V30.6579C29.8511 28.0124 30.2991 25.5433 31.1951 23.2505C32.1337 20.9577 33.4564 18.9516 35.1631 17.232C36.8697 15.5124 38.9391 14.1676 41.3711 13.1976C43.8031 12.2276 46.5124 11.7426 49.4991 11.7426C52.5284 11.7426 55.2377 12.2276 57.6271 13.1976C60.0591 14.1676 62.1284 15.5124 63.8351 17.232C65.5417 18.9516 66.8431 20.9577 67.7391 23.2505C68.6777 25.5433 69.1471 28.0124 69.1471 30.6579V32.2452C69.1471 34.8025 68.6991 37.2055 67.8031 39.4542C66.9497 41.7029 65.6697 43.687 63.9631 45.4066C62.2991 47.1262 60.2511 48.471 57.8191 49.441C55.3871 50.411 52.6137 50.896 49.4991 50.896ZM49.4991 40.8431C51.2911 40.8431 52.7631 40.4463 53.9151 39.6526C55.1097 38.859 56.0057 37.7567 56.6031 36.3457C57.2004 34.8907 57.4991 33.2593 57.4991 31.4516C57.4991 29.5556 57.1791 27.9022 56.5391 26.4912C55.9417 25.0362 55.0457 23.8898 53.8511 23.0521C52.6564 22.2143 51.2057 21.7955 49.4991 21.7955C47.7924 21.7955 46.3417 22.2143 45.1471 23.0521C43.9524 23.8898 43.0351 25.0362 42.3951 26.4912C41.7977 27.9022 41.4991 29.5556 41.4991 31.4516C41.4991 33.2593 41.7977 34.8907 42.3951 36.3457C42.9924 37.7567 43.8884 38.859 45.0831 39.6526C46.2777 40.4463 47.7497 40.8431 49.4991 40.8431Z" fill="black"/>
<path d="M0.73584 49.5733V1.29285H12.6398V49.5733H0.73584ZM11.3598 30.8564V20.8034H28.7038V30.8564H11.3598ZM11.3598 11.3458V1.29285H29.4078V11.3458H11.3598Z" fill="black"/>
</svg>
