<svg width="28" height="28" viewBox="0 0 28 28" fill="none" xmlns="http://www.w3.org/2000/svg">
<path fill-rule="evenodd" clip-rule="evenodd" d="M3.5 2.5H9.33333C9.88562 2.5 10.3333 2.94772 10.3333 3.5C10.3333 4.05228 9.88562 4.5 9.33333 4.5H5.91421L13.3396 11.9254C13.3397 11.9255 13.3396 11.9253 13.3396 11.9254C13.8732 12.4588 14.2951 13.0936 14.5802 13.7922C14.8646 14.4892 15.0073 15.2358 15 15.9885V25.6667C15 26.219 14.5523 26.6667 14 26.6667C13.4477 26.6667 13 26.219 13 25.6667V15.9833L13.0001 15.9726C13.0053 15.4844 12.913 15 12.7285 14.5479C12.544 14.0958 12.2711 13.6851 11.9257 13.3399L4.5 5.91421V9.33333C4.5 9.88562 4.05228 10.3333 3.5 10.3333C2.94772 10.3333 2.5 9.88562 2.5 9.33333V3.5C2.5 2.94772 2.94772 2.5 3.5 2.5ZM22.0858 4.5H18.6667C18.1144 4.5 17.6667 4.05228 17.6667 3.5C17.6667 2.94772 18.1144 2.5 18.6667 2.5H24.5C25.0523 2.5 25.5 2.94772 25.5 3.5V9.33333C25.5 9.88562 25.0523 10.3333 24.5 10.3333C23.9477 10.3333 23.5 9.88562 23.5 9.33333V5.91421L18.2071 11.2071C17.8166 11.5976 17.1834 11.5976 16.7929 11.2071C16.4024 10.8166 16.4024 10.1834 16.7929 9.79289L22.0858 4.5Z" fill="black"/>
</svg>
