<svg width="28" height="28" viewBox="0 0 28 28" fill="none" xmlns="http://www.w3.org/2000/svg">
<path fill-rule="evenodd" clip-rule="evenodd" d="M2.5 7C2.5 6.44772 2.94772 6 3.5 6H18.6667C19.219 6 19.6667 6.44772 19.6667 7C19.6667 7.55228 19.219 8 18.6667 8H3.5C2.94772 8 2.5 7.55228 2.5 7ZM2.5 14C2.5 13.4477 2.94772 13 3.5 13H18.6667C19.219 13 19.6667 13.4477 19.6667 14C19.6667 14.5523 19.219 15 18.6667 15H3.5C2.94772 15 2.5 14.5523 2.5 14ZM25.2071 17.9596C25.5976 18.3501 25.5976 18.9832 25.2071 19.3738L20.5404 24.0404C20.1499 24.431 19.5168 24.431 19.1262 24.0404L16.7929 21.7071C16.4024 21.3166 16.4024 20.6834 16.7929 20.2929C17.1834 19.9024 17.8166 19.9024 18.2071 20.2929L19.8333 21.9191L23.7929 17.9596C24.1834 17.569 24.8166 17.569 25.2071 17.9596ZM2.5 21C2.5 20.4477 2.94772 20 3.5 20H12.8333C13.3856 20 13.8333 20.4477 13.8333 21C13.8333 21.5523 13.3856 22 12.8333 22H3.5C2.94772 22 2.5 21.5523 2.5 21Z" fill="black"/>
</svg>
