<svg width="28" height="28" viewBox="0 0 28 28" fill="none" xmlns="http://www.w3.org/2000/svg">
<path fill-rule="evenodd" clip-rule="evenodd" d="M9.3335 3.33337C6.01979 3.33337 3.3335 6.01967 3.3335 9.33337C3.3335 12.6471 6.01979 15.3334 9.3335 15.3334C12.6472 15.3334 15.3335 12.6471 15.3335 9.33337C15.3335 6.01967 12.6472 3.33337 9.3335 3.33337ZM1.3335 9.33337C1.3335 4.9151 4.91522 1.33337 9.3335 1.33337C13.7518 1.33337 17.3335 4.9151 17.3335 9.33337C17.3335 13.7517 13.7518 17.3334 9.3335 17.3334C4.91522 17.3334 1.3335 13.7517 1.3335 9.33337ZM7.16683 7.00004C7.16683 6.44776 7.61454 6.00004 8.16683 6.00004H9.3335C9.88578 6.00004 10.3335 6.44776 10.3335 7.00004V11.6667C10.3335 12.219 9.88578 12.6667 9.3335 12.6667C8.78121 12.6667 8.3335 12.219 8.3335 11.6667V8.00004H8.16683C7.61454 8.00004 7.16683 7.55232 7.16683 7.00004ZM20.1682 11.749C20.3611 11.2316 20.937 10.9684 21.4545 11.1614C22.7149 11.6313 23.8365 12.4114 24.7155 13.4296C25.5945 14.4479 26.2026 15.6713 26.4835 16.9868C26.7644 18.3023 26.709 19.6674 26.3226 20.9558C25.9361 22.2443 25.231 23.4145 24.2724 24.3582C23.3138 25.3019 22.1328 25.9887 20.8385 26.355C19.5442 26.7213 18.1784 26.7554 16.8674 26.454C15.5564 26.1526 14.3426 25.5255 13.3383 24.6307C12.3339 23.7359 11.5713 22.6023 11.1212 21.3347C10.9363 20.8143 11.2084 20.2425 11.7288 20.0577C12.2493 19.8729 12.821 20.1449 13.0058 20.6654C13.3435 21.6161 13.9154 22.4663 14.6687 23.1374C15.4219 23.8085 16.3323 24.2788 17.3155 24.5048C18.2987 24.7309 19.3231 24.7053 20.2938 24.4306C21.2646 24.1559 22.1503 23.6408 22.8693 22.933C23.5882 22.2252 24.117 21.3476 24.4069 20.3812C24.6967 19.4149 24.7382 18.3911 24.5276 17.4044C24.3169 16.4178 23.8608 15.5002 23.2016 14.7366C22.5423 13.9729 21.7011 13.3878 20.7558 13.0354C20.2383 12.8424 19.9752 12.2665 20.1682 11.749ZM18.7931 15.4813C19.1864 15.0935 19.8195 15.098 20.2073 15.4913L21.0239 16.3196C21.4097 16.7109 21.4075 17.3402 21.0189 17.7288L17.7289 21.0188C17.3384 21.4093 16.7052 21.4093 16.3147 21.0188C15.9242 20.6283 15.9242 19.9951 16.3147 19.6046L18.9026 17.0167L18.7831 16.8954C18.3953 16.5022 18.3998 15.869 18.7931 15.4813Z" fill="black"/>
</svg>
