<svg width="28" height="28" viewBox="0 0 28 28" fill="none" xmlns="http://www.w3.org/2000/svg">
<path fill-rule="evenodd" clip-rule="evenodd" d="M5.83333 4.5C5.09695 4.5 4.5 5.09695 4.5 5.83333V22.1667C4.5 22.903 5.09695 23.5 5.83333 23.5H22.1667C22.903 23.5 23.5 22.903 23.5 22.1667V5.83333C23.5 5.09695 22.903 4.5 22.1667 4.5H5.83333ZM2.5 5.83333C2.5 3.99238 3.99238 2.5 5.83333 2.5H22.1667C24.0076 2.5 25.5 3.99238 25.5 5.83333V22.1667C25.5 24.0076 24.0076 25.5 22.1667 25.5H5.83333C3.99238 25.5 2.5 24.0076 2.5 22.1667V5.83333ZM9.33333 10.3333C8.78105 10.3333 8.33333 9.88562 8.33333 9.33333C8.33333 8.78105 8.78105 8.33333 9.33333 8.33333H18.6667C19.219 8.33333 19.6667 8.78105 19.6667 9.33333V18.6667C19.6667 19.219 19.219 19.6667 18.6667 19.6667C18.1144 19.6667 17.6667 19.219 17.6667 18.6667V11.7475L10.0404 19.3738C9.64992 19.7643 9.01675 19.7643 8.62623 19.3738C8.2357 18.9832 8.2357 18.3501 8.62623 17.9596L16.2525 10.3333H9.33333Z" fill="black"/>
</svg>
