<svg width="150" height="150" viewBox="0 0 150 150" fill="none" xmlns="http://www.w3.org/2000/svg">
<rect width="150" height="150" rx="8" fill="#454545" fill-opacity="0.8"/>
<rect x="0.5" y="0.5" width="149" height="149" rx="7.5" stroke="white" stroke-opacity="0.3"/>
<path d="M19.017 30H17.127V19.878H19.017V30ZM22.5179 23.7C22.6625 23.5553 22.8142 23.4223 22.9729 23.301C23.1362 23.175 23.3065 23.07 23.4839 22.986C23.6659 22.8973 23.8595 22.8297 24.0649 22.783C24.2702 22.7317 24.4942 22.706 24.7369 22.706C25.1289 22.706 25.4765 22.7737 25.7799 22.909C26.0832 23.0397 26.3352 23.2263 26.5359 23.469C26.7412 23.707 26.8952 23.994 26.9979 24.33C27.1052 24.6613 27.1589 25.0277 27.1589 25.429V30H25.4299V25.429C25.4299 24.9903 25.3295 24.652 25.1289 24.414C24.9282 24.1713 24.6225 24.05 24.2119 24.05C23.9132 24.05 23.6332 24.1177 23.3719 24.253C23.1105 24.3883 22.8632 24.5727 22.6299 24.806V30H20.9009V22.818H21.9579C22.1819 22.818 22.3289 22.923 22.3989 23.133L22.5179 23.7ZM33.9482 24.337C33.8969 24.4023 33.8456 24.4537 33.7942 24.491C33.7476 24.5283 33.6776 24.547 33.5842 24.547C33.4956 24.547 33.4092 24.5213 33.3252 24.47C33.2412 24.414 33.1409 24.3533 33.0242 24.288C32.9076 24.218 32.7676 24.1573 32.6042 24.106C32.4456 24.05 32.2472 24.022 32.0092 24.022C31.7059 24.022 31.4399 24.078 31.2112 24.19C30.9826 24.2973 30.7912 24.4537 30.6372 24.659C30.4879 24.8643 30.3759 25.114 30.3012 25.408C30.2266 25.6973 30.1892 26.0263 30.1892 26.395C30.1892 26.7777 30.2289 27.1183 30.3082 27.417C30.3922 27.7157 30.5112 27.9677 30.6652 28.173C30.8192 28.3737 31.0059 28.5277 31.2252 28.635C31.4446 28.7377 31.6919 28.789 31.9672 28.789C32.2426 28.789 32.4642 28.7563 32.6322 28.691C32.8049 28.621 32.9496 28.5463 33.0662 28.467C33.1829 28.383 33.2832 28.3083 33.3672 28.243C33.4559 28.173 33.5539 28.138 33.6612 28.138C33.8012 28.138 33.9062 28.1917 33.9762 28.299L34.4732 28.929C34.2819 29.153 34.0742 29.342 33.8502 29.496C33.6262 29.6453 33.3929 29.7667 33.1502 29.86C32.9122 29.9487 32.6649 30.0117 32.4082 30.049C32.1562 30.0863 31.9042 30.105 31.6522 30.105C31.2089 30.105 30.7912 30.0233 30.3992 29.86C30.0072 29.692 29.6642 29.4493 29.3702 29.132C29.0762 28.8147 28.8429 28.4273 28.6702 27.97C28.5022 27.508 28.4182 26.983 28.4182 26.395C28.4182 25.8677 28.4929 25.38 28.6422 24.932C28.7962 24.4793 29.0202 24.0897 29.3142 23.763C29.6082 23.4317 29.9722 23.1727 30.4062 22.986C30.8402 22.7993 31.3396 22.706 31.9042 22.706C32.4409 22.706 32.9099 22.7923 33.3112 22.965C33.7172 23.1377 34.0812 23.385 34.4032 23.707L33.9482 24.337ZM38.6121 22.706C39.1441 22.706 39.6271 22.7923 40.0611 22.965C40.4997 23.1377 40.8731 23.3827 41.1811 23.7C41.4937 24.0173 41.7341 24.4047 41.9021 24.862C42.0701 25.3193 42.1541 25.8303 42.1541 26.395C42.1541 26.9643 42.0701 27.4777 41.9021 27.935C41.7341 28.3923 41.4937 28.782 41.1811 29.104C40.8731 29.426 40.4997 29.6733 40.0611 29.846C39.6271 30.0187 39.1441 30.105 38.6121 30.105C38.0754 30.105 37.5877 30.0187 37.1491 29.846C36.7104 29.6733 36.3347 29.426 36.0221 29.104C35.7141 28.782 35.4737 28.3923 35.3011 27.935C35.1331 27.4777 35.0491 26.9643 35.0491 26.395C35.0491 25.8303 35.1331 25.3193 35.3011 24.862C35.4737 24.4047 35.7141 24.0173 36.0221 23.7C36.3347 23.3827 36.7104 23.1377 37.1491 22.965C37.5877 22.7923 38.0754 22.706 38.6121 22.706ZM38.6121 28.775C39.2094 28.775 39.6504 28.5743 39.9351 28.173C40.2244 27.7717 40.3691 27.1837 40.3691 26.409C40.3691 25.6343 40.2244 25.044 39.9351 24.638C39.6504 24.232 39.2094 24.029 38.6121 24.029C38.0054 24.029 37.5551 24.2343 37.2611 24.645C36.9717 25.051 36.8271 25.639 36.8271 26.409C36.8271 27.179 36.9717 27.767 37.2611 28.173C37.5551 28.5743 38.0054 28.775 38.6121 28.775ZM43.4731 30V22.818H44.5301C44.7541 22.818 44.9011 22.923 44.9711 23.133L45.0831 23.665C45.2091 23.525 45.3398 23.3967 45.4751 23.28C45.6151 23.1633 45.7621 23.063 45.9161 22.979C46.0748 22.895 46.2428 22.8297 46.4201 22.783C46.6021 22.7317 46.8005 22.706 47.0151 22.706C47.4678 22.706 47.8388 22.8297 48.1281 23.077C48.4221 23.3197 48.6415 23.644 48.7861 24.05C48.8981 23.812 49.0381 23.609 49.2061 23.441C49.3741 23.2683 49.5585 23.1283 49.7591 23.021C49.9598 22.9137 50.1721 22.8343 50.3961 22.783C50.6248 22.7317 50.8535 22.706 51.0821 22.706C51.4788 22.706 51.8311 22.7667 52.1391 22.888C52.4471 23.0093 52.7061 23.1867 52.9161 23.42C53.1261 23.6533 53.2848 23.938 53.3921 24.274C53.5041 24.61 53.5601 24.995 53.5601 25.429V30H51.8311V25.429C51.8311 24.9717 51.7308 24.6287 51.5301 24.4C51.3295 24.1667 51.0355 24.05 50.6481 24.05C50.4708 24.05 50.3051 24.0803 50.1511 24.141C50.0018 24.2017 49.8688 24.2903 49.7521 24.407C49.6401 24.519 49.5515 24.6613 49.4861 24.834C49.4208 25.0067 49.3881 25.205 49.3881 25.429V30H47.6521V25.429C47.6521 24.9483 47.5541 24.5983 47.3581 24.379C47.1668 24.1597 46.8845 24.05 46.5111 24.05C46.2591 24.05 46.0235 24.113 45.8041 24.239C45.5895 24.3603 45.3888 24.5283 45.2021 24.743V30H43.4731ZM59.8306 25.583C59.8306 25.359 59.7979 25.149 59.7326 24.953C59.6719 24.7523 59.5786 24.5773 59.4526 24.428C59.3266 24.2787 59.1656 24.162 58.9696 24.078C58.7783 23.9893 58.5543 23.945 58.2976 23.945C57.7983 23.945 57.4039 24.0873 57.1146 24.372C56.8299 24.6567 56.6479 25.0603 56.5686 25.583H59.8306ZM56.5336 26.626C56.5616 26.9947 56.6269 27.3143 56.7296 27.585C56.8323 27.851 56.9676 28.0727 57.1356 28.25C57.3036 28.4227 57.5019 28.5533 57.7306 28.642C57.9639 28.726 58.2206 28.768 58.5006 28.768C58.7806 28.768 59.0209 28.7353 59.2216 28.67C59.4269 28.6047 59.6043 28.5323 59.7536 28.453C59.9076 28.3737 60.0406 28.3013 60.1526 28.236C60.2693 28.1707 60.3813 28.138 60.4886 28.138C60.6333 28.138 60.7406 28.1917 60.8106 28.299L61.3076 28.929C61.1163 29.153 60.9016 29.342 60.6636 29.496C60.4256 29.6453 60.1759 29.7667 59.9146 29.86C59.6579 29.9487 59.3943 30.0117 59.1236 30.049C58.8576 30.0863 58.5986 30.105 58.3466 30.105C57.8473 30.105 57.3829 30.0233 56.9536 29.86C56.5243 29.692 56.1509 29.447 55.8336 29.125C55.5163 28.7983 55.2666 28.397 55.0846 27.921C54.9026 27.4403 54.8116 26.885 54.8116 26.255C54.8116 25.765 54.8909 25.3053 55.0496 24.876C55.2083 24.442 55.4346 24.0663 55.7286 23.749C56.0273 23.427 56.3889 23.1727 56.8136 22.986C57.2429 22.7993 57.7259 22.706 58.2626 22.706C58.7153 22.706 59.1329 22.7783 59.5156 22.923C59.8983 23.0677 60.2273 23.28 60.5026 23.56C60.7779 23.8353 60.9926 24.176 61.1466 24.582C61.3053 24.9833 61.3846 25.443 61.3846 25.961C61.3846 26.2223 61.3566 26.3997 61.3006 26.493C61.2446 26.5817 61.1373 26.626 60.9786 26.626H56.5336ZM67.0641 24.218C67.0175 24.2927 66.9685 24.3463 66.9171 24.379C66.8658 24.407 66.8005 24.421 66.7211 24.421C66.6371 24.421 66.5461 24.3977 66.4481 24.351C66.3548 24.3043 66.2451 24.253 66.1191 24.197C65.9931 24.1363 65.8485 24.0827 65.6851 24.036C65.5265 23.9893 65.3375 23.966 65.1181 23.966C64.7775 23.966 64.5091 24.0383 64.3131 24.183C64.1218 24.3277 64.0261 24.5167 64.0261 24.75C64.0261 24.904 64.0751 25.0347 64.1731 25.142C64.2758 25.2447 64.4088 25.3357 64.5721 25.415C64.7401 25.4943 64.9291 25.5667 65.1391 25.632C65.3491 25.6927 65.5615 25.7603 65.7761 25.835C65.9955 25.9097 66.2101 25.996 66.4201 26.094C66.6301 26.1873 66.8168 26.3087 66.9801 26.458C67.1481 26.6027 67.2811 26.7777 67.3791 26.983C67.4818 27.1883 67.5331 27.4357 67.5331 27.725C67.5331 28.0703 67.4701 28.39 67.3441 28.684C67.2228 28.9733 67.0408 29.2253 66.7981 29.44C66.5555 29.65 66.2545 29.8157 65.8951 29.937C65.5405 30.0537 65.1298 30.112 64.6631 30.112C64.4158 30.112 64.1731 30.0887 63.9351 30.042C63.7018 30 63.4755 29.9393 63.2561 29.86C63.0415 29.7807 62.8408 29.6873 62.6541 29.58C62.4721 29.4727 62.3111 29.356 62.1711 29.23L62.5701 28.572C62.6215 28.4927 62.6821 28.432 62.7521 28.39C62.8221 28.348 62.9108 28.327 63.0181 28.327C63.1255 28.327 63.2258 28.3573 63.3191 28.418C63.4171 28.4787 63.5291 28.544 63.6551 28.614C63.7811 28.684 63.9281 28.7493 64.0961 28.81C64.2688 28.8707 64.4858 28.901 64.7471 28.901C64.9525 28.901 65.1275 28.8777 65.2721 28.831C65.4215 28.7797 65.5428 28.7143 65.6361 28.635C65.7341 28.5557 65.8041 28.4647 65.8461 28.362C65.8928 28.2547 65.9161 28.145 65.9161 28.033C65.9161 27.865 65.8648 27.7273 65.7621 27.62C65.6641 27.5127 65.5311 27.4193 65.3631 27.34C65.1998 27.2607 65.0108 27.1907 64.7961 27.13C64.5861 27.0647 64.3691 26.9947 64.1451 26.92C63.9258 26.8453 63.7088 26.759 63.4941 26.661C63.2841 26.5583 63.0951 26.43 62.9271 26.276C62.7638 26.122 62.6308 25.933 62.5281 25.709C62.4301 25.485 62.3811 25.2143 62.3811 24.897C62.3811 24.603 62.4395 24.323 62.5561 24.057C62.6728 23.791 62.8431 23.56 63.0671 23.364C63.2958 23.1633 63.5781 23.0047 63.9141 22.888C64.2548 22.7667 64.6468 22.706 65.0901 22.706C65.5848 22.706 66.0351 22.7877 66.4411 22.951C66.8471 23.1143 67.1855 23.329 67.4561 23.595L67.0641 24.218Z" fill="white"/>
<path d="M31.2832 72.4756H136.074" stroke="#858585" stroke-dasharray="2 2"/>
<path d="M31.2832 54.6342H136.074" stroke="#858585" stroke-dasharray="2 2"/>
<path d="M31.2832 89.3781H136.074" stroke="#858585" stroke-dasharray="2 2"/>
<path d="M31.2832 120.835H136.074" stroke="#858585" stroke-dasharray="2 2"/>
<path d="M31.2832 105.341H136.074" stroke="#858585" stroke-dasharray="2 2"/>
<path d="M18.912 55.632C18.912 56.0107 18.8187 56.3253 18.632 56.576C18.4507 56.8267 18.2053 56.9813 17.896 57.04C17.8747 57.0453 17.864 57.0587 17.864 57.08V57.656C17.864 57.7093 17.8373 57.736 17.784 57.736H17.608C17.5547 57.736 17.528 57.7093 17.528 57.656L17.536 57.096C17.536 57.0747 17.5253 57.064 17.504 57.064C17.1573 57.032 16.88 56.8907 16.672 56.64C16.464 56.384 16.36 56.0587 16.36 55.664V55.496C16.36 55.4427 16.3867 55.416 16.44 55.416H16.696C16.7493 55.416 16.776 55.4427 16.776 55.496V55.648C16.776 55.9627 16.8533 56.216 17.008 56.408C17.168 56.6 17.3733 56.696 17.624 56.696C17.8747 56.696 18.0827 56.6027 18.248 56.416C18.4133 56.2293 18.496 55.9867 18.496 55.688C18.496 55.4907 18.456 55.32 18.376 55.176C18.3013 55.032 18.2027 54.9093 18.08 54.808C17.9627 54.7013 17.768 54.544 17.496 54.336C17.2187 54.128 17.0053 53.9573 16.856 53.824C16.712 53.6853 16.592 53.5227 16.496 53.336C16.4 53.144 16.352 52.9173 16.352 52.656C16.352 52.272 16.4533 51.9627 16.656 51.728C16.864 51.4933 17.136 51.3627 17.472 51.336C17.4933 51.336 17.504 51.3253 17.504 51.304L17.496 50.696C17.496 50.6427 17.5227 50.616 17.576 50.616H17.752C17.8053 50.616 17.832 50.6427 17.832 50.696V51.328C17.832 51.3493 17.8427 51.3627 17.864 51.368C18.1733 51.4267 18.4187 51.5813 18.6 51.832C18.7813 52.0773 18.872 52.3867 18.872 52.76V52.96C18.872 53.0133 18.8453 53.04 18.792 53.04H18.528C18.4747 53.04 18.448 53.0133 18.448 52.96V52.76C18.448 52.4453 18.368 52.192 18.208 52C18.0533 51.8027 17.8453 51.704 17.584 51.704C17.3493 51.704 17.1547 51.7893 17 51.96C16.8453 52.1253 16.768 52.36 16.768 52.664C16.768 52.8453 16.8 53.0027 16.864 53.136C16.9333 53.2693 17.0293 53.3947 17.152 53.512C17.28 53.6293 17.472 53.784 17.728 53.976C18.0427 54.2107 18.2773 54.4 18.432 54.544C18.5867 54.688 18.704 54.8453 18.784 55.016C18.8693 55.1867 18.912 55.392 18.912 55.632ZM21.747 56.584C21.7417 56.5947 21.7417 56.6053 21.747 56.616C21.7523 56.6213 21.7603 56.624 21.771 56.624H23.691C23.7443 56.624 23.771 56.6507 23.771 56.704V56.92C23.771 56.9733 23.7443 57 23.691 57H21.299C21.2457 57 21.219 56.9733 21.219 56.92V56.68C21.219 56.6427 21.227 56.608 21.243 56.576C21.2857 56.5013 21.3203 56.4453 21.347 56.408C21.4803 56.1893 21.6803 55.8587 21.947 55.416C22.2137 54.968 22.443 54.5787 22.635 54.248C22.987 53.6187 23.163 53.104 23.163 52.704C23.163 52.4053 23.0937 52.1653 22.955 51.984C22.8163 51.8027 22.6297 51.712 22.395 51.712C22.1657 51.712 21.9817 51.8027 21.843 51.984C21.7097 52.16 21.6457 52.3973 21.651 52.696V52.984C21.651 53.0373 21.6243 53.064 21.571 53.064H21.291C21.2377 53.064 21.211 53.0373 21.211 52.984V52.68C21.2217 52.28 21.3363 51.9573 21.555 51.712C21.7737 51.4613 22.0563 51.336 22.403 51.336C22.7603 51.336 23.0483 51.4613 23.267 51.712C23.4857 51.9627 23.595 52.2933 23.595 52.704C23.595 53.1893 23.403 53.7653 23.019 54.432C22.8697 54.6987 22.635 55.0933 22.315 55.616L21.747 56.584ZM24.8798 56.584C24.8745 56.5947 24.8745 56.6053 24.8798 56.616C24.8851 56.6213 24.8931 56.624 24.9038 56.624H26.8238C26.8771 56.624 26.9038 56.6507 26.9038 56.704V56.92C26.9038 56.9733 26.8771 57 26.8238 57H24.4318C24.3785 57 24.3518 56.9733 24.3518 56.92V56.68C24.3518 56.6427 24.3598 56.608 24.3758 56.576C24.4185 56.5013 24.4531 56.4453 24.4798 56.408C24.6131 56.1893 24.8131 55.8587 25.0798 55.416C25.3465 54.968 25.5758 54.5787 25.7678 54.248C26.1198 53.6187 26.2958 53.104 26.2958 52.704C26.2958 52.4053 26.2265 52.1653 26.0878 51.984C25.9491 51.8027 25.7625 51.712 25.5278 51.712C25.2985 51.712 25.1145 51.8027 24.9758 51.984C24.8425 52.16 24.7785 52.3973 24.7838 52.696V52.984C24.7838 53.0373 24.7571 53.064 24.7038 53.064H24.4238C24.3705 53.064 24.3438 53.0373 24.3438 52.984V52.68C24.3545 52.28 24.4691 51.9573 24.6878 51.712C24.9065 51.4613 25.1891 51.336 25.5358 51.336C25.8931 51.336 26.1811 51.4613 26.3998 51.712C26.6185 51.9627 26.7278 52.2933 26.7278 52.704C26.7278 53.1893 26.5358 53.7653 26.1518 54.432C26.0025 54.6987 25.7678 55.0933 25.4478 55.616L24.8798 56.584ZM28.9006 57.08C28.5113 57.08 28.1966 56.952 27.9566 56.696C27.7166 56.44 27.5966 56.104 27.5966 55.688V52.712C27.5966 52.296 27.7166 51.96 27.9566 51.704C28.1966 51.448 28.5113 51.32 28.9006 51.32C29.2953 51.32 29.6126 51.448 29.8526 51.704C30.0926 51.96 30.2126 52.296 30.2126 52.712V55.688C30.2126 56.104 30.0926 56.44 29.8526 56.696C29.6126 56.952 29.2953 57.08 28.9006 57.08ZM28.9006 56.696C29.1673 56.696 29.3806 56.608 29.5406 56.432C29.706 56.2507 29.7886 56.0133 29.7886 55.72V52.68C29.7886 52.3867 29.706 52.152 29.5406 51.976C29.3806 51.7947 29.1673 51.704 28.9006 51.704C28.6393 51.704 28.426 51.7947 28.2606 51.976C28.1006 52.152 28.0206 52.3867 28.0206 52.68V55.72C28.0206 56.0133 28.1006 56.2507 28.2606 56.432C28.426 56.608 28.6393 56.696 28.9006 56.696Z" fill="#BCBCBC"/>
<path d="M19.912 90.3758C19.912 90.7544 19.8187 91.0691 19.632 91.3198C19.4507 91.5704 19.2053 91.7251 18.896 91.7838C18.8747 91.7891 18.864 91.8024 18.864 91.8238V92.3998C18.864 92.4531 18.8373 92.4798 18.784 92.4798H18.608C18.5547 92.4798 18.528 92.4531 18.528 92.3998L18.536 91.8398C18.536 91.8184 18.5253 91.8078 18.504 91.8078C18.1573 91.7758 17.88 91.6344 17.672 91.3838C17.464 91.1278 17.36 90.8024 17.36 90.4078V90.2398C17.36 90.1864 17.3867 90.1598 17.44 90.1598H17.696C17.7493 90.1598 17.776 90.1864 17.776 90.2398V90.3918C17.776 90.7064 17.8533 90.9598 18.008 91.1518C18.168 91.3438 18.3733 91.4398 18.624 91.4398C18.8747 91.4398 19.0827 91.3464 19.248 91.1598C19.4133 90.9731 19.496 90.7304 19.496 90.4318C19.496 90.2344 19.456 90.0638 19.376 89.9198C19.3013 89.7758 19.2027 89.6531 19.08 89.5518C18.9627 89.4451 18.768 89.2878 18.496 89.0798C18.2187 88.8718 18.0053 88.7011 17.856 88.5678C17.712 88.4291 17.592 88.2664 17.496 88.0798C17.4 87.8878 17.352 87.6611 17.352 87.3998C17.352 87.0158 17.4533 86.7064 17.656 86.4718C17.864 86.2371 18.136 86.1064 18.472 86.0798C18.4933 86.0798 18.504 86.0691 18.504 86.0478L18.496 85.4398C18.496 85.3864 18.5227 85.3598 18.576 85.3598H18.752C18.8053 85.3598 18.832 85.3864 18.832 85.4398V86.0718C18.832 86.0931 18.8427 86.1064 18.864 86.1118C19.1733 86.1704 19.4187 86.3251 19.6 86.5758C19.7813 86.8211 19.872 87.1304 19.872 87.5038V87.7038C19.872 87.7571 19.8453 87.7838 19.792 87.7838H19.528C19.4747 87.7838 19.448 87.7571 19.448 87.7038V87.5038C19.448 87.1891 19.368 86.9358 19.208 86.7438C19.0533 86.5464 18.8453 86.4478 18.584 86.4478C18.3493 86.4478 18.1547 86.5331 18 86.7038C17.8453 86.8691 17.768 87.1038 17.768 87.4078C17.768 87.5891 17.8 87.7464 17.864 87.8798C17.9333 88.0131 18.0293 88.1384 18.152 88.2558C18.28 88.3731 18.472 88.5278 18.728 88.7198C19.0427 88.9544 19.2773 89.1438 19.432 89.2878C19.5867 89.4318 19.704 89.5891 19.784 89.7598C19.8693 89.9304 19.912 90.1358 19.912 90.3758ZM22.875 86.1678C22.907 86.1518 22.9417 86.1438 22.979 86.1438H23.267C23.3203 86.1438 23.347 86.1704 23.347 86.2238V91.6638C23.347 91.7171 23.3203 91.7438 23.267 91.7438H23.003C22.9497 91.7438 22.923 91.7171 22.923 91.6638V86.6798C22.923 86.6691 22.9177 86.6611 22.907 86.6558C22.9017 86.6504 22.8937 86.6504 22.883 86.6558L22.107 86.9678L22.075 86.9758C22.043 86.9758 22.0217 86.9544 22.011 86.9118L21.971 86.7278V86.7118C21.971 86.6691 21.987 86.6398 22.019 86.6238L22.875 86.1678ZM24.6719 86.1678C24.7039 86.1518 24.7385 86.1438 24.7759 86.1438H25.0639C25.1172 86.1438 25.1439 86.1704 25.1439 86.2238V91.6638C25.1439 91.7171 25.1172 91.7438 25.0639 91.7438H24.7999C24.7465 91.7438 24.7199 91.7171 24.7199 91.6638V86.6798C24.7199 86.6691 24.7145 86.6611 24.7039 86.6558C24.6985 86.6504 24.6905 86.6504 24.6799 86.6558L23.9039 86.9678L23.8719 86.9758C23.8399 86.9758 23.8185 86.9544 23.8079 86.9118L23.7679 86.7278V86.7118C23.7679 86.6691 23.7839 86.6398 23.8159 86.6238L24.6719 86.1678ZM27.4241 91.8238C27.0347 91.8238 26.7201 91.6958 26.4801 91.4398C26.2401 91.1838 26.1201 90.8478 26.1201 90.4318V87.4558C26.1201 87.0398 26.2401 86.7038 26.4801 86.4478C26.7201 86.1918 27.0347 86.0638 27.4241 86.0638C27.8187 86.0638 28.1361 86.1918 28.3761 86.4478C28.6161 86.7038 28.7361 87.0398 28.7361 87.4558V90.4318C28.7361 90.8478 28.6161 91.1838 28.3761 91.4398C28.1361 91.6958 27.8187 91.8238 27.4241 91.8238ZM27.4241 91.4398C27.6907 91.4398 27.9041 91.3518 28.0641 91.1758C28.2294 90.9944 28.3121 90.7571 28.3121 90.4638V87.4238C28.3121 87.1304 28.2294 86.8958 28.0641 86.7198C27.9041 86.5384 27.6907 86.4478 27.4241 86.4478C27.1627 86.4478 26.9494 86.5384 26.7841 86.7198C26.6241 86.8958 26.5441 87.1304 26.5441 87.4238V90.4638C26.5441 90.7571 26.6241 90.9944 26.7841 91.1758C26.9494 91.3518 27.1627 91.4398 27.4241 91.4398Z" fill="#BCBCBC"/>
<rect x="36" y="101" width="4" height="10" rx="2" fill="#6C90B1"/>
<rect x="51" y="86" width="4" height="22" rx="2" fill="#6C90B1"/>
<rect x="66" y="87" width="4" height="27" rx="2" fill="#6C90B1"/>
<rect x="81" y="79" width="4" height="32" rx="2" fill="#6C90B1"/>
<rect x="96.4902" y="70.4512" width="4.10598" height="28.1707" rx="2.05299" fill="#6C90B1"/>
<rect x="113.219" y="62" width="4.10598" height="31.9268" rx="2.05299" fill="#6C90B1"/>
<rect x="128.185" y="64.817" width="4.10598" height="33.8049" rx="2.05299" fill="#6C90B1"/>
<path d="M25.4807 123.751C25.0914 123.751 24.7767 123.623 24.5367 123.367C24.2967 123.111 24.1767 122.775 24.1767 122.359V119.383C24.1767 118.967 24.2967 118.631 24.5367 118.375C24.7767 118.119 25.0914 117.991 25.4807 117.991C25.8754 117.991 26.1927 118.119 26.4327 118.375C26.6727 118.631 26.7927 118.967 26.7927 119.383V122.359C26.7927 122.775 26.6727 123.111 26.4327 123.367C26.1927 123.623 25.8754 123.751 25.4807 123.751ZM25.4807 123.367C25.7474 123.367 25.9607 123.279 26.1207 123.103C26.286 122.921 26.3687 122.684 26.3687 122.391V119.351C26.3687 119.057 26.286 118.823 26.1207 118.647C25.9607 118.465 25.7474 118.375 25.4807 118.375C25.2194 118.375 25.006 118.465 24.8407 118.647C24.6807 118.823 24.6007 119.057 24.6007 119.351V122.391C24.6007 122.684 24.6807 122.921 24.8407 123.103C25.006 123.279 25.2194 123.367 25.4807 123.367Z" fill="#BCBCBC"/>
</svg>
