<svg width="28" height="28" viewBox="0 0 28 28" fill="none" xmlns="http://www.w3.org/2000/svg">
<path fill-rule="evenodd" clip-rule="evenodd" d="M4.66667 4.5C4.57462 4.5 4.5 4.57462 4.5 4.66667V12.8333C4.5 12.9254 4.57462 13 4.66667 13H10.5C10.592 13 10.6667 12.9254 10.6667 12.8333V4.66667C10.6667 4.57462 10.592 4.5 10.5 4.5H4.66667ZM2.5 4.66667C2.5 3.47005 3.47005 2.5 4.66667 2.5H10.5C11.6966 2.5 12.6667 3.47005 12.6667 4.66667V12.8333C12.6667 14.0299 11.6966 15 10.5 15H4.66667C3.47005 15 2.5 14.0299 2.5 12.8333V4.66667ZM17.5 4.5C17.408 4.5 17.3333 4.57462 17.3333 4.66667V8.16667C17.3333 8.25871 17.408 8.33333 17.5 8.33333H23.3333C23.4254 8.33333 23.5 8.25871 23.5 8.16667V4.66667C23.5 4.57462 23.4254 4.5 23.3333 4.5H17.5ZM15.3333 4.66667C15.3333 3.47005 16.3034 2.5 17.5 2.5H23.3333C24.53 2.5 25.5 3.47005 25.5 4.66667V8.16667C25.5 9.36328 24.53 10.3333 23.3333 10.3333H17.5C16.3034 10.3333 15.3333 9.36328 15.3333 8.16667V4.66667ZM17.5 15C17.408 15 17.3333 15.0746 17.3333 15.1667V23.3333C17.3333 23.4254 17.408 23.5 17.5 23.5H23.3333C23.4254 23.5 23.5 23.4254 23.5 23.3333V15.1667C23.5 15.0746 23.4254 15 23.3333 15H17.5ZM15.3333 15.1667C15.3333 13.97 16.3034 13 17.5 13H23.3333C24.53 13 25.5 13.9701 25.5 15.1667V23.3333C25.5 24.5299 24.53 25.5 23.3333 25.5H17.5C16.3034 25.5 15.3333 24.5299 15.3333 23.3333V15.1667ZM4.66667 19.6667C4.57462 19.6667 4.5 19.7413 4.5 19.8333V23.3333C4.5 23.4254 4.57462 23.5 4.66667 23.5H10.5C10.592 23.5 10.6667 23.4254 10.6667 23.3333V19.8333C10.6667 19.7413 10.592 19.6667 10.5 19.6667H4.66667ZM2.5 19.8333C2.5 18.6367 3.47005 17.6667 4.66667 17.6667H10.5C11.6966 17.6667 12.6667 18.6367 12.6667 19.8333V23.3333C12.6667 24.5299 11.6966 25.5 10.5 25.5H4.66667C3.47005 25.5 2.5 24.5299 2.5 23.3333V19.8333Z" fill="black"/>
</svg>
