<svg width="28" height="28" viewBox="0 0 28 28" fill="none" xmlns="http://www.w3.org/2000/svg">
<path fill-rule="evenodd" clip-rule="evenodd" d="M19.6713 3.41453C18.985 3.29746 18.2796 3.30008 17.587 3.42629C16.3871 3.64491 15.2823 4.22403 14.4199 5.08647C13.5574 5.9489 12.9783 7.05369 12.7597 8.2536C12.5411 9.45351 12.6933 10.6916 13.1961 11.8027C13.3677 12.182 13.2865 12.6278 12.9922 12.9221L4.93052 20.9838C4.65392 21.2604 4.49854 21.6355 4.49854 22.0267C4.49854 22.4178 4.65392 22.793 4.93052 23.0696C5.20711 23.3462 5.58225 23.5016 5.97341 23.5016C6.36457 23.5016 6.73971 23.3462 7.0163 23.0696L15.078 15.0079C15.3723 14.7136 15.8181 14.6324 16.1973 14.804C17.3085 15.3068 18.5466 15.459 19.7465 15.2404C20.9464 15.0218 22.0512 14.4427 22.9136 13.5802C23.7761 12.7178 24.3552 11.613 24.5738 10.4131C24.7 9.72045 24.7026 9.01508 24.5856 8.32874L21.3572 11.5571L21.3501 11.5642C20.9451 11.9612 20.4005 12.1835 19.8334 12.1835C19.2663 12.1835 18.7218 11.9612 18.3167 11.5642L18.3096 11.5571L16.443 9.69046L16.4359 9.68335C16.0389 9.27834 15.8166 8.73382 15.8166 8.16668C15.8166 7.59955 16.0389 7.05503 16.4359 6.65002L16.443 6.64291L19.6713 3.41453ZM17.2285 1.45868C18.8284 1.16718 20.4791 1.37018 21.9607 2.04062C22.2598 2.17596 22.4734 2.44947 22.5322 2.77243C22.5911 3.09539 22.4876 3.42666 22.2555 3.65879L17.8623 8.05199C17.833 8.08293 17.8166 8.12398 17.8166 8.16668C17.8166 8.20939 17.833 8.25043 17.8623 8.28137L19.7187 10.1378C19.7496 10.1671 19.7907 10.1835 19.8334 10.1835C19.8761 10.1835 19.9172 10.1671 19.9481 10.1378L24.3413 5.74458C24.5734 5.51245 24.9047 5.40904 25.2277 5.46788C25.5506 5.52673 25.8241 5.74033 25.9595 6.03941C26.6299 7.521 26.8329 9.17172 26.5414 10.7716C26.2499 12.3715 25.4778 13.8445 24.3278 14.9944C23.1779 16.1444 21.7049 16.9165 20.105 17.208C18.7368 17.4573 17.3314 17.345 16.0264 16.8879L8.43052 24.4838C7.77885 25.1355 6.895 25.5016 5.97341 25.5016C5.05182 25.5016 4.16797 25.1355 3.5163 24.4838C2.86464 23.8321 2.49854 22.9483 2.49854 22.0267C2.49854 21.1051 2.86464 20.2212 3.5163 19.5696L11.1122 11.9736C10.6551 10.6687 10.5428 9.26329 10.7921 7.8951C11.0836 6.29522 11.8557 4.82216 13.0056 3.67225C14.1556 2.52234 15.6286 1.75018 17.2285 1.45868Z" fill="black"/>
</svg>
