<svg width="28" height="28" viewBox="0 0 28 28" fill="none" xmlns="http://www.w3.org/2000/svg">
<path fill-rule="evenodd" clip-rule="evenodd" d="M14.0002 5.66614C12.1277 5.66614 10.2883 6.15903 8.66671 7.09527C7.04515 8.03151 5.6986 9.3781 4.76242 10.9997C3.82625 12.6213 3.33342 14.4608 3.3335 16.3332C3.33357 18.2056 3.82653 20.0451 4.76283 21.6666C5.039 22.1449 4.87515 22.7565 4.39687 23.0326C3.91859 23.3088 3.307 23.145 3.03083 22.6667C1.91897 20.7411 1.33358 18.5568 1.3335 16.3333C1.33341 14.1098 1.91864 11.9254 3.03035 9.99975C4.14206 8.0741 5.74108 6.47501 7.66669 5.36323C9.5923 4.25145 11.7766 3.66614 14.0002 3.66614C16.2237 3.66614 18.408 4.25145 20.3336 5.36323C22.2592 6.47501 23.8583 8.0741 24.97 9.99975C26.0817 11.9254 26.6669 14.1098 26.6668 16.3333C26.6667 18.5568 26.0814 20.7411 24.9695 22.6667C24.6933 23.145 24.0817 23.3088 23.6035 23.0326C23.1252 22.7565 22.9613 22.1449 23.2375 21.6666C24.1738 20.0451 24.6668 18.2056 24.6668 16.3332C24.6669 14.4608 24.1741 12.6213 23.2379 10.9997C22.3017 9.3781 20.9552 8.03151 19.3336 7.09527C17.712 6.15903 15.8726 5.66614 14.0002 5.66614ZM19.3739 10.9595C19.7645 11.3501 19.7645 11.9832 19.3739 12.3738L14.7073 17.0404C14.3167 17.4309 13.6836 17.4309 13.2931 17.0404C12.9025 16.6499 12.9025 16.0167 13.2931 15.6262L17.9597 10.9595C18.3502 10.569 18.9834 10.569 19.3739 10.9595Z" fill="black"/>
</svg>
