<svg width="28" height="28" viewBox="0 0 28 28" fill="none" xmlns="http://www.w3.org/2000/svg">
<path fill-rule="evenodd" clip-rule="evenodd" d="M5.83333 4.5C5.47971 4.5 5.14057 4.64048 4.89052 4.89052C4.64048 5.14057 4.5 5.47971 4.5 5.83333V13H13V4.5H5.83333ZM5.83333 2.5C4.94928 2.5 4.10143 2.85119 3.47631 3.47631C2.85119 4.10143 2.5 4.94928 2.5 5.83333V22.1667C2.5 23.0507 2.85119 23.8986 3.47631 24.5237C4.10143 25.1488 4.94928 25.5 5.83333 25.5H12.8333C13.408 25.5 13.9591 25.2717 14.3654 24.8654C14.7717 24.4591 15 23.908 15 23.3333V15H23.3333C23.908 15 24.4591 14.7717 24.8654 14.3654C25.2717 13.9591 25.5 13.408 25.5 12.8333V5.83333C25.5 4.94928 25.1488 4.10143 24.5237 3.47631C23.8986 2.85119 23.0507 2.5 22.1667 2.5H5.83333ZM15 4.5V13H23.3333C23.3775 13 23.4199 12.9824 23.4512 12.9512C23.4824 12.9199 23.5 12.8775 23.5 12.8333V5.83333C23.5 5.47971 23.3595 5.14057 23.1095 4.89052C22.8594 4.64048 22.5203 4.5 22.1667 4.5H15ZM13 15H4.5V22.1667C4.5 22.5203 4.64048 22.8594 4.89052 23.1095C5.14057 23.3595 5.47971 23.5 5.83333 23.5H12.8333C12.8775 23.5 12.9199 23.4824 12.9512 23.4512C12.9824 23.4199 13 23.3775 13 23.3333V15ZM26.3738 19.1262C26.7643 19.5168 26.7643 20.1499 26.3738 20.5404L21.7071 25.2071C21.3166 25.5976 20.6834 25.5976 20.2929 25.2071L17.9596 22.8738C17.569 22.4833 17.569 21.8501 17.9596 21.4596C18.3501 21.069 18.9832 21.069 19.3738 21.4596L21 23.0858L24.9596 19.1262C25.3501 18.7357 25.9832 18.7357 26.3738 19.1262Z" fill="black"/>
</svg>
