<svg width="150" height="150" viewBox="0 0 150 150" fill="none" xmlns="http://www.w3.org/2000/svg">
<rect width="150" height="150" rx="8" fill="#454545" fill-opacity="0.8"/>
<rect x="0.5" y="0.5" width="149" height="149" rx="7.5" stroke="white" stroke-opacity="0.3"/>
<path d="M20.186 24.694C20.5407 24.694 20.8487 24.6497 21.11 24.561C21.376 24.4723 21.593 24.351 21.761 24.197C21.9337 24.0383 22.062 23.8517 22.146 23.637C22.23 23.4223 22.272 23.1867 22.272 22.93C22.272 22.4167 22.1017 22.0223 21.761 21.747C21.425 21.4717 20.9093 21.334 20.214 21.334H19.01V24.694H20.186ZM25.03 30H23.329C23.007 30 22.7737 29.874 22.629 29.622L20.501 26.381C20.4217 26.2597 20.333 26.1733 20.235 26.122C20.1417 26.0707 20.0017 26.045 19.815 26.045H19.01V30H17.127V19.878H20.214C20.9 19.878 21.488 19.9503 21.978 20.095C22.4727 20.235 22.8763 20.4333 23.189 20.69C23.5063 20.9467 23.7397 21.2547 23.889 21.614C24.0383 21.9687 24.113 22.3607 24.113 22.79C24.113 23.1307 24.0617 23.4527 23.959 23.756C23.861 24.0593 23.7163 24.3347 23.525 24.582C23.3383 24.8293 23.105 25.0463 22.825 25.233C22.5497 25.4197 22.2347 25.5667 21.88 25.674C22.0013 25.744 22.1133 25.828 22.216 25.926C22.3187 26.0193 22.412 26.1313 22.496 26.262L25.03 30ZM29.5347 26.934C29.0354 26.9573 28.6154 27.0017 28.2747 27.067C27.9341 27.1277 27.6611 27.207 27.4557 27.305C27.2504 27.403 27.1034 27.5173 27.0147 27.648C26.9261 27.7787 26.8817 27.921 26.8817 28.075C26.8817 28.3783 26.9704 28.5953 27.1477 28.726C27.3297 28.8567 27.5654 28.922 27.8547 28.922C28.2094 28.922 28.5151 28.859 28.7717 28.733C29.0331 28.6023 29.2874 28.4063 29.5347 28.145V26.934ZM25.5727 23.819C26.3987 23.063 27.3927 22.685 28.5547 22.685C28.9747 22.685 29.3504 22.755 29.6817 22.895C30.0131 23.0303 30.2931 23.2217 30.5217 23.469C30.7504 23.7117 30.9231 24.0033 31.0397 24.344C31.1611 24.6847 31.2217 25.058 31.2217 25.464V30H30.4377C30.2744 30 30.1484 29.9767 30.0597 29.93C29.9711 29.8787 29.9011 29.7783 29.8497 29.629L29.6957 29.111C29.5137 29.2743 29.3364 29.419 29.1637 29.545C28.9911 29.6663 28.8114 29.769 28.6247 29.853C28.4381 29.937 28.2374 30 28.0227 30.042C27.8127 30.0887 27.5794 30.112 27.3227 30.112C27.0194 30.112 26.7394 30.0723 26.4827 29.993C26.2261 29.909 26.0044 29.7853 25.8177 29.622C25.6311 29.4587 25.4864 29.2557 25.3837 29.013C25.2811 28.7703 25.2297 28.488 25.2297 28.166C25.2297 27.984 25.2601 27.8043 25.3207 27.627C25.3814 27.445 25.4794 27.2723 25.6147 27.109C25.7547 26.9457 25.9344 26.7917 26.1537 26.647C26.3731 26.5023 26.6414 26.3763 26.9587 26.269C27.2807 26.1617 27.6541 26.0753 28.0787 26.01C28.5034 25.94 28.9887 25.898 29.5347 25.884V25.464C29.5347 24.9833 29.4321 24.6287 29.2267 24.4C29.0214 24.1667 28.7251 24.05 28.3377 24.05C28.0577 24.05 27.8244 24.0827 27.6377 24.148C27.4557 24.2133 27.2947 24.288 27.1547 24.372C27.0147 24.4513 26.8864 24.5237 26.7697 24.589C26.6577 24.6543 26.5317 24.687 26.3917 24.687C26.2704 24.687 26.1677 24.6567 26.0837 24.596C25.9997 24.5307 25.9321 24.456 25.8807 24.372L25.5727 23.819ZM35.1484 30.112C34.5231 30.112 34.0424 29.937 33.7064 29.587C33.3751 29.2323 33.2094 28.7447 33.2094 28.124V24.113H32.4744C32.3811 24.113 32.3017 24.0827 32.2364 24.022C32.1711 23.9613 32.1384 23.8703 32.1384 23.749V23.063L33.2934 22.874L33.6574 20.914C33.6807 20.8207 33.7251 20.7483 33.7904 20.697C33.8557 20.6457 33.9397 20.62 34.0424 20.62H34.9384V22.881H36.8564V24.113H34.9384V28.005C34.9384 28.229 34.9921 28.404 35.0994 28.53C35.2114 28.656 35.3631 28.719 35.5544 28.719C35.6617 28.719 35.7504 28.7073 35.8204 28.684C35.8951 28.656 35.9581 28.628 36.0094 28.6C36.0654 28.572 36.1144 28.5463 36.1564 28.523C36.1984 28.495 36.2404 28.481 36.2824 28.481C36.3337 28.481 36.3757 28.495 36.4084 28.523C36.4411 28.5463 36.4761 28.5837 36.5134 28.635L37.0314 29.475C36.7794 29.685 36.4901 29.8437 36.1634 29.951C35.8367 30.0583 35.4984 30.112 35.1484 30.112ZM42.5357 25.583C42.5357 25.359 42.503 25.149 42.4377 24.953C42.377 24.7523 42.2837 24.5773 42.1577 24.428C42.0317 24.2787 41.8707 24.162 41.6747 24.078C41.4834 23.9893 41.2594 23.945 41.0027 23.945C40.5034 23.945 40.109 24.0873 39.8197 24.372C39.535 24.6567 39.353 25.0603 39.2737 25.583H42.5357ZM39.2387 26.626C39.2667 26.9947 39.332 27.3143 39.4347 27.585C39.5374 27.851 39.6727 28.0727 39.8407 28.25C40.0087 28.4227 40.207 28.5533 40.4357 28.642C40.669 28.726 40.9257 28.768 41.2057 28.768C41.4857 28.768 41.726 28.7353 41.9267 28.67C42.132 28.6047 42.3094 28.5323 42.4587 28.453C42.6127 28.3737 42.7457 28.3013 42.8577 28.236C42.9744 28.1707 43.0864 28.138 43.1937 28.138C43.3384 28.138 43.4457 28.1917 43.5157 28.299L44.0127 28.929C43.8214 29.153 43.6067 29.342 43.3687 29.496C43.1307 29.6453 42.881 29.7667 42.6197 29.86C42.363 29.9487 42.0994 30.0117 41.8287 30.049C41.5627 30.0863 41.3037 30.105 41.0517 30.105C40.5524 30.105 40.088 30.0233 39.6587 29.86C39.2294 29.692 38.856 29.447 38.5387 29.125C38.2214 28.7983 37.9717 28.397 37.7897 27.921C37.6077 27.4403 37.5167 26.885 37.5167 26.255C37.5167 25.765 37.596 25.3053 37.7547 24.876C37.9134 24.442 38.1397 24.0663 38.4337 23.749C38.7324 23.427 39.094 23.1727 39.5187 22.986C39.948 22.7993 40.431 22.706 40.9677 22.706C41.4204 22.706 41.838 22.7783 42.2207 22.923C42.6034 23.0677 42.9324 23.28 43.2077 23.56C43.483 23.8353 43.6977 24.176 43.8517 24.582C44.0104 24.9833 44.0897 25.443 44.0897 25.961C44.0897 26.2223 44.0617 26.3997 44.0057 26.493C43.9497 26.5817 43.8424 26.626 43.6837 26.626H39.2387ZM48.9035 25.562H52.1585V26.129H48.9035V25.562ZM59.8849 29.675C60.1516 29.6583 60.3883 29.605 60.5949 29.515C60.8016 29.4217 60.9766 29.3017 61.1199 29.155C61.2633 29.005 61.3716 28.8333 61.4449 28.64C61.5183 28.4433 61.5549 28.2333 61.5549 28.01C61.5549 27.79 61.5133 27.6033 61.4299 27.45C61.3466 27.2967 61.2349 27.1667 61.0949 27.06C60.9549 26.9533 60.7933 26.865 60.6099 26.795C60.4299 26.7217 60.2399 26.6533 60.0399 26.59L59.8849 29.675ZM59.8849 23.265C59.6316 23.2783 59.4099 23.325 59.2199 23.405C59.0333 23.4817 58.8766 23.5833 58.7499 23.71C58.6233 23.8333 58.5283 23.975 58.4649 24.135C58.4016 24.295 58.3699 24.4633 58.3699 24.64C58.3699 24.8467 58.4066 25.0233 58.4799 25.17C58.5533 25.3167 58.6533 25.4433 58.7799 25.55C58.9066 25.6533 59.0516 25.7433 59.2149 25.82C59.3816 25.8933 59.5583 25.9617 59.7449 26.025L59.8849 23.265ZM60.0599 26.125C60.2966 26.2017 60.5316 26.2833 60.7649 26.37C60.9983 26.4533 61.2066 26.5617 61.3899 26.695C61.5733 26.8283 61.7216 26.9933 61.8349 27.19C61.9483 27.3867 62.0049 27.635 62.0049 27.935C62.0049 28.2217 61.9566 28.4917 61.8599 28.745C61.7666 28.9983 61.6283 29.2217 61.4449 29.415C61.2616 29.605 61.0366 29.7583 60.7699 29.875C60.5066 29.9917 60.2049 30.0583 59.8649 30.075L59.8099 31.13C59.8066 31.1733 59.7916 31.21 59.7649 31.24C59.7416 31.27 59.7066 31.285 59.6599 31.285H59.4799L59.5399 30.075C59.1133 30.055 58.7416 29.9633 58.4249 29.8C58.1116 29.6367 57.8349 29.4217 57.5949 29.155L57.7299 28.96C57.7699 28.91 57.8166 28.885 57.8699 28.885C57.8999 28.885 57.9366 28.9033 57.9799 28.94C58.0233 28.9767 58.0766 29.0233 58.1399 29.08C58.2033 29.1333 58.2783 29.1933 58.3649 29.26C58.4516 29.3233 58.5516 29.385 58.6649 29.445C58.7816 29.5017 58.9133 29.5517 59.0599 29.595C59.2066 29.6383 59.3733 29.665 59.5599 29.675L59.7249 26.49C59.4983 26.42 59.2766 26.3433 59.0599 26.26C58.8433 26.1733 58.6499 26.0633 58.4799 25.93C58.3133 25.7933 58.1783 25.6267 58.0749 25.43C57.9716 25.23 57.9199 24.98 57.9199 24.68C57.9199 24.4467 57.9633 24.2233 58.0499 24.01C58.1399 23.7933 58.2683 23.6017 58.4349 23.435C58.6049 23.265 58.8133 23.1283 59.0599 23.025C59.3066 22.9217 59.5899 22.865 59.9099 22.855L59.9499 22.02C59.9499 21.9733 59.9633 21.935 59.9899 21.905C60.0166 21.875 60.0516 21.86 60.0949 21.86H60.2749L60.2249 22.865C60.5616 22.8883 60.8566 22.9633 61.1099 23.09C61.3633 23.2133 61.5949 23.38 61.8049 23.59L61.6949 23.76C61.6616 23.8167 61.6166 23.845 61.5599 23.845C61.5199 23.845 61.4666 23.8183 61.3999 23.765C61.3366 23.7083 61.2516 23.6467 61.1449 23.58C61.0416 23.51 60.9133 23.445 60.7599 23.385C60.6066 23.3217 60.4216 23.2817 60.2049 23.265L60.0599 26.125ZM63.5807 30.225C63.554 30.2917 63.514 30.34 63.4607 30.37C63.4074 30.4033 63.3524 30.42 63.2957 30.42H63.1007L66.2107 22.91C66.2607 22.7867 66.3507 22.725 66.4807 22.725H66.6857L63.5807 30.225ZM68.3664 25.865C68.5964 25.585 68.8581 25.3617 69.1514 25.195C69.4481 25.0283 69.7797 24.945 70.1464 24.945C70.4197 24.945 70.6597 24.9883 70.8664 25.075C71.0764 25.1617 71.2497 25.2867 71.3864 25.45C71.5231 25.6133 71.6264 25.81 71.6964 26.04C71.7664 26.27 71.8014 26.53 71.8014 26.82V30H71.3214V26.82C71.3214 26.3533 71.2147 25.9883 71.0014 25.725C70.7881 25.4583 70.4631 25.325 70.0264 25.325C69.7031 25.325 69.3997 25.4083 69.1164 25.575C68.8364 25.7383 68.5864 25.9667 68.3664 26.26V30H67.8864V22.725H68.3664V25.865ZM73.8395 26.225C73.9161 26.0217 74.0028 25.8417 74.0995 25.685C74.1995 25.525 74.3128 25.39 74.4395 25.28C74.5695 25.17 74.7128 25.0867 74.8695 25.03C75.0295 24.97 75.2061 24.94 75.3995 24.94C75.5028 24.94 75.6045 24.95 75.7045 24.97C75.8045 24.9867 75.8928 25.0183 75.9695 25.065L75.9295 25.395C75.9128 25.4483 75.8811 25.475 75.8345 25.475C75.7945 25.475 75.7328 25.4633 75.6495 25.44C75.5695 25.4167 75.4628 25.405 75.3295 25.405C75.1361 25.405 74.9645 25.435 74.8145 25.495C74.6678 25.5517 74.5345 25.6383 74.4145 25.755C74.2978 25.8717 74.1945 26.0167 74.1045 26.19C74.0178 26.36 73.9378 26.5567 73.8645 26.78V30H73.3845V25.025H73.6395C73.6961 25.025 73.7361 25.0367 73.7595 25.06C73.7828 25.0833 73.7978 25.1233 73.8045 25.18L73.8395 26.225ZM76.414 29.615C76.414 29.5517 76.4257 29.4917 76.449 29.435C76.4723 29.3783 76.504 29.33 76.544 29.29C76.5873 29.2467 76.6357 29.2133 76.689 29.19C76.7457 29.1633 76.8073 29.15 76.874 29.15C76.9373 29.15 76.9973 29.1633 77.054 29.19C77.1107 29.2133 77.159 29.2467 77.199 29.29C77.2423 29.33 77.2757 29.3783 77.299 29.435C77.3257 29.4917 77.339 29.5517 77.339 29.615C77.339 29.6817 77.3257 29.7433 77.299 29.8C77.2757 29.8533 77.2423 29.9017 77.199 29.945C77.159 29.985 77.1107 30.0167 77.054 30.04C76.9973 30.0633 76.9373 30.075 76.874 30.075C76.744 30.075 76.634 30.0317 76.544 29.945C76.4573 29.855 76.414 29.745 76.414 29.615Z" fill="white"/>
<path d="M30.2832 72.4756H135.074" stroke="#858585" stroke-dasharray="2 2"/>
<path d="M30.2832 54.6342H135.074" stroke="#858585" stroke-dasharray="2 2"/>
<path d="M30.2832 89.3781H135.074" stroke="#858585" stroke-dasharray="2 2"/>
<path d="M30.2832 120.835H135.074" stroke="#858585" stroke-dasharray="2 2"/>
<path d="M30.2832 105.341H135.074" stroke="#858585" stroke-dasharray="2 2"/>
<path d="M18.912 55.632C18.912 56.0107 18.8187 56.3253 18.632 56.576C18.4507 56.8267 18.2053 56.9813 17.896 57.04C17.8747 57.0453 17.864 57.0587 17.864 57.08V57.656C17.864 57.7093 17.8373 57.736 17.784 57.736H17.608C17.5547 57.736 17.528 57.7093 17.528 57.656L17.536 57.096C17.536 57.0747 17.5253 57.064 17.504 57.064C17.1573 57.032 16.88 56.8907 16.672 56.64C16.464 56.384 16.36 56.0587 16.36 55.664V55.496C16.36 55.4427 16.3867 55.416 16.44 55.416H16.696C16.7493 55.416 16.776 55.4427 16.776 55.496V55.648C16.776 55.9627 16.8533 56.216 17.008 56.408C17.168 56.6 17.3733 56.696 17.624 56.696C17.8747 56.696 18.0827 56.6027 18.248 56.416C18.4133 56.2293 18.496 55.9867 18.496 55.688C18.496 55.4907 18.456 55.32 18.376 55.176C18.3013 55.032 18.2027 54.9093 18.08 54.808C17.9627 54.7013 17.768 54.544 17.496 54.336C17.2187 54.128 17.0053 53.9573 16.856 53.824C16.712 53.6853 16.592 53.5227 16.496 53.336C16.4 53.144 16.352 52.9173 16.352 52.656C16.352 52.272 16.4533 51.9627 16.656 51.728C16.864 51.4933 17.136 51.3627 17.472 51.336C17.4933 51.336 17.504 51.3253 17.504 51.304L17.496 50.696C17.496 50.6427 17.5227 50.616 17.576 50.616H17.752C17.8053 50.616 17.832 50.6427 17.832 50.696V51.328C17.832 51.3493 17.8427 51.3627 17.864 51.368C18.1733 51.4267 18.4187 51.5813 18.6 51.832C18.7813 52.0773 18.872 52.3867 18.872 52.76V52.96C18.872 53.0133 18.8453 53.04 18.792 53.04H18.528C18.4747 53.04 18.448 53.0133 18.448 52.96V52.76C18.448 52.4453 18.368 52.192 18.208 52C18.0533 51.8027 17.8453 51.704 17.584 51.704C17.3493 51.704 17.1547 51.7893 17 51.96C16.8453 52.1253 16.768 52.36 16.768 52.664C16.768 52.8453 16.8 53.0027 16.864 53.136C16.9333 53.2693 17.0293 53.3947 17.152 53.512C17.28 53.6293 17.472 53.784 17.728 53.976C18.0427 54.2107 18.2773 54.4 18.432 54.544C18.5867 54.688 18.704 54.8453 18.784 55.016C18.8693 55.1867 18.912 55.392 18.912 55.632ZM21.747 56.584C21.7417 56.5947 21.7417 56.6053 21.747 56.616C21.7523 56.6213 21.7603 56.624 21.771 56.624H23.691C23.7443 56.624 23.771 56.6507 23.771 56.704V56.92C23.771 56.9733 23.7443 57 23.691 57H21.299C21.2457 57 21.219 56.9733 21.219 56.92V56.68C21.219 56.6427 21.227 56.608 21.243 56.576C21.2857 56.5013 21.3203 56.4453 21.347 56.408C21.4803 56.1893 21.6803 55.8587 21.947 55.416C22.2137 54.968 22.443 54.5787 22.635 54.248C22.987 53.6187 23.163 53.104 23.163 52.704C23.163 52.4053 23.0937 52.1653 22.955 51.984C22.8163 51.8027 22.6297 51.712 22.395 51.712C22.1657 51.712 21.9817 51.8027 21.843 51.984C21.7097 52.16 21.6457 52.3973 21.651 52.696V52.984C21.651 53.0373 21.6243 53.064 21.571 53.064H21.291C21.2377 53.064 21.211 53.0373 21.211 52.984V52.68C21.2217 52.28 21.3363 51.9573 21.555 51.712C21.7737 51.4613 22.0563 51.336 22.403 51.336C22.7603 51.336 23.0483 51.4613 23.267 51.712C23.4857 51.9627 23.595 52.2933 23.595 52.704C23.595 53.1893 23.403 53.7653 23.019 54.432C22.8697 54.6987 22.635 55.0933 22.315 55.616L21.747 56.584ZM26.9118 55.056C26.9651 55.056 26.9918 55.0827 26.9918 55.136V55.36C26.9918 55.4133 26.9651 55.44 26.9118 55.44H26.6718C26.6505 55.44 26.6398 55.4507 26.6398 55.472V56.92C26.6398 56.9733 26.6131 57 26.5598 57H26.2958C26.2425 57 26.2158 56.9733 26.2158 56.92V55.472C26.2158 55.4507 26.2051 55.44 26.1838 55.44H24.2798C24.2265 55.44 24.1998 55.4133 24.1998 55.36V55.152C24.1998 55.1307 24.2051 55.0987 24.2158 55.056L25.4478 51.464C25.4638 51.4213 25.4958 51.4 25.5438 51.4H25.8318C25.8905 51.4 25.9118 51.4293 25.8958 51.488L24.6958 55.016C24.6905 55.0267 24.6905 55.0373 24.6958 55.048C24.7011 55.0533 24.7091 55.056 24.7198 55.056H26.1838C26.2051 55.056 26.2158 55.0453 26.2158 55.024V53.696C26.2158 53.6427 26.2425 53.616 26.2958 53.616H26.5598C26.6131 53.616 26.6398 53.6427 26.6398 53.696V55.024C26.6398 55.0453 26.6505 55.056 26.6718 55.056H26.9118Z" fill="#BCBCBC"/>
<path d="M18.912 90.3758C18.912 90.7544 18.8187 91.0691 18.632 91.3198C18.4507 91.5704 18.2053 91.7251 17.896 91.7838C17.8747 91.7891 17.864 91.8024 17.864 91.8238V92.3998C17.864 92.4531 17.8373 92.4798 17.784 92.4798H17.608C17.5547 92.4798 17.528 92.4531 17.528 92.3998L17.536 91.8398C17.536 91.8184 17.5253 91.8078 17.504 91.8078C17.1573 91.7758 16.88 91.6344 16.672 91.3838C16.464 91.1278 16.36 90.8024 16.36 90.4078V90.2398C16.36 90.1864 16.3867 90.1598 16.44 90.1598H16.696C16.7493 90.1598 16.776 90.1864 16.776 90.2398V90.3918C16.776 90.7064 16.8533 90.9598 17.008 91.1518C17.168 91.3438 17.3733 91.4398 17.624 91.4398C17.8747 91.4398 18.0827 91.3464 18.248 91.1598C18.4133 90.9731 18.496 90.7304 18.496 90.4318C18.496 90.2344 18.456 90.0638 18.376 89.9198C18.3013 89.7758 18.2027 89.6531 18.08 89.5518C17.9627 89.4451 17.768 89.2878 17.496 89.0798C17.2187 88.8718 17.0053 88.7011 16.856 88.5678C16.712 88.4291 16.592 88.2664 16.496 88.0798C16.4 87.8878 16.352 87.6611 16.352 87.3998C16.352 87.0158 16.4533 86.7064 16.656 86.4718C16.864 86.2371 17.136 86.1064 17.472 86.0798C17.4933 86.0798 17.504 86.0691 17.504 86.0478L17.496 85.4398C17.496 85.3864 17.5227 85.3598 17.576 85.3598H17.752C17.8053 85.3598 17.832 85.3864 17.832 85.4398V86.0718C17.832 86.0931 17.8427 86.1064 17.864 86.1118C18.1733 86.1704 18.4187 86.3251 18.6 86.5758C18.7813 86.8211 18.872 87.1304 18.872 87.5038V87.7038C18.872 87.7571 18.8453 87.7838 18.792 87.7838H18.528C18.4747 87.7838 18.448 87.7571 18.448 87.7038V87.5038C18.448 87.1891 18.368 86.9358 18.208 86.7438C18.0533 86.5464 17.8453 86.4478 17.584 86.4478C17.3493 86.4478 17.1547 86.5331 17 86.7038C16.8453 86.8691 16.768 87.1038 16.768 87.4078C16.768 87.5891 16.8 87.7464 16.864 87.8798C16.9333 88.0131 17.0293 88.1384 17.152 88.2558C17.28 88.3731 17.472 88.5278 17.728 88.7198C18.0427 88.9544 18.2773 89.1438 18.432 89.2878C18.5867 89.4318 18.704 89.5891 18.784 89.7598C18.8693 89.9304 18.912 90.1358 18.912 90.3758ZM21.875 86.1678C21.907 86.1518 21.9417 86.1438 21.979 86.1438H22.267C22.3203 86.1438 22.347 86.1704 22.347 86.2238V91.6638C22.347 91.7171 22.3203 91.7438 22.267 91.7438H22.003C21.9497 91.7438 21.923 91.7171 21.923 91.6638V86.6798C21.923 86.6691 21.9177 86.6611 21.907 86.6558C21.9017 86.6504 21.8937 86.6504 21.883 86.6558L21.107 86.9678L21.075 86.9758C21.043 86.9758 21.0217 86.9544 21.011 86.9118L20.971 86.7278V86.7118C20.971 86.6691 20.987 86.6398 21.019 86.6238L21.875 86.1678ZM23.747 91.3278C23.7417 91.3384 23.7417 91.3491 23.747 91.3598C23.7523 91.3651 23.7603 91.3678 23.771 91.3678H25.691C25.7443 91.3678 25.771 91.3944 25.771 91.4478V91.6638C25.771 91.7171 25.7443 91.7438 25.691 91.7438H23.299C23.2457 91.7438 23.219 91.7171 23.219 91.6638V91.4238C23.219 91.3864 23.227 91.3518 23.243 91.3198C23.2857 91.2451 23.3203 91.1891 23.347 91.1518C23.4803 90.9331 23.6803 90.6024 23.947 90.1598C24.2137 89.7118 24.443 89.3224 24.635 88.9918C24.987 88.3624 25.163 87.8478 25.163 87.4478C25.163 87.1491 25.0937 86.9091 24.955 86.7278C24.8163 86.5464 24.6297 86.4558 24.395 86.4558C24.1657 86.4558 23.9817 86.5464 23.843 86.7278C23.7097 86.9038 23.6457 87.1411 23.651 87.4398V87.7278C23.651 87.7811 23.6243 87.8078 23.571 87.8078H23.291C23.2377 87.8078 23.211 87.7811 23.211 87.7278V87.4238C23.2217 87.0238 23.3363 86.7011 23.555 86.4558C23.7737 86.2051 24.0563 86.0798 24.403 86.0798C24.7603 86.0798 25.0483 86.2051 25.267 86.4558C25.4857 86.7064 25.595 87.0371 25.595 87.4478C25.595 87.9331 25.403 88.5091 25.019 89.1758C24.8697 89.4424 24.635 89.8371 24.315 90.3598L23.747 91.3278Z" fill="#BCBCBC"/>
<rect x="35" y="92.0487" width="4.10598" height="18.7805" rx="2.05299" fill="#6C90B1"/>
<rect x="50.1221" y="92.9878" width="4.10598" height="15.0244" rx="2.05299" fill="#6C90B1"/>
<rect x="65.2451" y="98.6219" width="4.10598" height="15.0244" rx="2.05299" fill="#6C90B1"/>
<rect x="80" y="84" width="4" height="19" rx="2" fill="#6C90B1"/>
<rect x="95.4902" y="70.4512" width="4.10598" height="28.1707" rx="2.05299" fill="#6C90B1"/>
<rect x="112" y="60" width="4" height="21" rx="2" fill="#6C90B1"/>
<rect x="127" y="69" width="4" height="23" rx="2" fill="#6C90B1"/>
<path d="M24.4807 123.751C24.0914 123.751 23.7767 123.623 23.5367 123.367C23.2967 123.111 23.1767 122.775 23.1767 122.359V119.383C23.1767 118.967 23.2967 118.631 23.5367 118.375C23.7767 118.119 24.0914 117.991 24.4807 117.991C24.8754 117.991 25.1927 118.119 25.4327 118.375C25.6727 118.631 25.7927 118.967 25.7927 119.383V122.359C25.7927 122.775 25.6727 123.111 25.4327 123.367C25.1927 123.623 24.8754 123.751 24.4807 123.751ZM24.4807 123.367C24.7474 123.367 24.9607 123.279 25.1207 123.103C25.286 122.921 25.3687 122.684 25.3687 122.391V119.351C25.3687 119.057 25.286 118.823 25.1207 118.647C24.9607 118.465 24.7474 118.375 24.4807 118.375C24.2194 118.375 24.006 118.465 23.8407 118.647C23.6807 118.823 23.6007 119.057 23.6007 119.351V122.391C23.6007 122.684 23.6807 122.921 23.8407 123.103C24.006 123.279 24.2194 123.367 24.4807 123.367Z" fill="#BCBCBC"/>
</svg>
