<svg width="28" height="28" viewBox="0 0 28 28" fill="none" xmlns="http://www.w3.org/2000/svg">
<path fill-rule="evenodd" clip-rule="evenodd" d="M13.4744 1.48272C13.7692 1.30052 14.1373 1.28395 14.4473 1.43895L23.7807 6.10561C24.1194 6.27501 24.3334 6.62127 24.3334 7.00004C24.3334 7.37881 24.1194 7.72508 23.7807 7.89447L15.0001 12.2847V15.1667C15.0001 15.719 14.5524 16.1667 14.0001 16.1667C13.4478 16.1667 13.0001 15.719 13.0001 15.1667V11.6884C12.9998 11.6744 12.9998 11.6605 13.0001 11.6466V2.33338C13.0001 1.9868 13.1796 1.66493 13.4744 1.48272ZM15.0001 10.0487L21.0974 7.00004L15.0001 3.95141V10.0487ZM10.2427 5.31078C10.4875 5.80585 10.2846 6.40563 9.78954 6.65044C8.15801 7.45721 6.79258 8.71569 5.8557 10.2761C4.91882 11.8366 4.44993 13.6334 4.50481 15.4526C4.55969 17.2719 5.13604 19.0371 6.16528 20.5383C7.19452 22.0394 8.63332 23.2133 10.3105 23.9203C11.9877 24.6272 13.8327 24.8375 15.626 24.5261C17.4192 24.2147 19.0853 23.3946 20.4259 22.1636C21.7665 20.9326 22.7253 19.3423 23.1882 17.582C23.651 15.8218 23.5985 13.9656 23.0368 12.2343C22.8663 11.709 23.154 11.145 23.6793 10.9745C24.2047 10.8041 24.7687 11.0918 24.9391 11.6171C25.6191 13.7128 25.6827 15.9598 25.1224 18.0906C24.5621 20.2215 23.4015 22.1465 21.7786 23.6367C20.1558 25.127 18.139 26.1196 15.9682 26.4966C13.7974 26.8736 11.564 26.619 9.53368 25.7632C7.50339 24.9074 5.76168 23.4864 4.51576 21.6692C3.26984 19.8521 2.57216 17.7152 2.50572 15.5129C2.43928 13.3107 3.00689 11.1356 4.14101 9.24667C5.27513 7.35769 6.92801 5.83427 8.90302 4.85765C9.39809 4.61284 9.99787 4.81572 10.2427 5.31078ZM9.93642 10.8637C10.378 11.1954 10.467 11.8223 10.1353 12.2638C9.65091 12.9086 9.33556 13.6644 9.21798 14.4622C9.1004 15.2601 9.18433 16.0747 9.46212 16.8318C9.73991 17.5889 10.2027 18.2645 10.8084 18.7969C11.4141 19.3294 12.1434 19.7019 12.9299 19.8804C13.7163 20.0589 14.535 20.0377 15.3112 19.8189C16.0874 19.6001 16.7965 19.1905 17.3739 18.6275C17.9513 18.0645 18.3787 17.3659 18.6171 16.5955C18.8554 15.8251 18.8972 15.0072 18.7386 14.2165C18.63 13.675 18.981 13.148 19.5225 13.0394C20.064 12.9308 20.591 13.2817 20.6996 13.8232C20.9238 14.9412 20.8647 16.0974 20.5277 17.1866C20.1907 18.2759 19.5865 19.2635 18.7702 20.0594C17.9538 20.8554 16.9513 21.4345 15.8539 21.7439C14.7565 22.0533 13.5991 22.0831 12.4872 21.8308C11.3753 21.5784 10.3442 21.0518 9.48791 20.299C8.63159 19.5462 7.97725 18.5911 7.58451 17.5207C7.19178 16.4503 7.07312 15.2986 7.23935 14.1706C7.40559 13.0426 7.85143 11.9742 8.53626 11.0626C8.86798 10.621 9.49485 10.532 9.93642 10.8637Z" fill="black"/>
</svg>
