<svg width="28" height="28" viewBox="0 0 28 28" fill="none" xmlns="http://www.w3.org/2000/svg">
<path fill-rule="evenodd" clip-rule="evenodd" d="M20.7294 2.35186C21.3817 1.69958 22.2664 1.33313 23.1888 1.33313C24.1113 1.33313 24.996 1.69958 25.6483 2.35186C26.3006 3.00415 26.667 3.88884 26.667 4.8113C26.667 5.73377 26.3006 6.61846 25.6483 7.27074L19.8 13.1144C19.7999 13.1145 19.8001 13.1143 19.8 13.1144C19.7999 13.1144 19.7995 13.1148 19.7995 13.1149C19.4035 13.5109 18.9142 13.8007 18.3766 13.9577L15.028 14.9343C15.028 14.9343 15.028 14.9343 15.028 14.9343C14.7555 15.0138 14.4667 15.0185 14.1917 14.9481C13.9167 14.8777 13.6658 14.7346 13.4651 14.5339C13.2644 14.3332 13.1213 14.0822 13.0509 13.8073C12.9804 13.5323 12.9852 13.2435 13.0647 12.971C13.0647 12.971 13.0647 12.971 13.0647 12.971L14.0412 9.62266C14.1981 9.08504 14.4882 8.59531 14.8842 8.19934L20.7294 2.35186ZM22.1436 3.76608C22.1436 3.76611 22.1436 3.76604 22.1436 3.76608L16.2987 9.61327C16.1403 9.7716 16.024 9.96763 15.9612 10.1826C15.9611 10.1827 15.9612 10.1825 15.9612 10.1826L15.1974 12.8016L17.816 12.0379C17.8161 12.0379 17.8159 12.0379 17.816 12.0379C18.031 11.9751 18.227 11.859 18.3854 11.7006L24.2341 5.85653C24.2341 5.85644 24.234 5.85662 24.2341 5.85653C24.5111 5.57935 24.667 5.20321 24.667 4.8113C24.667 4.41927 24.5113 4.04329 24.2341 3.76608C23.9568 3.48887 23.5809 3.33313 23.1888 3.33313C22.7968 3.33313 22.4208 3.48894 22.1436 3.76608ZM4.64314 2.30961C5.26826 1.68449 6.11611 1.3333 7.00016 1.3333H15.6335C16.1858 1.3333 16.6335 1.78102 16.6335 2.3333C16.6335 2.88559 16.1858 3.3333 15.6335 3.3333H7.00016C6.64654 3.3333 6.3074 3.47378 6.05735 3.72383C5.80731 3.97388 5.66683 4.31301 5.66683 4.66664V5.99997H7.00016C7.55245 5.99997 8.00016 6.44768 8.00016 6.99997C8.00016 7.55225 7.55245 7.99997 7.00016 7.99997H5.66683V10.6666H7.00016C7.55245 10.6666 8.00016 11.1144 8.00016 11.6666C8.00016 12.2189 7.55245 12.6666 7.00016 12.6666H5.66683V15.3333H7.00016C7.55245 15.3333 8.00016 15.781 8.00016 16.3333C8.00016 16.8856 7.55245 17.3333 7.00016 17.3333H5.66683V20H7.00016C7.55245 20 8.00016 20.4477 8.00016 21C8.00016 21.5523 7.55245 22 7.00016 22H5.66683V23.3333C5.66683 23.6869 5.8073 24.0261 6.05735 24.2761C6.3074 24.5262 6.64654 24.6666 7.00016 24.6666H21.0002C21.3538 24.6666 21.6929 24.5262 21.943 24.2761C22.193 24.0261 22.3335 23.6869 22.3335 23.3333V14.7C22.3335 14.1477 22.7812 13.7 23.3335 13.7C23.8858 13.7 24.3335 14.1477 24.3335 14.7V23.3333C24.3335 24.2174 23.9823 25.0652 23.3572 25.6903C22.7321 26.3154 21.8842 26.6666 21.0002 26.6666H7.00016C6.11611 26.6666 5.26826 26.3154 4.64314 25.6903C4.01802 25.0652 3.66683 24.2174 3.66683 23.3333V22H2.3335C1.78121 22 1.3335 21.5523 1.3335 21C1.3335 20.4477 1.78121 20 2.3335 20H3.66683V17.3333H2.3335C1.78121 17.3333 1.3335 16.8856 1.3335 16.3333C1.3335 15.781 1.78121 15.3333 2.3335 15.3333H3.66683V12.6666H2.3335C1.78121 12.6666 1.3335 12.2189 1.3335 11.6666C1.3335 11.1144 1.78121 10.6666 2.3335 10.6666H3.66683V7.99997H2.3335C1.78121 7.99997 1.3335 7.55225 1.3335 6.99997C1.3335 6.44768 1.78121 5.99997 2.3335 5.99997H3.66683V4.66664C3.66683 3.78258 4.01802 2.93474 4.64314 2.30961Z" fill="black"/>
</svg>
