<svg width="301" height="90" viewBox="0 0 301 90" fill="none" xmlns="http://www.w3.org/2000/svg">
<g filter="url(#filter0_bd_2074_550)">
<rect x="4" width="292.606" height="82" rx="8" fill="#4A7094" fill-opacity="0.8" shape-rendering="crispEdges"/>
<rect x="4.5" y="0.5" width="291.606" height="81" rx="7.5" stroke="#EDEDED" stroke-opacity="0.52" shape-rendering="crispEdges"/>
<path d="M31.9042 36.1256C32.0791 36.0985 32.241 36.0169 32.3668 35.8924C32.4926 35.7679 32.5759 35.6069 32.6049 35.4323C33.2375 31.5898 36.0392 29.2785 39.3029 29.2785C42.3343 29.2785 44.3589 31.2539 45.1742 33.3465C45.2265 33.4806 45.313 33.5988 45.4249 33.6893C45.5369 33.7799 45.6705 33.8397 45.8126 33.8629C48.429 34.2894 50.6058 36.0367 50.6058 39.0743C50.6058 42.1826 48.0627 44.349 44.9544 44.349H32.7095C30.1193 44.349 28 43.0565 28 40.2046C28 37.6683 30.0235 36.4255 31.9042 36.1256V36.1256Z" stroke="#DADADA" stroke-width="2" stroke-linejoin="round"/>
<path d="M33.4421 47.6981L31.7676 50.2098" stroke="#DADADA" stroke-width="2" stroke-linecap="round" stroke-linejoin="round"/>
<path d="M37.6283 47.6981L34.2793 52.7216" stroke="#DADADA" stroke-width="2" stroke-linecap="round" stroke-linejoin="round"/>
<path d="M41.8146 47.6981L40.1401 50.2098" stroke="#DADADA" stroke-width="2" stroke-linecap="round" stroke-linejoin="round"/>
<path d="M46.0009 47.6981L42.6519 52.7216" stroke="#DADADA" stroke-width="2" stroke-linecap="round" stroke-linejoin="round"/>
<path d="M88.508 28.095L85.393 38H84.749L81.823 29.404C81.7856 29.2873 81.753 29.166 81.725 29.04C81.697 29.166 81.6643 29.2873 81.627 29.404L78.694 38H78.057L74.935 28.095H75.53C75.6653 28.095 75.7516 28.158 75.789 28.284L78.288 36.425C78.3393 36.6117 78.386 36.824 78.428 37.062C78.4513 36.9407 78.4746 36.8287 78.498 36.726C78.5213 36.6187 78.5493 36.5183 78.582 36.425L81.382 28.284C81.4006 28.2327 81.4333 28.1883 81.48 28.151C81.5266 28.1137 81.5826 28.095 81.648 28.095H81.844C81.9093 28.095 81.963 28.1137 82.005 28.151C82.047 28.1837 82.0796 28.228 82.103 28.284L84.903 36.425C84.9356 36.5137 84.9636 36.6117 84.987 36.719C85.015 36.8263 85.0406 36.9383 85.064 37.055C85.0873 36.9383 85.1083 36.8287 85.127 36.726C85.1503 36.6187 85.1736 36.5183 85.197 36.425L87.696 28.284C87.71 28.2327 87.7403 28.1883 87.787 28.151C87.8383 28.1137 87.8966 28.095 87.962 28.095H88.508ZM90.701 31.035V38H90.036V31.035H90.701ZM90.988 28.634C90.988 28.718 90.9694 28.7973 90.932 28.872C90.8994 28.942 90.855 29.005 90.799 29.061C90.743 29.117 90.6777 29.1613 90.603 29.194C90.5284 29.2267 90.449 29.243 90.365 29.243C90.281 29.243 90.2017 29.2267 90.127 29.194C90.0524 29.1613 89.987 29.117 89.931 29.061C89.875 29.005 89.8307 28.942 89.798 28.872C89.7654 28.7973 89.749 28.718 89.749 28.634C89.749 28.55 89.7654 28.4707 89.798 28.396C89.8307 28.3167 89.875 28.249 89.931 28.193C89.987 28.137 90.0524 28.0927 90.127 28.06C90.2017 28.0273 90.281 28.011 90.365 28.011C90.449 28.011 90.5284 28.0273 90.603 28.06C90.6777 28.0927 90.743 28.137 90.799 28.193C90.855 28.249 90.8994 28.3167 90.932 28.396C90.9694 28.4707 90.988 28.55 90.988 28.634ZM93.8112 27.815V38H93.1392V27.815H93.8112ZM96.9011 27.815V38H96.2291V27.815H96.9011ZM99.9909 27.815V38H99.3189V27.815H99.9909ZM106.784 32.715C106.891 32.4303 107.012 32.1783 107.148 31.959C107.288 31.735 107.446 31.546 107.624 31.392C107.806 31.238 108.006 31.1213 108.226 31.042C108.45 30.958 108.697 30.916 108.968 30.916C109.112 30.916 109.255 30.93 109.395 30.958C109.535 30.9813 109.658 31.0257 109.766 31.091L109.71 31.553C109.686 31.6277 109.642 31.665 109.577 31.665C109.521 31.665 109.434 31.6487 109.318 31.616C109.206 31.5833 109.056 31.567 108.87 31.567C108.599 31.567 108.359 31.609 108.149 31.693C107.943 31.7723 107.757 31.8937 107.589 32.057C107.425 32.2203 107.281 32.4233 107.155 32.666C107.033 32.904 106.921 33.1793 106.819 33.492V38H106.147V31.035H106.504C106.583 31.035 106.639 31.0513 106.672 31.084C106.704 31.1167 106.725 31.1727 106.735 31.252L106.784 32.715ZM114.844 34.633C114.182 34.6563 113.61 34.71 113.129 34.794C112.653 34.8733 112.259 34.983 111.946 35.123C111.638 35.263 111.41 35.431 111.26 35.627C111.111 35.8183 111.036 36.0377 111.036 36.285C111.036 36.5183 111.074 36.7213 111.148 36.894C111.228 37.062 111.33 37.202 111.456 37.314C111.587 37.4213 111.736 37.5007 111.904 37.552C112.072 37.6033 112.247 37.629 112.429 37.629C112.7 37.629 112.947 37.601 113.171 37.545C113.4 37.4843 113.61 37.4027 113.801 37.3C113.997 37.1927 114.179 37.0667 114.347 36.922C114.515 36.7773 114.681 36.621 114.844 36.453V34.633ZM110.749 32.022C111.113 31.658 111.496 31.3827 111.897 31.196C112.299 31.0093 112.754 30.916 113.262 30.916C113.636 30.916 113.962 30.9767 114.242 31.098C114.522 31.2147 114.753 31.385 114.935 31.609C115.122 31.8283 115.262 32.0967 115.355 32.414C115.449 32.7267 115.495 33.0767 115.495 33.464V38H115.229C115.089 38 115.003 37.9347 114.97 37.804L114.872 36.908C114.681 37.0947 114.49 37.2627 114.298 37.412C114.112 37.5613 113.916 37.6873 113.71 37.79C113.505 37.8927 113.283 37.972 113.045 38.028C112.807 38.084 112.546 38.112 112.261 38.112C112.023 38.112 111.792 38.077 111.568 38.007C111.344 37.937 111.144 37.8297 110.966 37.685C110.794 37.5403 110.654 37.356 110.546 37.132C110.444 36.9033 110.392 36.6303 110.392 36.313C110.392 36.019 110.476 35.746 110.644 35.494C110.812 35.242 111.076 35.0227 111.435 34.836C111.795 34.6493 112.254 34.5 112.814 34.388C113.379 34.276 114.056 34.2107 114.844 34.192V33.464C114.844 32.82 114.704 32.3253 114.424 31.98C114.149 31.63 113.738 31.455 113.192 31.455C112.856 31.455 112.569 31.5017 112.331 31.595C112.098 31.6883 111.9 31.791 111.736 31.903C111.573 32.015 111.44 32.1177 111.337 32.211C111.235 32.3043 111.148 32.351 111.078 32.351C111.027 32.351 110.985 32.3393 110.952 32.316C110.92 32.2927 110.892 32.2623 110.868 32.225L110.749 32.022ZM118.469 31.035V38H117.804V31.035H118.469ZM118.756 28.634C118.756 28.718 118.737 28.7973 118.7 28.872C118.667 28.942 118.623 29.005 118.567 29.061C118.511 29.117 118.445 29.1613 118.371 29.194C118.296 29.2267 118.217 29.243 118.133 29.243C118.049 29.243 117.969 29.2267 117.895 29.194C117.82 29.1613 117.755 29.117 117.699 29.061C117.643 29.005 117.598 28.942 117.566 28.872C117.533 28.7973 117.517 28.718 117.517 28.634C117.517 28.55 117.533 28.4707 117.566 28.396C117.598 28.3167 117.643 28.249 117.699 28.193C117.755 28.137 117.82 28.0927 117.895 28.06C117.969 28.0273 118.049 28.011 118.133 28.011C118.217 28.011 118.296 28.0273 118.371 28.06C118.445 28.0927 118.511 28.137 118.567 28.193C118.623 28.249 118.667 28.3167 118.7 28.396C118.737 28.4707 118.756 28.55 118.756 28.634ZM121.481 32.253C121.803 31.8517 122.174 31.5297 122.594 31.287C123.018 31.0443 123.49 30.923 124.008 30.923C124.39 30.923 124.726 30.9837 125.016 31.105C125.31 31.2263 125.552 31.4013 125.744 31.63C125.935 31.8587 126.08 32.134 126.178 32.456C126.276 32.778 126.325 33.142 126.325 33.548V38H125.653V33.548C125.653 32.8947 125.503 32.3837 125.205 32.015C124.906 31.6417 124.451 31.455 123.84 31.455C123.387 31.455 122.962 31.5717 122.566 31.805C122.174 32.0337 121.824 32.3533 121.516 32.764V38H120.844V31.035H121.215C121.331 31.035 121.399 31.0933 121.418 31.21L121.481 32.253ZM133.077 27.815V38H132.405V27.815H133.077ZM139.331 34.633C138.668 34.6563 138.096 34.71 137.616 34.794C137.14 34.8733 136.745 34.983 136.433 35.123C136.125 35.263 135.896 35.431 135.747 35.627C135.597 35.8183 135.523 36.0377 135.523 36.285C135.523 36.5183 135.56 36.7213 135.635 36.894C135.714 37.062 135.817 37.202 135.943 37.314C136.073 37.4213 136.223 37.5007 136.391 37.552C136.559 37.6033 136.734 37.629 136.916 37.629C137.186 37.629 137.434 37.601 137.658 37.545C137.886 37.4843 138.096 37.4027 138.288 37.3C138.484 37.1927 138.666 37.0667 138.834 36.922C139.002 36.7773 139.167 36.621 139.331 36.453V34.633ZM135.236 32.022C135.6 31.658 135.982 31.3827 136.384 31.196C136.785 31.0093 137.24 30.916 137.749 30.916C138.122 30.916 138.449 30.9767 138.729 31.098C139.009 31.2147 139.24 31.385 139.422 31.609C139.608 31.8283 139.748 32.0967 139.842 32.414C139.935 32.7267 139.982 33.0767 139.982 33.464V38H139.716C139.576 38 139.489 37.9347 139.457 37.804L139.359 36.908C139.167 37.0947 138.976 37.2627 138.785 37.412C138.598 37.5613 138.402 37.6873 138.197 37.79C137.991 37.8927 137.77 37.972 137.532 38.028C137.294 38.084 137.032 38.112 136.748 38.112C136.51 38.112 136.279 38.077 136.055 38.007C135.831 37.937 135.63 37.8297 135.453 37.685C135.28 37.5403 135.14 37.356 135.033 37.132C134.93 36.9033 134.879 36.6303 134.879 36.313C134.879 36.019 134.963 35.746 135.131 35.494C135.299 35.242 135.562 35.0227 135.922 34.836C136.281 34.6493 136.741 34.5 137.301 34.388C137.865 34.276 138.542 34.2107 139.331 34.192V33.464C139.331 32.82 139.191 32.3253 138.911 31.98C138.635 31.63 138.225 31.455 137.679 31.455C137.343 31.455 137.056 31.5017 136.818 31.595C136.584 31.6883 136.386 31.791 136.223 31.903C136.059 32.015 135.926 32.1177 135.824 32.211C135.721 32.3043 135.635 32.351 135.565 32.351C135.513 32.351 135.471 32.3393 135.439 32.316C135.406 32.2927 135.378 32.2623 135.355 32.225L135.236 32.022ZM144.035 38.112C143.564 38.112 143.195 37.9813 142.929 37.72C142.668 37.4587 142.537 37.055 142.537 36.509V31.749H141.536C141.485 31.749 141.443 31.735 141.41 31.707C141.377 31.679 141.361 31.6393 141.361 31.588V31.329L142.551 31.245L142.719 28.753C142.728 28.711 142.747 28.6737 142.775 28.641C142.803 28.6083 142.843 28.592 142.894 28.592H143.209V31.252H145.407V31.749H143.209V36.474C143.209 36.6653 143.232 36.831 143.279 36.971C143.33 37.1063 143.398 37.2183 143.482 37.307C143.571 37.3957 143.673 37.461 143.79 37.503C143.907 37.545 144.033 37.566 144.168 37.566C144.336 37.566 144.481 37.5427 144.602 37.496C144.723 37.4447 144.828 37.391 144.917 37.335C145.006 37.2743 145.078 37.2207 145.134 37.174C145.19 37.1227 145.234 37.097 145.267 37.097C145.304 37.097 145.342 37.1203 145.379 37.167L145.561 37.461C145.384 37.657 145.157 37.8157 144.882 37.937C144.611 38.0537 144.329 38.112 144.035 38.112ZM151.788 33.814C151.788 33.4407 151.735 33.107 151.627 32.813C151.525 32.5143 151.378 32.2623 151.186 32.057C150.995 31.8517 150.766 31.6953 150.5 31.588C150.239 31.476 149.95 31.42 149.632 31.42C149.273 31.42 148.951 31.476 148.666 31.588C148.382 31.7 148.134 31.861 147.924 32.071C147.719 32.281 147.553 32.533 147.427 32.827C147.301 33.121 147.217 33.45 147.175 33.814H151.788ZM147.14 34.241V34.374C147.14 34.8967 147.201 35.3563 147.322 35.753C147.444 36.1497 147.616 36.4833 147.84 36.754C148.064 37.02 148.335 37.2207 148.652 37.356C148.97 37.4913 149.324 37.559 149.716 37.559C150.066 37.559 150.37 37.5217 150.626 37.447C150.883 37.3677 151.098 37.2813 151.27 37.188C151.448 37.09 151.588 37.0037 151.69 36.929C151.793 36.8497 151.868 36.81 151.914 36.81C151.975 36.81 152.022 36.8333 152.054 36.88L152.236 37.104C152.124 37.244 151.975 37.3747 151.788 37.496C151.606 37.6173 151.401 37.7223 151.172 37.811C150.948 37.895 150.706 37.9627 150.444 38.014C150.188 38.0653 149.929 38.091 149.667 38.091C149.191 38.091 148.757 38.0093 148.365 37.846C147.973 37.678 147.637 37.4353 147.357 37.118C147.077 36.8007 146.86 36.4133 146.706 35.956C146.557 35.494 146.482 34.9667 146.482 34.374C146.482 33.8747 146.552 33.415 146.692 32.995C146.837 32.5703 147.042 32.2063 147.308 31.903C147.579 31.595 147.908 31.3547 148.295 31.182C148.687 31.0093 149.131 30.923 149.625 30.923C150.017 30.923 150.381 30.9907 150.717 31.126C151.053 31.2613 151.345 31.4597 151.592 31.721C151.84 31.9777 152.033 32.295 152.173 32.673C152.318 33.051 152.39 33.485 152.39 33.975C152.39 34.0777 152.376 34.1477 152.348 34.185C152.32 34.2223 152.274 34.241 152.208 34.241H147.14ZM154.84 32.715C154.948 32.4303 155.069 32.1783 155.204 31.959C155.344 31.735 155.503 31.546 155.68 31.392C155.862 31.238 156.063 31.1213 156.282 31.042C156.506 30.958 156.754 30.916 157.024 30.916C157.169 30.916 157.311 30.93 157.451 30.958C157.591 30.9813 157.715 31.0257 157.822 31.091L157.766 31.553C157.743 31.6277 157.699 31.665 157.633 31.665C157.577 31.665 157.491 31.6487 157.374 31.616C157.262 31.5833 157.113 31.567 156.926 31.567C156.656 31.567 156.415 31.609 156.205 31.693C156 31.7723 155.813 31.8937 155.645 32.057C155.482 32.2203 155.337 32.4233 155.211 32.666C155.09 32.904 154.978 33.1793 154.875 33.492V38H154.203V31.035H154.56C154.64 31.035 154.696 31.0513 154.728 31.084C154.761 31.1167 154.782 31.1727 154.791 31.252L154.84 32.715ZM164.556 38.112C164.085 38.112 163.716 37.9813 163.45 37.72C163.189 37.4587 163.058 37.055 163.058 36.509V31.749H162.057C162.006 31.749 161.964 31.735 161.931 31.707C161.899 31.679 161.882 31.6393 161.882 31.588V31.329L163.072 31.245L163.24 28.753C163.25 28.711 163.268 28.6737 163.296 28.641C163.324 28.6083 163.364 28.592 163.415 28.592H163.73V31.252H165.928V31.749H163.73V36.474C163.73 36.6653 163.754 36.831 163.8 36.971C163.852 37.1063 163.919 37.2183 164.003 37.307C164.092 37.3957 164.195 37.461 164.311 37.503C164.428 37.545 164.554 37.566 164.689 37.566C164.857 37.566 165.002 37.5427 165.123 37.496C165.245 37.4447 165.35 37.391 165.438 37.335C165.527 37.2743 165.599 37.2207 165.655 37.174C165.711 37.1227 165.756 37.097 165.788 37.097C165.826 37.097 165.863 37.1203 165.9 37.167L166.082 37.461C165.905 37.657 165.679 37.8157 165.403 37.937C165.133 38.0537 164.85 38.112 164.556 38.112ZM170.182 30.923C170.681 30.923 171.127 31.0093 171.519 31.182C171.916 31.35 172.249 31.5903 172.52 31.903C172.791 32.2157 172.996 32.5937 173.136 33.037C173.281 33.4757 173.353 33.968 173.353 34.514C173.353 35.06 173.281 35.5523 173.136 35.991C172.996 36.4297 172.791 36.8053 172.52 37.118C172.249 37.4307 171.916 37.671 171.519 37.839C171.127 38.007 170.681 38.091 170.182 38.091C169.683 38.091 169.235 38.007 168.838 37.839C168.446 37.671 168.112 37.4307 167.837 37.118C167.566 36.8053 167.359 36.4297 167.214 35.991C167.074 35.5523 167.004 35.06 167.004 34.514C167.004 33.968 167.074 33.4757 167.214 33.037C167.359 32.5937 167.566 32.2157 167.837 31.903C168.112 31.5903 168.446 31.35 168.838 31.182C169.235 31.0093 169.683 30.923 170.182 30.923ZM170.182 37.566C170.597 37.566 170.959 37.496 171.267 37.356C171.58 37.2113 171.839 37.006 172.044 36.74C172.254 36.474 172.41 36.1543 172.513 35.781C172.616 35.403 172.667 34.9807 172.667 34.514C172.667 34.052 172.616 33.632 172.513 33.254C172.41 32.876 172.254 32.554 172.044 32.288C171.839 32.0173 171.58 31.8097 171.267 31.665C170.959 31.5203 170.597 31.448 170.182 31.448C169.767 31.448 169.403 31.5203 169.09 31.665C168.782 31.8097 168.523 32.0173 168.313 32.288C168.108 32.554 167.951 32.876 167.844 33.254C167.741 33.632 167.69 34.052 167.69 34.514C167.69 34.9807 167.741 35.403 167.844 35.781C167.951 36.1543 168.108 36.474 168.313 36.74C168.523 37.006 168.782 37.2113 169.09 37.356C169.403 37.496 169.767 37.566 170.182 37.566ZM179.984 32.533C179.718 32.1317 179.421 31.8493 179.095 31.686C178.773 31.5227 178.404 31.441 177.989 31.441C177.578 31.441 177.219 31.5157 176.911 31.665C176.603 31.8143 176.344 32.0267 176.134 32.302C175.928 32.5727 175.772 32.8993 175.665 33.282C175.562 33.66 175.511 34.0777 175.511 34.535C175.511 35.571 175.7 36.334 176.078 36.824C176.46 37.3093 177.011 37.552 177.73 37.552C178.187 37.552 178.605 37.433 178.983 37.195C179.361 36.957 179.694 36.6233 179.984 36.194V32.533ZM180.649 27.815V38H180.285C180.163 38 180.093 37.9393 180.075 37.818L180.005 36.719C179.697 37.139 179.337 37.4727 178.927 37.72C178.516 37.9673 178.054 38.091 177.541 38.091C176.682 38.091 176.015 37.7947 175.539 37.202C175.063 36.6093 174.825 35.7203 174.825 34.535C174.825 34.0263 174.89 33.5527 175.021 33.114C175.156 32.6707 175.352 32.288 175.609 31.966C175.865 31.6393 176.18 31.3827 176.554 31.196C176.932 31.0093 177.366 30.916 177.856 30.916C178.327 30.916 178.735 31.0023 179.081 31.175C179.426 31.3477 179.727 31.6043 179.984 31.945V27.815H180.649ZM186.84 34.633C186.178 34.6563 185.606 34.71 185.125 34.794C184.649 34.8733 184.255 34.983 183.942 35.123C183.634 35.263 183.406 35.431 183.256 35.627C183.107 35.8183 183.032 36.0377 183.032 36.285C183.032 36.5183 183.07 36.7213 183.144 36.894C183.224 37.062 183.326 37.202 183.452 37.314C183.583 37.4213 183.732 37.5007 183.9 37.552C184.068 37.6033 184.243 37.629 184.425 37.629C184.696 37.629 184.943 37.601 185.167 37.545C185.396 37.4843 185.606 37.4027 185.797 37.3C185.993 37.1927 186.175 37.0667 186.343 36.922C186.511 36.7773 186.677 36.621 186.84 36.453V34.633ZM182.745 32.022C183.109 31.658 183.492 31.3827 183.893 31.196C184.295 31.0093 184.75 30.916 185.258 30.916C185.632 30.916 185.958 30.9767 186.238 31.098C186.518 31.2147 186.749 31.385 186.931 31.609C187.118 31.8283 187.258 32.0967 187.351 32.414C187.445 32.7267 187.491 33.0767 187.491 33.464V38H187.225C187.085 38 186.999 37.9347 186.966 37.804L186.868 36.908C186.677 37.0947 186.486 37.2627 186.294 37.412C186.108 37.5613 185.912 37.6873 185.706 37.79C185.501 37.8927 185.279 37.972 185.041 38.028C184.803 38.084 184.542 38.112 184.257 38.112C184.019 38.112 183.788 38.077 183.564 38.007C183.34 37.937 183.14 37.8297 182.962 37.685C182.79 37.5403 182.65 37.356 182.542 37.132C182.44 36.9033 182.388 36.6303 182.388 36.313C182.388 36.019 182.472 35.746 182.64 35.494C182.808 35.242 183.072 35.0227 183.431 34.836C183.791 34.6493 184.25 34.5 184.81 34.388C185.375 34.276 186.052 34.2107 186.84 34.192V33.464C186.84 32.82 186.7 32.3253 186.42 31.98C186.145 31.63 185.734 31.455 185.188 31.455C184.852 31.455 184.565 31.5017 184.327 31.595C184.094 31.6883 183.896 31.791 183.732 31.903C183.569 32.015 183.436 32.1177 183.333 32.211C183.231 32.3043 183.144 32.351 183.074 32.351C183.023 32.351 182.981 32.3393 182.948 32.316C182.916 32.2927 182.888 32.2623 182.864 32.225L182.745 32.022ZM195.228 31.035L191.224 40.24C191.196 40.3053 191.158 40.359 191.112 40.401C191.07 40.443 191.007 40.464 190.923 40.464H190.447L191.672 37.741L188.725 31.035H189.278C189.348 31.035 189.404 31.0537 189.446 31.091C189.488 31.1237 189.516 31.161 189.53 31.203L191.875 36.621C191.903 36.691 191.926 36.7633 191.945 36.838C191.968 36.908 191.989 36.9803 192.008 37.055C192.031 36.9803 192.054 36.908 192.078 36.838C192.106 36.7633 192.134 36.691 192.162 36.621L194.479 31.203C194.502 31.1517 194.535 31.112 194.577 31.084C194.619 31.0513 194.665 31.035 194.717 31.035H195.228ZM195.954 39.666C195.93 39.6473 195.914 39.6287 195.905 39.61C195.9 39.5913 195.898 39.5703 195.898 39.547C195.898 39.519 195.916 39.4817 195.954 39.435C195.996 39.3883 196.052 39.3183 196.122 39.225C196.196 39.1363 196.271 39.029 196.346 38.903C196.425 38.7817 196.495 38.644 196.556 38.49C196.621 38.336 196.663 38.1703 196.682 37.993C196.612 38.0163 196.539 38.028 196.465 38.028C196.292 38.028 196.15 37.9697 196.038 37.853C195.93 37.7363 195.877 37.587 195.877 37.405C195.877 37.2417 195.933 37.1017 196.045 36.985C196.157 36.8683 196.304 36.81 196.486 36.81C196.686 36.81 196.84 36.88 196.948 37.02C197.06 37.1553 197.116 37.335 197.116 37.559C197.116 37.7503 197.09 37.944 197.039 38.14C196.992 38.3407 196.922 38.5367 196.829 38.728C196.735 38.9193 196.623 39.1037 196.493 39.281C196.362 39.4583 196.217 39.6217 196.059 39.771L195.954 39.666ZM208.361 31.035V38H207.99C207.873 38 207.806 37.9393 207.787 37.818L207.724 36.782C207.402 37.1833 207.029 37.5053 206.604 37.748C206.184 37.9907 205.715 38.112 205.197 38.112C204.81 38.112 204.471 38.0513 204.182 37.93C203.893 37.8087 203.652 37.6337 203.461 37.405C203.27 37.1763 203.125 36.901 203.027 36.579C202.929 36.257 202.88 35.893 202.88 35.487V31.035H203.552V35.487C203.552 36.1403 203.701 36.6537 204 37.027C204.299 37.3957 204.754 37.58 205.365 37.58C205.818 37.58 206.24 37.4657 206.632 37.237C207.029 37.0037 207.381 36.6817 207.689 36.271V31.035H208.361ZM214.483 31.896C214.446 31.9613 214.392 31.994 214.322 31.994C214.271 31.994 214.206 31.966 214.126 31.91C214.047 31.8493 213.94 31.784 213.804 31.714C213.674 31.6393 213.51 31.574 213.314 31.518C213.118 31.4573 212.88 31.427 212.6 31.427C212.348 31.427 212.117 31.4643 211.907 31.539C211.702 31.609 211.525 31.7047 211.375 31.826C211.231 31.9473 211.119 32.0897 211.039 32.253C210.96 32.4117 210.92 32.5797 210.92 32.757C210.92 32.9763 210.976 33.1583 211.088 33.303C211.2 33.4477 211.345 33.5713 211.522 33.674C211.704 33.7767 211.912 33.8653 212.145 33.94C212.379 34.0147 212.614 34.0893 212.852 34.164C213.095 34.2387 213.333 34.3227 213.566 34.416C213.8 34.5047 214.005 34.6167 214.182 34.752C214.364 34.8873 214.511 35.053 214.623 35.249C214.735 35.445 214.791 35.683 214.791 35.963C214.791 36.2663 214.738 36.5487 214.63 36.81C214.523 37.0713 214.364 37.2977 214.154 37.489C213.949 37.6803 213.695 37.832 213.391 37.944C213.088 38.056 212.74 38.112 212.348 38.112C211.858 38.112 211.436 38.035 211.081 37.881C210.727 37.7223 210.409 37.517 210.129 37.265L210.283 37.027C210.307 36.9897 210.332 36.9617 210.36 36.943C210.393 36.9243 210.435 36.915 210.486 36.915C210.547 36.915 210.619 36.9523 210.703 37.027C210.792 37.1017 210.909 37.1833 211.053 37.272C211.198 37.356 211.375 37.4353 211.585 37.51C211.8 37.5847 212.064 37.622 212.376 37.622C212.67 37.622 212.929 37.5823 213.153 37.503C213.377 37.419 213.564 37.307 213.713 37.167C213.863 37.027 213.975 36.8637 214.049 36.677C214.129 36.4857 214.168 36.285 214.168 36.075C214.168 35.8417 214.112 35.648 214 35.494C213.888 35.34 213.741 35.2093 213.559 35.102C213.377 34.9947 213.17 34.9037 212.936 34.829C212.708 34.7543 212.472 34.6797 212.229 34.605C211.987 34.5303 211.749 34.4487 211.515 34.36C211.287 34.2713 211.081 34.1593 210.899 34.024C210.717 33.8887 210.57 33.7253 210.458 33.534C210.346 33.338 210.29 33.0953 210.29 32.806C210.29 32.5587 210.344 32.3207 210.451 32.092C210.559 31.8633 210.71 31.6627 210.906 31.49C211.107 31.3173 211.35 31.1797 211.634 31.077C211.919 30.9743 212.239 30.923 212.593 30.923C213.018 30.923 213.394 30.9837 213.72 31.105C214.052 31.2263 214.353 31.413 214.623 31.665L214.483 31.896ZM222.006 31.035V38H221.635C221.518 38 221.45 37.9393 221.432 37.818L221.369 36.782C221.047 37.1833 220.673 37.5053 220.249 37.748C219.829 37.9907 219.36 38.112 218.842 38.112C218.454 38.112 218.116 38.0513 217.827 37.93C217.537 37.8087 217.297 37.6337 217.106 37.405C216.914 37.1763 216.77 36.901 216.672 36.579C216.574 36.257 216.525 35.893 216.525 35.487V31.035H217.197V35.487C217.197 36.1403 217.346 36.6537 217.645 37.027C217.943 37.3957 218.398 37.58 219.01 37.58C219.462 37.58 219.885 37.4657 220.277 37.237C220.673 37.0037 221.026 36.6817 221.334 36.271V31.035H222.006ZM228.198 34.633C227.535 34.6563 226.964 34.71 226.483 34.794C226.007 34.8733 225.613 34.983 225.3 35.123C224.992 35.263 224.763 35.431 224.614 35.627C224.465 35.8183 224.39 36.0377 224.39 36.285C224.39 36.5183 224.427 36.7213 224.502 36.894C224.581 37.062 224.684 37.202 224.81 37.314C224.941 37.4213 225.09 37.5007 225.258 37.552C225.426 37.6033 225.601 37.629 225.783 37.629C226.054 37.629 226.301 37.601 226.525 37.545C226.754 37.4843 226.964 37.4027 227.155 37.3C227.351 37.1927 227.533 37.0667 227.701 36.922C227.869 36.7773 228.035 36.621 228.198 36.453V34.633ZM224.103 32.022C224.467 31.658 224.85 31.3827 225.251 31.196C225.652 31.0093 226.107 30.916 226.616 30.916C226.989 30.916 227.316 30.9767 227.596 31.098C227.876 31.2147 228.107 31.385 228.289 31.609C228.476 31.8283 228.616 32.0967 228.709 32.414C228.802 32.7267 228.849 33.0767 228.849 33.464V38H228.583C228.443 38 228.357 37.9347 228.324 37.804L228.226 36.908C228.035 37.0947 227.843 37.2627 227.652 37.412C227.465 37.5613 227.269 37.6873 227.064 37.79C226.859 37.8927 226.637 37.972 226.399 38.028C226.161 38.084 225.9 38.112 225.615 38.112C225.377 38.112 225.146 38.077 224.922 38.007C224.698 37.937 224.497 37.8297 224.32 37.685C224.147 37.5403 224.007 37.356 223.9 37.132C223.797 36.9033 223.746 36.6303 223.746 36.313C223.746 36.019 223.83 35.746 223.998 35.494C224.166 35.242 224.43 35.0227 224.789 34.836C225.148 34.6493 225.608 34.5 226.168 34.388C226.733 34.276 227.409 34.2107 228.198 34.192V33.464C228.198 32.82 228.058 32.3253 227.778 31.98C227.503 31.63 227.092 31.455 226.546 31.455C226.21 31.455 225.923 31.5017 225.685 31.595C225.452 31.6883 225.253 31.791 225.09 31.903C224.927 32.015 224.794 32.1177 224.691 32.211C224.588 32.3043 224.502 32.351 224.432 32.351C224.381 32.351 224.339 32.3393 224.306 32.316C224.273 32.2927 224.245 32.2623 224.222 32.225L224.103 32.022ZM231.815 27.815V38H231.143V27.815H231.815ZM234.905 27.815V38H234.233V27.815H234.905ZM242.888 31.035L238.884 40.24C238.856 40.3053 238.818 40.359 238.772 40.401C238.73 40.443 238.667 40.464 238.583 40.464H238.107L239.332 37.741L236.385 31.035H236.938C237.008 31.035 237.064 31.0537 237.106 31.091C237.148 31.1237 237.176 31.161 237.19 31.203L239.535 36.621C239.563 36.691 239.586 36.7633 239.605 36.838C239.628 36.908 239.649 36.9803 239.668 37.055C239.691 36.9803 239.714 36.908 239.738 36.838C239.766 36.7633 239.794 36.691 239.822 36.621L242.139 31.203C242.162 31.1517 242.195 31.112 242.237 31.084C242.279 31.0513 242.325 31.035 242.377 31.035H242.888ZM253.019 31.035L249.015 40.24C248.987 40.3053 248.949 40.359 248.903 40.401C248.861 40.443 248.798 40.464 248.714 40.464H248.238L249.463 37.741L246.516 31.035H247.069C247.139 31.035 247.195 31.0537 247.237 31.091C247.279 31.1237 247.307 31.161 247.321 31.203L249.666 36.621C249.694 36.691 249.717 36.7633 249.736 36.838C249.759 36.908 249.78 36.9803 249.799 37.055C249.822 36.9803 249.845 36.908 249.869 36.838C249.897 36.7633 249.925 36.691 249.953 36.621L252.27 31.203C252.293 31.1517 252.326 31.112 252.368 31.084C252.41 31.0513 252.456 31.035 252.508 31.035H253.019ZM257.012 30.923C257.511 30.923 257.957 31.0093 258.349 31.182C258.746 31.35 259.079 31.5903 259.35 31.903C259.621 32.2157 259.826 32.5937 259.966 33.037C260.111 33.4757 260.183 33.968 260.183 34.514C260.183 35.06 260.111 35.5523 259.966 35.991C259.826 36.4297 259.621 36.8053 259.35 37.118C259.079 37.4307 258.746 37.671 258.349 37.839C257.957 38.007 257.511 38.091 257.012 38.091C256.513 38.091 256.065 38.007 255.668 37.839C255.276 37.671 254.942 37.4307 254.667 37.118C254.396 36.8053 254.189 36.4297 254.044 35.991C253.904 35.5523 253.834 35.06 253.834 34.514C253.834 33.968 253.904 33.4757 254.044 33.037C254.189 32.5937 254.396 32.2157 254.667 31.903C254.942 31.5903 255.276 31.35 255.668 31.182C256.065 31.0093 256.513 30.923 257.012 30.923ZM257.012 37.566C257.427 37.566 257.789 37.496 258.097 37.356C258.41 37.2113 258.669 37.006 258.874 36.74C259.084 36.474 259.24 36.1543 259.343 35.781C259.446 35.403 259.497 34.9807 259.497 34.514C259.497 34.052 259.446 33.632 259.343 33.254C259.24 32.876 259.084 32.554 258.874 32.288C258.669 32.0173 258.41 31.8097 258.097 31.665C257.789 31.5203 257.427 31.448 257.012 31.448C256.597 31.448 256.233 31.5203 255.92 31.665C255.612 31.8097 255.353 32.0173 255.143 32.288C254.938 32.554 254.781 32.876 254.674 33.254C254.571 33.632 254.52 34.052 254.52 34.514C254.52 34.9807 254.571 35.403 254.674 35.781C254.781 36.1543 254.938 36.474 255.143 36.74C255.353 37.006 255.612 37.2113 255.92 37.356C256.233 37.496 256.597 37.566 257.012 37.566ZM267.465 31.035V38H267.094C266.977 38 266.909 37.9393 266.891 37.818L266.828 36.782C266.506 37.1833 266.132 37.5053 265.708 37.748C265.288 37.9907 264.819 38.112 264.301 38.112C263.913 38.112 263.575 38.0513 263.286 37.93C262.996 37.8087 262.756 37.6337 262.565 37.405C262.373 37.1763 262.229 36.901 262.131 36.579C262.033 36.257 261.984 35.893 261.984 35.487V31.035H262.656V35.487C262.656 36.1403 262.805 36.6537 263.104 37.027C263.402 37.3957 263.857 37.58 264.469 37.58C264.921 37.58 265.344 37.4657 265.736 37.237C266.132 37.0037 266.485 36.6817 266.793 36.271V31.035H267.465ZM79.583 48.896C79.5456 48.9613 79.492 48.994 79.422 48.994C79.3706 48.994 79.3053 48.966 79.226 48.91C79.1466 48.8493 79.0393 48.784 78.904 48.714C78.7733 48.6393 78.61 48.574 78.414 48.518C78.218 48.4573 77.98 48.427 77.7 48.427C77.448 48.427 77.217 48.4643 77.007 48.539C76.8016 48.609 76.6243 48.7047 76.475 48.826C76.3303 48.9473 76.2183 49.0897 76.139 49.253C76.0596 49.4117 76.02 49.5797 76.02 49.757C76.02 49.9763 76.076 50.1583 76.188 50.303C76.3 50.4477 76.4446 50.5713 76.622 50.674C76.804 50.7767 77.0116 50.8653 77.245 50.94C77.4783 51.0147 77.714 51.0893 77.952 51.164C78.1946 51.2387 78.4326 51.3227 78.666 51.416C78.8993 51.5047 79.1046 51.6167 79.282 51.752C79.464 51.8873 79.611 52.053 79.723 52.249C79.835 52.445 79.891 52.683 79.891 52.963C79.891 53.2663 79.8373 53.5487 79.73 53.81C79.6226 54.0713 79.464 54.2977 79.254 54.489C79.0486 54.6803 78.7943 54.832 78.491 54.944C78.1876 55.056 77.84 55.112 77.448 55.112C76.958 55.112 76.5356 55.035 76.181 54.881C75.8263 54.7223 75.509 54.517 75.229 54.265L75.383 54.027C75.4063 53.9897 75.432 53.9617 75.46 53.943C75.4926 53.9243 75.5346 53.915 75.586 53.915C75.6466 53.915 75.719 53.9523 75.803 54.027C75.8916 54.1017 76.0083 54.1833 76.153 54.272C76.2976 54.356 76.475 54.4353 76.685 54.51C76.8996 54.5847 77.1633 54.622 77.476 54.622C77.77 54.622 78.029 54.5823 78.253 54.503C78.477 54.419 78.6636 54.307 78.813 54.167C78.9623 54.027 79.0743 53.8637 79.149 53.677C79.2283 53.4857 79.268 53.285 79.268 53.075C79.268 52.8417 79.212 52.648 79.1 52.494C78.988 52.34 78.841 52.2093 78.659 52.102C78.477 51.9947 78.2693 51.9037 78.036 51.829C77.8073 51.7543 77.5716 51.6797 77.329 51.605C77.0863 51.5303 76.8483 51.4487 76.615 51.36C76.3863 51.2713 76.181 51.1593 75.999 51.024C75.817 50.8887 75.67 50.7253 75.558 50.534C75.446 50.338 75.39 50.0953 75.39 49.806C75.39 49.5587 75.4436 49.3207 75.551 49.092C75.6583 48.8633 75.81 48.6627 76.006 48.49C76.2066 48.3173 76.4493 48.1797 76.734 48.077C77.0186 47.9743 77.3383 47.923 77.693 47.923C78.1176 47.923 78.4933 47.9837 78.82 48.105C79.1513 48.2263 79.4523 48.413 79.723 48.665L79.583 48.896ZM82.3732 49.211C82.6952 48.819 83.0616 48.5063 83.4722 48.273C83.8876 48.0397 84.3519 47.923 84.8652 47.923C85.2479 47.923 85.5839 47.9837 85.8732 48.105C86.1672 48.2263 86.4099 48.4013 86.6012 48.63C86.7926 48.8587 86.9372 49.134 87.0352 49.456C87.1332 49.778 87.1822 50.142 87.1822 50.548V55H86.5102V50.548C86.5102 49.8947 86.3609 49.3837 86.0622 49.015C85.7636 48.6417 85.3086 48.455 84.6972 48.455C84.2446 48.455 83.8199 48.5717 83.4232 48.805C83.0312 49.0337 82.6812 49.3533 82.3732 49.764V55H81.7012V44.815H82.3732V49.211ZM92.1565 47.923C92.6558 47.923 93.1015 48.0093 93.4935 48.182C93.8902 48.35 94.2238 48.5903 94.4945 48.903C94.7652 49.2157 94.9705 49.5937 95.1105 50.037C95.2552 50.4757 95.3275 50.968 95.3275 51.514C95.3275 52.06 95.2552 52.5523 95.1105 52.991C94.9705 53.4297 94.7652 53.8053 94.4945 54.118C94.2238 54.4307 93.8902 54.671 93.4935 54.839C93.1015 55.007 92.6558 55.091 92.1565 55.091C91.6572 55.091 91.2092 55.007 90.8125 54.839C90.4205 54.671 90.0868 54.4307 89.8115 54.118C89.5408 53.8053 89.3332 53.4297 89.1885 52.991C89.0485 52.5523 88.9785 52.06 88.9785 51.514C88.9785 50.968 89.0485 50.4757 89.1885 50.037C89.3332 49.5937 89.5408 49.2157 89.8115 48.903C90.0868 48.5903 90.4205 48.35 90.8125 48.182C91.2092 48.0093 91.6572 47.923 92.1565 47.923ZM92.1565 54.566C92.5718 54.566 92.9335 54.496 93.2415 54.356C93.5542 54.2113 93.8132 54.006 94.0185 53.74C94.2285 53.474 94.3848 53.1543 94.4875 52.781C94.5902 52.403 94.6415 51.9807 94.6415 51.514C94.6415 51.052 94.5902 50.632 94.4875 50.254C94.3848 49.876 94.2285 49.554 94.0185 49.288C93.8132 49.0173 93.5542 48.8097 93.2415 48.665C92.9335 48.5203 92.5718 48.448 92.1565 48.448C91.7412 48.448 91.3772 48.5203 91.0645 48.665C90.7565 48.8097 90.4975 49.0173 90.2875 49.288C90.0822 49.554 89.9258 49.876 89.8185 50.254C89.7158 50.632 89.6645 51.052 89.6645 51.514C89.6645 51.9807 89.7158 52.403 89.8185 52.781C89.9258 53.1543 90.0822 53.474 90.2875 53.74C90.4975 54.006 90.7565 54.2113 91.0645 54.356C91.3772 54.496 91.7412 54.566 92.1565 54.566ZM102.609 48.035V55H102.238C102.121 55 102.054 54.9393 102.035 54.818L101.972 53.782C101.65 54.1833 101.277 54.5053 100.852 54.748C100.432 54.9907 99.9631 55.112 99.4451 55.112C99.0578 55.112 98.7195 55.0513 98.4301 54.93C98.1408 54.8087 97.9005 54.6337 97.7091 54.405C97.5178 54.1763 97.3731 53.901 97.2751 53.579C97.1771 53.257 97.1281 52.893 97.1281 52.487V48.035H97.8001V52.487C97.8001 53.1403 97.9495 53.6537 98.2481 54.027C98.5468 54.3957 99.0018 54.58 99.6131 54.58C100.066 54.58 100.488 54.4657 100.88 54.237C101.277 54.0037 101.629 53.6817 101.937 53.271V48.035H102.609ZM105.637 44.815V55H104.965V44.815H105.637ZM112.745 49.533C112.479 49.1317 112.183 48.8493 111.856 48.686C111.534 48.5227 111.166 48.441 110.75 48.441C110.34 48.441 109.98 48.5157 109.672 48.665C109.364 48.8143 109.105 49.0267 108.895 49.302C108.69 49.5727 108.534 49.8993 108.426 50.282C108.324 50.66 108.272 51.0777 108.272 51.535C108.272 52.571 108.461 53.334 108.839 53.824C109.222 54.3093 109.773 54.552 110.491 54.552C110.949 54.552 111.366 54.433 111.744 54.195C112.122 53.957 112.456 53.6233 112.745 53.194V49.533ZM113.41 44.815V55H113.046C112.925 55 112.855 54.9393 112.836 54.818L112.766 53.719C112.458 54.139 112.099 54.4727 111.688 54.72C111.278 54.9673 110.816 55.091 110.302 55.091C109.444 55.091 108.776 54.7947 108.3 54.202C107.824 53.6093 107.586 52.7203 107.586 51.535C107.586 51.0263 107.652 50.5527 107.782 50.114C107.918 49.6707 108.114 49.288 108.37 48.966C108.627 48.6393 108.942 48.3827 109.315 48.196C109.693 48.0093 110.127 47.916 110.617 47.916C111.089 47.916 111.497 48.0023 111.842 48.175C112.188 48.3477 112.489 48.6043 112.745 48.945V44.815H113.41ZM119.504 55V48.035H119.875C119.992 48.035 120.059 48.0933 120.078 48.21L120.141 49.218C120.412 48.8307 120.722 48.518 121.072 48.28C121.422 48.042 121.816 47.923 122.255 47.923C122.764 47.923 123.17 48.07 123.473 48.364C123.781 48.658 123.989 49.0663 124.096 49.589C124.18 49.3043 124.297 49.057 124.446 48.847C124.6 48.637 124.775 48.4643 124.971 48.329C125.167 48.189 125.379 48.0863 125.608 48.021C125.841 47.9557 126.079 47.923 126.322 47.923C126.667 47.923 126.978 47.9813 127.253 48.098C127.528 48.21 127.762 48.378 127.953 48.602C128.144 48.826 128.291 49.1013 128.394 49.428C128.497 49.7547 128.548 50.128 128.548 50.548V55H127.883V50.548C127.883 49.8667 127.736 49.3487 127.442 48.994C127.148 48.6347 126.728 48.455 126.182 48.455C125.939 48.455 125.706 48.4993 125.482 48.588C125.263 48.6767 125.067 48.8097 124.894 48.987C124.726 49.1597 124.591 49.3767 124.488 49.638C124.39 49.8993 124.341 50.2027 124.341 50.548V55H123.669V50.548C123.669 49.8713 123.534 49.3533 123.263 48.994C122.997 48.6347 122.605 48.455 122.087 48.455C121.709 48.455 121.359 48.567 121.037 48.791C120.715 49.015 120.428 49.3253 120.176 49.722V55H119.504ZM134.669 51.633C134.006 51.6563 133.434 51.71 132.954 51.794C132.478 51.8733 132.083 51.983 131.771 52.123C131.463 52.263 131.234 52.431 131.085 52.627C130.935 52.8183 130.861 53.0377 130.861 53.285C130.861 53.5183 130.898 53.7213 130.973 53.894C131.052 54.062 131.155 54.202 131.281 54.314C131.411 54.4213 131.561 54.5007 131.729 54.552C131.897 54.6033 132.072 54.629 132.254 54.629C132.524 54.629 132.772 54.601 132.996 54.545C133.224 54.4843 133.434 54.4027 133.626 54.3C133.822 54.1927 134.004 54.0667 134.172 53.922C134.34 53.7773 134.505 53.621 134.669 53.453V51.633ZM130.574 49.022C130.938 48.658 131.32 48.3827 131.722 48.196C132.123 48.0093 132.578 47.916 133.087 47.916C133.46 47.916 133.787 47.9767 134.067 48.098C134.347 48.2147 134.578 48.385 134.76 48.609C134.946 48.8283 135.086 49.0967 135.18 49.414C135.273 49.7267 135.32 50.0767 135.32 50.464V55H135.054C134.914 55 134.827 54.9347 134.795 54.804L134.697 53.908C134.505 54.0947 134.314 54.2627 134.123 54.412C133.936 54.5613 133.74 54.6873 133.535 54.79C133.329 54.8927 133.108 54.972 132.87 55.028C132.632 55.084 132.37 55.112 132.086 55.112C131.848 55.112 131.617 55.077 131.393 55.007C131.169 54.937 130.968 54.8297 130.791 54.685C130.618 54.5403 130.478 54.356 130.371 54.132C130.268 53.9033 130.217 53.6303 130.217 53.313C130.217 53.019 130.301 52.746 130.469 52.494C130.637 52.242 130.9 52.0227 131.26 51.836C131.619 51.6493 132.079 51.5 132.639 51.388C133.203 51.276 133.88 51.2107 134.669 51.192V50.464C134.669 49.82 134.529 49.3253 134.249 48.98C133.973 48.63 133.563 48.455 133.017 48.455C132.681 48.455 132.394 48.5017 132.156 48.595C131.922 48.6883 131.724 48.791 131.561 48.903C131.397 49.015 131.264 49.1177 131.162 49.211C131.059 49.3043 130.973 49.351 130.903 49.351C130.851 49.351 130.809 49.3393 130.777 49.316C130.744 49.2927 130.716 49.2623 130.693 49.225L130.574 49.022ZM138.223 44.815V51.024H138.545C138.61 51.024 138.671 51.0147 138.727 50.996C138.787 50.9773 138.853 50.933 138.923 50.863L141.716 48.21C141.762 48.154 141.814 48.112 141.87 48.084C141.926 48.0513 141.996 48.035 142.08 48.035H142.668L139.595 50.954C139.511 51.052 139.42 51.129 139.322 51.185C139.396 51.2223 139.459 51.2667 139.511 51.318C139.567 51.3647 139.62 51.4207 139.672 51.486L142.899 55H142.318C142.252 55 142.192 54.9907 142.136 54.972C142.084 54.9487 142.035 54.9043 141.989 54.839L139.063 51.703C139.025 51.661 138.988 51.626 138.951 51.598C138.918 51.57 138.883 51.549 138.846 51.535C138.808 51.5163 138.764 51.5047 138.713 51.5C138.666 51.4907 138.608 51.486 138.538 51.486H138.223V55H137.551V44.815H138.223ZM148.644 50.814C148.644 50.4407 148.59 50.107 148.483 49.813C148.38 49.5143 148.233 49.2623 148.042 49.057C147.851 48.8517 147.622 48.6953 147.356 48.588C147.095 48.476 146.805 48.42 146.488 48.42C146.129 48.42 145.807 48.476 145.522 48.588C145.237 48.7 144.99 48.861 144.78 49.071C144.575 49.281 144.409 49.533 144.283 49.827C144.157 50.121 144.073 50.45 144.031 50.814H148.644ZM143.996 51.241V51.374C143.996 51.8967 144.057 52.3563 144.178 52.753C144.299 53.1497 144.472 53.4833 144.696 53.754C144.92 54.02 145.191 54.2207 145.508 54.356C145.825 54.4913 146.18 54.559 146.572 54.559C146.922 54.559 147.225 54.5217 147.482 54.447C147.739 54.3677 147.953 54.2813 148.126 54.188C148.303 54.09 148.443 54.0037 148.546 53.929C148.649 53.8497 148.723 53.81 148.77 53.81C148.831 53.81 148.877 53.8333 148.91 53.88L149.092 54.104C148.98 54.244 148.831 54.3747 148.644 54.496C148.462 54.6173 148.257 54.7223 148.028 54.811C147.804 54.895 147.561 54.9627 147.3 55.014C147.043 55.0653 146.784 55.091 146.523 55.091C146.047 55.091 145.613 55.0093 145.221 54.846C144.829 54.678 144.493 54.4353 144.213 54.118C143.933 53.8007 143.716 53.4133 143.562 52.956C143.413 52.494 143.338 51.9667 143.338 51.374C143.338 50.8747 143.408 50.415 143.548 49.995C143.693 49.5703 143.898 49.2063 144.164 48.903C144.435 48.595 144.764 48.3547 145.151 48.182C145.543 48.0093 145.986 47.923 146.481 47.923C146.873 47.923 147.237 47.9907 147.573 48.126C147.909 48.2613 148.201 48.4597 148.448 48.721C148.695 48.9777 148.889 49.295 149.029 49.673C149.174 50.051 149.246 50.485 149.246 50.975C149.246 51.0777 149.232 51.1477 149.204 51.185C149.176 51.2223 149.129 51.241 149.064 51.241H143.996ZM160.669 54.37C160.744 54.37 160.802 54.3933 160.844 54.44C160.886 54.482 160.907 54.538 160.907 54.608V55H154.516V54.762C154.516 54.7107 154.528 54.6593 154.551 54.608C154.579 54.552 154.614 54.5053 154.656 54.468L158.037 51.045C158.317 50.7603 158.576 50.485 158.814 50.219C159.052 49.953 159.258 49.6847 159.43 49.414C159.608 49.1433 159.745 48.8657 159.843 48.581C159.941 48.2963 159.99 47.993 159.99 47.671C159.99 47.307 159.93 46.992 159.808 46.726C159.687 46.4553 159.526 46.2337 159.325 46.061C159.125 45.8883 158.891 45.76 158.625 45.676C158.359 45.592 158.084 45.55 157.799 45.55C157.487 45.55 157.197 45.599 156.931 45.697C156.67 45.7903 156.437 45.9233 156.231 46.096C156.031 46.264 155.863 46.467 155.727 46.705C155.597 46.9383 155.506 47.195 155.454 47.475C155.422 47.5777 155.377 47.6453 155.321 47.678C155.27 47.7107 155.198 47.7223 155.104 47.713L154.761 47.657C154.822 47.2323 154.939 46.8543 155.111 46.523C155.284 46.1917 155.503 45.9117 155.769 45.683C156.035 45.4543 156.343 45.2817 156.693 45.165C157.043 45.0437 157.421 44.983 157.827 44.983C158.205 44.983 158.565 45.039 158.905 45.151C159.251 45.2583 159.554 45.424 159.815 45.648C160.081 45.8673 160.291 46.145 160.445 46.481C160.599 46.8123 160.676 47.202 160.676 47.65C160.676 48.0233 160.618 48.371 160.501 48.693C160.389 49.0103 160.235 49.316 160.039 49.61C159.843 49.904 159.615 50.191 159.353 50.471C159.097 50.7463 158.826 51.0287 158.541 51.318L155.44 54.482C155.59 54.4447 155.744 54.4167 155.902 54.398C156.066 54.3793 156.229 54.37 156.392 54.37H160.669ZM169.442 50.044C169.442 50.912 169.348 51.6633 169.162 52.298C168.975 52.9327 168.721 53.4577 168.399 53.873C168.077 54.2883 167.699 54.5987 167.265 54.804C166.835 55.0047 166.376 55.105 165.886 55.105C165.396 55.105 164.936 55.0047 164.507 54.804C164.077 54.5987 163.702 54.2883 163.38 53.873C163.058 53.4577 162.803 52.9327 162.617 52.298C162.435 51.6633 162.344 50.912 162.344 50.044C162.344 49.176 162.435 48.4247 162.617 47.79C162.803 47.1553 163.058 46.6303 163.38 46.215C163.702 45.7997 164.077 45.4917 164.507 45.291C164.936 45.0857 165.396 44.983 165.886 44.983C166.376 44.983 166.835 45.0857 167.265 45.291C167.699 45.4917 168.077 45.7997 168.399 46.215C168.721 46.6303 168.975 47.1553 169.162 47.79C169.348 48.4247 169.442 49.176 169.442 50.044ZM168.742 50.044C168.742 49.2413 168.665 48.5553 168.511 47.986C168.357 47.4167 168.149 46.9523 167.888 46.593C167.631 46.229 167.328 45.963 166.978 45.795C166.632 45.627 166.268 45.543 165.886 45.543C165.503 45.543 165.139 45.627 164.794 45.795C164.448 45.963 164.145 46.229 163.884 46.593C163.622 46.9523 163.415 47.4167 163.261 47.986C163.107 48.5553 163.03 49.2413 163.03 50.044C163.03 50.8513 163.107 51.5397 163.261 52.109C163.415 52.6737 163.622 53.138 163.884 53.502C164.145 53.8613 164.448 54.125 164.794 54.293C165.139 54.4563 165.503 54.538 165.886 54.538C166.268 54.538 166.632 54.4563 166.978 54.293C167.328 54.125 167.631 53.8613 167.888 53.502C168.149 53.138 168.357 52.6737 168.511 52.109C168.665 51.5397 168.742 50.8513 168.742 50.044ZM174.819 47.475C174.819 47.881 174.763 48.2403 174.651 48.553C174.539 48.861 174.387 49.1177 174.196 49.323C174.004 49.5283 173.783 49.6847 173.531 49.792C173.279 49.8947 173.013 49.946 172.733 49.946C172.443 49.946 172.17 49.8947 171.914 49.792C171.662 49.6847 171.442 49.5283 171.256 49.323C171.069 49.1177 170.922 48.861 170.815 48.553C170.707 48.2403 170.654 47.881 170.654 47.475C170.654 47.0643 170.707 46.7027 170.815 46.39C170.922 46.0773 171.069 45.8183 171.256 45.613C171.442 45.403 171.662 45.2467 171.914 45.144C172.17 45.0367 172.443 44.983 172.733 44.983C173.022 44.983 173.293 45.0367 173.545 45.144C173.797 45.2467 174.016 45.403 174.203 45.613C174.394 45.8183 174.543 46.0773 174.651 46.39C174.763 46.7027 174.819 47.0643 174.819 47.475ZM174.287 47.475C174.287 47.1157 174.245 46.8077 174.161 46.551C174.081 46.2943 173.969 46.0843 173.825 45.921C173.685 45.753 173.519 45.6317 173.328 45.557C173.141 45.4777 172.943 45.438 172.733 45.438C172.523 45.438 172.324 45.4777 172.138 45.557C171.951 45.6317 171.788 45.753 171.648 45.921C171.508 46.0843 171.396 46.2943 171.312 46.551C171.232 46.8077 171.193 47.1157 171.193 47.475C171.193 47.8343 171.232 48.1423 171.312 48.399C171.396 48.651 171.508 48.8587 171.648 49.022C171.788 49.1853 171.951 49.3067 172.138 49.386C172.324 49.4607 172.523 49.498 172.733 49.498C172.943 49.498 173.141 49.4607 173.328 49.386C173.519 49.3067 173.685 49.1853 173.825 49.022C173.969 48.8587 174.081 48.651 174.161 48.399C174.245 48.1423 174.287 47.8343 174.287 47.475ZM178.578 45.221C178.606 45.1837 178.638 45.1533 178.676 45.13C178.718 45.1067 178.771 45.095 178.837 45.095H179.306L172.194 54.874C172.133 54.958 172.051 55 171.949 55H171.473L178.578 45.221ZM180.167 52.648C180.167 53.054 180.111 53.4133 179.999 53.726C179.887 54.034 179.735 54.2907 179.544 54.496C179.357 54.7013 179.138 54.8577 178.886 54.965C178.634 55.0677 178.368 55.119 178.088 55.119C177.798 55.119 177.525 55.0677 177.269 54.965C177.017 54.8577 176.797 54.7013 176.611 54.496C176.424 54.2907 176.277 54.034 176.17 53.726C176.062 53.4133 176.009 53.054 176.009 52.648C176.009 52.2373 176.062 51.8757 176.17 51.563C176.277 51.2503 176.424 50.9913 176.611 50.786C176.797 50.576 177.017 50.4197 177.269 50.317C177.525 50.2097 177.798 50.156 178.088 50.156C178.377 50.156 178.648 50.2097 178.9 50.317C179.152 50.4197 179.371 50.576 179.558 50.786C179.749 50.9913 179.898 51.2503 180.006 51.563C180.113 51.8757 180.167 52.2373 180.167 52.648ZM179.635 52.648C179.635 52.2887 179.593 51.9807 179.509 51.724C179.429 51.4627 179.32 51.2503 179.18 51.087C179.04 50.919 178.874 50.7977 178.683 50.723C178.496 50.6437 178.298 50.604 178.088 50.604C177.878 50.604 177.677 50.6437 177.486 50.723C177.299 50.7977 177.136 50.919 176.996 51.087C176.856 51.2503 176.744 51.4627 176.66 51.724C176.58 51.9807 176.541 52.2887 176.541 52.648C176.541 53.0073 176.58 53.3153 176.66 53.572C176.744 53.824 176.856 54.0317 176.996 54.195C177.136 54.3583 177.299 54.4773 177.486 54.552C177.677 54.6267 177.878 54.664 178.088 54.664C178.298 54.664 178.496 54.6267 178.683 54.552C178.874 54.4773 179.04 54.3583 179.18 54.195C179.32 54.0317 179.429 53.824 179.509 53.572C179.593 53.3153 179.635 53.0073 179.635 52.648ZM191.217 48.035V55H190.846C190.729 55 190.661 54.9393 190.643 54.818L190.58 53.782C190.258 54.1833 189.884 54.5053 189.46 54.748C189.04 54.9907 188.571 55.112 188.053 55.112C187.665 55.112 187.327 55.0513 187.038 54.93C186.748 54.8087 186.508 54.6337 186.317 54.405C186.125 54.1763 185.981 53.901 185.883 53.579C185.785 53.257 185.736 52.893 185.736 52.487V48.035H186.408V52.487C186.408 53.1403 186.557 53.6537 186.856 54.027C187.154 54.3957 187.609 54.58 188.221 54.58C188.673 54.58 189.096 54.4657 189.488 54.237C189.884 54.0037 190.237 53.6817 190.545 53.271V48.035H191.217ZM194.182 53.481C194.317 53.6817 194.457 53.852 194.602 53.992C194.751 54.1273 194.907 54.2393 195.071 54.328C195.234 54.412 195.407 54.4727 195.589 54.51C195.775 54.5473 195.971 54.566 196.177 54.566C196.587 54.566 196.947 54.4913 197.255 54.342C197.563 54.1927 197.819 53.9827 198.025 53.712C198.235 53.4367 198.391 53.11 198.494 52.732C198.601 52.3493 198.655 51.9293 198.655 51.472C198.655 50.436 198.463 49.6753 198.081 49.19C197.698 48.7 197.15 48.455 196.436 48.455C195.974 48.455 195.556 48.574 195.183 48.812C194.809 49.05 194.476 49.3813 194.182 49.806V53.481ZM194.154 49.288C194.462 48.868 194.821 48.5343 195.232 48.287C195.647 48.0397 196.111 47.916 196.625 47.916C197.479 47.916 198.144 48.2123 198.62 48.805C199.1 49.3977 199.341 50.2867 199.341 51.472C199.341 51.9807 199.273 52.4567 199.138 52.9C199.007 53.3387 198.811 53.7213 198.55 54.048C198.293 54.37 197.976 54.6243 197.598 54.811C197.224 54.9977 196.793 55.091 196.303 55.091C195.831 55.091 195.423 55.0047 195.078 54.832C194.732 54.6593 194.434 54.405 194.182 54.069V57.464H193.51V48.035H193.881C193.997 48.035 194.065 48.0933 194.084 48.21L194.154 49.288ZM201.073 54.461C201.073 54.3723 201.09 54.2883 201.122 54.209C201.155 54.1297 201.199 54.062 201.255 54.006C201.316 53.9453 201.384 53.8987 201.458 53.866C201.538 53.8287 201.624 53.81 201.717 53.81C201.806 53.81 201.89 53.8287 201.969 53.866C202.049 53.8987 202.116 53.9453 202.172 54.006C202.233 54.062 202.28 54.1297 202.312 54.209C202.35 54.2883 202.368 54.3723 202.368 54.461C202.368 54.5543 202.35 54.6407 202.312 54.72C202.28 54.7947 202.233 54.8623 202.172 54.923C202.116 54.979 202.049 55.0233 201.969 55.056C201.89 55.0887 201.806 55.105 201.717 55.105C201.535 55.105 201.381 55.0443 201.255 54.923C201.134 54.797 201.073 54.643 201.073 54.461Z" fill="white"/>
</g>
<defs>
<filter id="filter0_bd_2074_550" x="0" y="-4" width="300.606" height="94" filterUnits="userSpaceOnUse" color-interpolation-filters="sRGB">
<feFlood flood-opacity="0" result="BackgroundImageFix"/>
<feGaussianBlur in="BackgroundImageFix" stdDeviation="2"/>
<feComposite in2="SourceAlpha" operator="in" result="effect1_backgroundBlur_2074_550"/>
<feColorMatrix in="SourceAlpha" type="matrix" values="0 0 0 0 0 0 0 0 0 0 0 0 0 0 0 0 0 0 127 0" result="hardAlpha"/>
<feOffset dy="4"/>
<feGaussianBlur stdDeviation="2"/>
<feComposite in2="hardAlpha" operator="out"/>
<feColorMatrix type="matrix" values="0 0 0 0 0 0 0 0 0 0 0 0 0 0 0 0 0 0 0.25 0"/>
<feBlend mode="normal" in2="effect1_backgroundBlur_2074_550" result="effect2_dropShadow_2074_550"/>
<feBlend mode="normal" in="SourceGraphic" in2="effect2_dropShadow_2074_550" result="shape"/>
</filter>
</defs>
</svg>
