<svg width="28" height="28" viewBox="0 0 28 28" fill="none" xmlns="http://www.w3.org/2000/svg">
<path fill-rule="evenodd" clip-rule="evenodd" d="M4.66683 8C3.93045 8 3.3335 8.59695 3.3335 9.33333V18.6667C3.3335 19.403 3.93045 20 4.66683 20H23.3335C24.0699 20 24.6668 19.403 24.6668 18.6667V9.33333C24.6668 8.59695 24.0699 8 23.3335 8H4.66683ZM1.3335 9.33333C1.3335 7.49238 2.82588 6 4.66683 6H23.3335C25.1744 6 26.6668 7.49238 26.6668 9.33333V18.6667C26.6668 20.5076 25.1744 22 23.3335 22H4.66683C2.82588 22 1.3335 20.5076 1.3335 18.6667V9.33333ZM7.16683 14C7.16683 13.4477 7.61454 13 8.16683 13H8.1785C8.73078 13 9.1785 13.4477 9.1785 14C9.1785 14.5523 8.73078 15 8.1785 15H8.16683C7.61454 15 7.16683 14.5523 7.16683 14ZM13.0002 14C13.0002 13.4477 13.4479 13 14.0002 13H14.0118C14.5641 13 15.0118 13.4477 15.0118 14C15.0118 14.5523 14.5641 15 14.0118 15H14.0002C13.4479 15 13.0002 14.5523 13.0002 14ZM18.8335 14C18.8335 13.4477 19.2812 13 19.8335 13H19.8452C20.3974 13 20.8452 13.4477 20.8452 14C20.8452 14.5523 20.3974 15 19.8452 15H19.8335C19.2812 15 18.8335 14.5523 18.8335 14Z" fill="black"/>
</svg>
