<svg width="351" height="110" viewBox="0 0 351 110" fill="none" xmlns="http://www.w3.org/2000/svg">
<g filter="url(#filter0_bd_2074_509)">
<rect x="267.658" width="79.3419" height="101.273" rx="8" fill="#4A7094" fill-opacity="0.8" shape-rendering="crispEdges"/>
<rect x="268.158" y="0.5" width="78.3419" height="100.273" rx="7.5" stroke="white" stroke-opacity="0.5" shape-rendering="crispEdges"/>
</g>
<path d="M293.402 16.2652C293.112 16.2652 292.888 16.1859 292.73 16.0272C292.58 15.8592 292.506 15.6305 292.506 15.3412V7.1932C292.506 6.89453 292.585 6.67053 292.744 6.5212C292.902 6.36253 293.126 6.2832 293.416 6.2832H296.79C297.872 6.2832 298.708 6.54453 299.296 7.0672C299.884 7.58053 300.178 8.30386 300.178 9.2372C300.178 9.84386 300.042 10.3665 299.772 10.8052C299.51 11.2439 299.128 11.5799 298.624 11.8132C298.12 12.0465 297.508 12.1632 296.79 12.1632L296.916 11.9532H297.378C297.76 11.9532 298.092 12.0465 298.372 12.2332C298.661 12.4199 298.913 12.7139 299.128 13.1152L300.178 15.0612C300.29 15.2572 300.341 15.4485 300.332 15.6352C300.322 15.8219 300.252 15.9759 300.122 16.0972C299.991 16.2092 299.8 16.2652 299.548 16.2652C299.296 16.2652 299.09 16.2139 298.932 16.1112C298.773 15.9992 298.633 15.8312 298.512 15.6072L297.098 13.0032C296.93 12.6859 296.729 12.4759 296.496 12.3732C296.272 12.2612 295.982 12.2052 295.628 12.2052H294.298V15.3412C294.298 15.6305 294.223 15.8592 294.074 16.0272C293.924 16.1859 293.7 16.2652 293.402 16.2652ZM294.298 10.8752H296.482C297.126 10.8752 297.611 10.7445 297.938 10.4832C298.274 10.2125 298.442 9.8112 298.442 9.2792C298.442 8.75653 298.274 8.36453 297.938 8.1032C297.611 7.83253 297.126 7.6972 296.482 7.6972H294.298V10.8752ZM304.121 16.2932C303.626 16.2932 303.183 16.1999 302.791 16.0132C302.408 15.8172 302.105 15.5559 301.881 15.2292C301.666 14.9025 301.559 14.5339 301.559 14.1232C301.559 13.6192 301.69 13.2225 301.951 12.9332C302.212 12.6345 302.637 12.4199 303.225 12.2892C303.813 12.1585 304.602 12.0932 305.591 12.0932H306.291V13.1012H305.605C305.026 13.1012 304.564 13.1292 304.219 13.1852C303.874 13.2412 303.626 13.3392 303.477 13.4792C303.337 13.6099 303.267 13.7965 303.267 14.0392C303.267 14.3472 303.374 14.5992 303.589 14.7952C303.804 14.9912 304.102 15.0892 304.485 15.0892C304.793 15.0892 305.064 15.0192 305.297 14.8792C305.54 14.7299 305.731 14.5292 305.871 14.2772C306.011 14.0252 306.081 13.7359 306.081 13.4092V11.7992C306.081 11.3325 305.978 10.9965 305.773 10.7912C305.568 10.5859 305.222 10.4832 304.737 10.4832C304.466 10.4832 304.172 10.5159 303.855 10.5812C303.547 10.6465 303.22 10.7585 302.875 10.9172C302.698 11.0012 302.539 11.0245 302.399 10.9872C302.268 10.9499 302.166 10.8752 302.091 10.7632C302.016 10.6419 301.979 10.5112 301.979 10.3712C301.979 10.2312 302.016 10.0959 302.091 9.9652C302.166 9.8252 302.292 9.72253 302.469 9.6572C302.898 9.47986 303.309 9.35386 303.701 9.2792C304.102 9.20453 304.466 9.1672 304.793 9.1672C305.465 9.1672 306.016 9.26986 306.445 9.4752C306.884 9.68053 307.21 9.9932 307.425 10.4132C307.64 10.8239 307.747 11.3559 307.747 12.0092V15.3692C307.747 15.6585 307.677 15.8825 307.537 16.0412C307.397 16.1905 307.196 16.2652 306.935 16.2652C306.674 16.2652 306.468 16.1905 306.319 16.0412C306.179 15.8825 306.109 15.6585 306.109 15.3692V14.6972H306.221C306.156 15.0239 306.025 15.3085 305.829 15.5512C305.642 15.7845 305.404 15.9665 305.115 16.0972C304.826 16.2279 304.494 16.2932 304.121 16.2932ZM312.659 16.2932C312.053 16.2932 311.544 16.1905 311.133 15.9852C310.732 15.7799 310.433 15.4812 310.237 15.0892C310.041 14.6879 309.943 14.1932 309.943 13.6052V10.6232H309.215C308.991 10.6232 308.819 10.5672 308.697 10.4552C308.576 10.3339 308.515 10.1705 308.515 9.9652C308.515 9.75053 308.576 9.5872 308.697 9.4752C308.819 9.3632 308.991 9.3072 309.215 9.3072H309.943V8.0332C309.943 7.74386 310.018 7.52453 310.167 7.3752C310.326 7.22586 310.545 7.1512 310.825 7.1512C311.105 7.1512 311.32 7.22586 311.469 7.3752C311.619 7.52453 311.693 7.74386 311.693 8.0332V9.3072H313.177C313.401 9.3072 313.574 9.3632 313.695 9.4752C313.817 9.5872 313.877 9.75053 313.877 9.9652C313.877 10.1705 313.817 10.3339 313.695 10.4552C313.574 10.5672 313.401 10.6232 313.177 10.6232H311.693V13.5072C311.693 13.9552 311.791 14.2912 311.987 14.5152C312.183 14.7392 312.501 14.8512 312.939 14.8512C313.098 14.8512 313.238 14.8372 313.359 14.8092C313.481 14.7812 313.588 14.7625 313.681 14.7532C313.793 14.7439 313.887 14.7812 313.961 14.8652C314.036 14.9399 314.073 15.0985 314.073 15.3412C314.073 15.5279 314.041 15.6959 313.975 15.8452C313.919 15.9852 313.812 16.0832 313.653 16.1392C313.532 16.1765 313.373 16.2092 313.177 16.2372C312.981 16.2745 312.809 16.2932 312.659 16.2932ZM318.202 16.2932C317.427 16.2932 316.76 16.1485 316.2 15.8592C315.64 15.5699 315.206 15.1592 314.898 14.6272C314.599 14.0952 314.45 13.4652 314.45 12.7372C314.45 12.0279 314.595 11.4072 314.884 10.8752C315.183 10.3432 315.589 9.92786 316.102 9.6292C316.625 9.3212 317.217 9.1672 317.88 9.1672C318.365 9.1672 318.799 9.24653 319.182 9.4052C319.574 9.56386 319.905 9.79253 320.176 10.0912C320.456 10.3899 320.666 10.7539 320.806 11.1832C320.955 11.6032 321.03 12.0792 321.03 12.6112C321.03 12.7792 320.969 12.9099 320.848 13.0032C320.736 13.0872 320.573 13.1292 320.358 13.1292H315.864V12.1212H319.798L319.574 12.3312C319.574 11.9019 319.509 11.5425 319.378 11.2532C319.257 10.9639 319.075 10.7445 318.832 10.5952C318.599 10.4365 318.305 10.3572 317.95 10.3572C317.558 10.3572 317.222 10.4505 316.942 10.6372C316.671 10.8145 316.461 11.0712 316.312 11.4072C316.172 11.7339 316.102 12.1259 316.102 12.5832V12.6812C316.102 13.4465 316.279 14.0205 316.634 14.4032C316.998 14.7765 317.53 14.9632 318.23 14.9632C318.473 14.9632 318.743 14.9352 319.042 14.8792C319.35 14.8139 319.639 14.7065 319.91 14.5572C320.106 14.4452 320.279 14.3985 320.428 14.4172C320.577 14.4265 320.694 14.4779 320.778 14.5712C320.871 14.6645 320.927 14.7812 320.946 14.9212C320.965 15.0519 320.937 15.1872 320.862 15.3272C320.797 15.4672 320.68 15.5885 320.512 15.6912C320.185 15.8965 319.807 16.0505 319.378 16.1532C318.958 16.2465 318.566 16.2932 318.202 16.2932Z" fill="white"/>
<path d="M284.861 64.6155C284.679 64.6155 284.536 64.5635 284.432 64.4595C284.328 64.3555 284.276 64.2169 284.276 64.0435C284.276 63.8615 284.328 63.7229 284.432 63.6275C284.536 63.5322 284.679 63.4845 284.861 63.4845H286.447V56.5685H287.123L285.225 57.7775C285.086 57.8555 284.956 57.8859 284.835 57.8685C284.722 57.8512 284.622 57.8035 284.536 57.7255C284.458 57.6475 284.401 57.5522 284.367 57.4395C284.341 57.3269 284.349 57.2099 284.393 57.0885C284.445 56.9672 284.536 56.8675 284.666 56.7895L286.46 55.6585C286.607 55.5719 286.746 55.5025 286.876 55.4505C287.014 55.3899 287.144 55.3595 287.266 55.3595C287.413 55.3595 287.534 55.4029 287.63 55.4895C287.734 55.5675 287.786 55.7019 287.786 55.8925V63.4845H289.242C289.432 63.4845 289.58 63.5322 289.684 63.6275C289.788 63.7229 289.84 63.8615 289.84 64.0435C289.84 64.2255 289.788 64.3685 289.684 64.4725C289.58 64.5679 289.432 64.6155 289.242 64.6155H284.861ZM296.049 64.7065C295.841 64.7065 295.676 64.6502 295.555 64.5375C295.433 64.4162 295.373 64.2515 295.373 64.0435V62.7565H291.889C291.672 62.7565 291.499 62.7089 291.369 62.6135C291.239 62.5182 291.174 62.3709 291.174 62.1715C291.174 62.0589 291.2 61.9375 291.252 61.8075C291.312 61.6775 291.416 61.5085 291.564 61.3005L295.347 55.8015C295.442 55.6542 295.55 55.5459 295.672 55.4765C295.793 55.3985 295.932 55.3595 296.088 55.3595C296.27 55.3595 296.417 55.4159 296.53 55.5285C296.651 55.6325 296.712 55.7972 296.712 56.0225V61.6255H297.531C297.739 61.6255 297.89 61.6732 297.986 61.7685C298.09 61.8639 298.142 62.0025 298.142 62.1845C298.142 62.3752 298.09 62.5182 297.986 62.6135C297.89 62.7089 297.739 62.7565 297.531 62.7565H296.712V64.0435C296.712 64.2515 296.651 64.4162 296.53 64.5375C296.417 64.6502 296.257 64.7065 296.049 64.7065ZM295.373 61.6255V57.0365H295.724L292.331 61.9895V61.6255H295.373ZM299.996 64.6675C299.744 64.6675 299.541 64.5895 299.385 64.4335C299.229 64.2775 299.151 64.0782 299.151 63.8355C299.151 63.5929 299.229 63.3979 299.385 63.2505C299.541 63.0945 299.744 63.0165 299.996 63.0165C300.247 63.0165 300.446 63.0945 300.594 63.2505C300.741 63.3979 300.815 63.5929 300.815 63.8355C300.815 64.0782 300.741 64.2775 300.594 64.4335C300.446 64.5895 300.247 64.6675 299.996 64.6675ZM306.929 64.7065C306.721 64.7065 306.556 64.6502 306.435 64.5375C306.313 64.4162 306.253 64.2515 306.253 64.0435V62.7565H302.769C302.552 62.7565 302.379 62.7089 302.249 62.6135C302.119 62.5182 302.054 62.3709 302.054 62.1715C302.054 62.0589 302.08 61.9375 302.132 61.8075C302.192 61.6775 302.296 61.5085 302.444 61.3005L306.227 55.8015C306.322 55.6542 306.43 55.5459 306.552 55.4765C306.673 55.3985 306.812 55.3595 306.968 55.3595C307.15 55.3595 307.297 55.4159 307.41 55.5285C307.531 55.6325 307.592 55.7972 307.592 56.0225V61.6255H308.411C308.619 61.6255 308.77 61.6732 308.866 61.7685C308.97 61.8639 309.022 62.0025 309.022 62.1845C309.022 62.3752 308.97 62.5182 308.866 62.6135C308.77 62.7089 308.619 62.7565 308.411 62.7565H307.592V64.0435C307.592 64.2515 307.531 64.4162 307.41 64.5375C307.297 64.6502 307.137 64.7065 306.929 64.7065ZM306.253 61.6255V57.0365H306.604L303.211 61.9895V61.6255H306.253ZM313.809 64.6155C313.653 64.6155 313.519 64.5592 313.406 64.4465C313.302 64.3339 313.25 64.2039 313.25 64.0565C313.25 63.8919 313.302 63.7575 313.406 63.6535C313.519 63.5495 313.653 63.4975 313.809 63.4975H314.784L314.537 63.7315V60.2215L314.771 60.4945H313.744C313.605 60.4945 313.488 60.4512 313.393 60.3645C313.298 60.2692 313.25 60.1522 313.25 60.0135C313.25 59.8749 313.298 59.7622 313.393 59.6755C313.488 59.5889 313.605 59.5455 313.744 59.5455H314.771L314.537 59.8055V58.0635C314.537 57.5002 314.645 57.0149 314.862 56.6075C315.079 56.2002 315.404 55.8882 315.837 55.6715C316.27 55.4462 316.812 55.3335 317.462 55.3335C317.904 55.3335 318.346 55.4029 318.788 55.5415C319.239 55.6802 319.611 55.8665 319.906 56.1005C320.027 56.1959 320.105 56.3042 320.14 56.4255C320.175 56.5382 320.17 56.6509 320.127 56.7635C320.092 56.8675 320.032 56.9542 319.945 57.0235C319.858 57.0929 319.754 57.1319 319.633 57.1405C319.52 57.1405 319.403 57.0929 319.282 56.9975C319.005 56.7895 318.714 56.6465 318.411 56.5685C318.116 56.4819 317.809 56.4385 317.488 56.4385C316.951 56.4385 316.548 56.5729 316.279 56.8415C316.01 57.1102 315.876 57.5002 315.876 58.0115V59.7795L315.733 59.5455H317.722C317.861 59.5455 317.978 59.5889 318.073 59.6755C318.177 59.7622 318.229 59.8749 318.229 60.0135C318.229 60.1522 318.177 60.2692 318.073 60.3645C317.978 60.4512 317.861 60.4945 317.722 60.4945H315.876V63.4975H319.503C319.668 63.4975 319.802 63.5495 319.906 63.6535C320.019 63.7575 320.075 63.8919 320.075 64.0565C320.075 64.2039 320.019 64.3339 319.906 64.4465C319.802 64.5592 319.668 64.6155 319.503 64.6155H313.809ZM321.448 65.0315C321.405 65.1702 321.335 65.2699 321.24 65.3305C321.145 65.3912 321.041 65.4215 320.928 65.4215C320.815 65.4215 320.711 65.3912 320.616 65.3305C320.529 65.2785 320.469 65.2005 320.434 65.0965C320.391 64.9925 320.391 64.8669 320.434 64.7195L323.489 55.2555C323.532 55.1169 323.602 55.0172 323.697 54.9565C323.792 54.8872 323.892 54.8569 323.996 54.8655C324.109 54.8655 324.208 54.8959 324.295 54.9565C324.39 55.0085 324.455 55.0865 324.49 55.1905C324.533 55.2859 324.538 55.4072 324.503 55.5545L321.448 65.0315ZM325.945 64.7065C325.737 64.7065 325.577 64.6502 325.464 64.5375C325.351 64.4162 325.295 64.2515 325.295 64.0435V56.0225C325.295 55.8059 325.351 55.6412 325.464 55.5285C325.577 55.4159 325.737 55.3595 325.945 55.3595C326.153 55.3595 326.313 55.4159 326.426 55.5285C326.547 55.6412 326.608 55.8059 326.608 56.0225V59.6235H326.426C326.617 59.1382 326.916 58.7742 327.323 58.5315C327.73 58.2802 328.198 58.1545 328.727 58.1545C329.23 58.1545 329.646 58.2499 329.975 58.4405C330.313 58.6225 330.564 58.9042 330.729 59.2855C330.894 59.6582 330.976 60.1305 330.976 60.7025V64.0435C330.976 64.2515 330.92 64.4162 330.807 64.5375C330.694 64.6502 330.534 64.7065 330.326 64.7065C330.109 64.7065 329.945 64.6502 329.832 64.5375C329.719 64.4162 329.663 64.2515 329.663 64.0435V60.7805C329.663 60.2345 329.555 59.8359 329.338 59.5845C329.13 59.3332 328.801 59.2075 328.35 59.2075C327.821 59.2075 327.397 59.3722 327.076 59.7015C326.764 60.0309 326.608 60.4729 326.608 61.0275V64.0435C326.608 64.4855 326.387 64.7065 325.945 64.7065ZM333.422 64.6675C333.171 64.6675 332.967 64.5895 332.811 64.4335C332.655 64.2775 332.577 64.0782 332.577 63.8355C332.577 63.5929 332.655 63.3979 332.811 63.2505C332.967 63.0945 333.171 63.0165 333.422 63.0165C333.674 63.0165 333.873 63.0945 334.02 63.2505C334.168 63.3979 334.241 63.5929 334.241 63.8355C334.241 64.0782 334.168 64.2775 334.02 64.4335C333.873 64.5895 333.674 64.6675 333.422 64.6675Z" fill="#EAEAEA"/>
<path d="M294.128 75.3185C294.014 75.3185 293.927 75.2885 293.867 75.2285C293.813 75.1625 293.786 75.0755 293.786 74.9675V73.3655H292.211C292.103 73.3655 292.019 73.3385 291.959 73.2845C291.899 73.2245 291.869 73.1405 291.869 73.0325C291.869 72.9245 291.899 72.8435 291.959 72.7895C292.019 72.7295 292.103 72.6995 292.211 72.6995H293.786V71.1425C293.786 71.0345 293.813 70.9505 293.867 70.8905C293.927 70.8305 294.017 70.8005 294.137 70.8005C294.245 70.8005 294.326 70.8305 294.38 70.8905C294.44 70.9505 294.47 71.0345 294.47 71.1425V72.6995H296.045C296.159 72.6995 296.243 72.7295 296.297 72.7895C296.357 72.8435 296.387 72.9245 296.387 73.0325C296.387 73.1405 296.357 73.2245 296.297 73.2845C296.243 73.3385 296.159 73.3655 296.045 73.3655H294.47V74.9675C294.47 75.0755 294.44 75.1625 294.38 75.2285C294.326 75.2885 294.242 75.3185 294.128 75.3185ZM300.376 75.6155C300.214 75.6155 300.097 75.5795 300.025 75.5075C299.953 75.4295 299.917 75.3245 299.917 75.1925C299.917 75.1085 299.938 75.0275 299.98 74.9495C300.022 74.8715 300.082 74.7905 300.16 74.7065L302.077 72.6545C302.371 72.3425 302.581 72.0575 302.707 71.7995C302.839 71.5355 302.905 71.2715 302.905 71.0075C302.905 70.6715 302.803 70.4165 302.599 70.2425C302.395 70.0685 302.095 69.9815 301.699 69.9815C301.459 69.9815 301.228 70.0175 301.006 70.0895C300.784 70.1615 300.562 70.2785 300.34 70.4405C300.25 70.5005 300.166 70.5275 300.088 70.5215C300.01 70.5155 299.941 70.4855 299.881 70.4315C299.827 70.3775 299.791 70.3115 299.773 70.2335C299.755 70.1555 299.758 70.0745 299.782 69.9905C299.806 69.9065 299.863 69.8345 299.953 69.7745C300.199 69.5885 300.484 69.4445 300.808 69.3425C301.132 69.2405 301.462 69.1895 301.798 69.1895C302.236 69.1895 302.605 69.2585 302.905 69.3965C303.211 69.5285 303.442 69.7235 303.598 69.9815C303.754 70.2395 303.832 70.5545 303.832 70.9265C303.832 71.1785 303.79 71.4245 303.706 71.6645C303.628 71.9045 303.505 72.1505 303.337 72.4025C303.175 72.6485 302.962 72.9095 302.698 73.1855L300.88 75.0935V74.8325H303.742C303.874 74.8325 303.976 74.8655 304.048 74.9315C304.12 74.9975 304.156 75.0935 304.156 75.2195C304.156 75.3455 304.12 75.4445 304.048 75.5165C303.976 75.5825 303.874 75.6155 303.742 75.6155H300.376ZM305.674 75.6515C305.5 75.6515 305.359 75.5975 305.251 75.4895C305.143 75.3815 305.089 75.2435 305.089 75.0755C305.089 74.9075 305.143 74.7725 305.251 74.6705C305.359 74.5625 305.5 74.5085 305.674 74.5085C305.848 74.5085 305.986 74.5625 306.088 74.6705C306.19 74.7725 306.241 74.9075 306.241 75.0755C306.241 75.2435 306.19 75.3815 306.088 75.4895C305.986 75.5975 305.848 75.6515 305.674 75.6515ZM309.528 75.6965C309.198 75.6965 308.865 75.6515 308.529 75.5615C308.193 75.4655 307.887 75.3185 307.611 75.1205C307.521 75.0665 307.461 74.9975 307.431 74.9135C307.401 74.8295 307.395 74.7485 307.413 74.6705C307.431 74.5865 307.467 74.5175 307.521 74.4635C307.581 74.4095 307.653 74.3795 307.737 74.3735C307.821 74.3615 307.911 74.3855 308.007 74.4455C308.241 74.5955 308.481 74.7095 308.727 74.7875C308.979 74.8655 309.24 74.9045 309.51 74.9045C309.786 74.9045 310.023 74.8535 310.221 74.7515C310.419 74.6495 310.569 74.5085 310.671 74.3285C310.779 74.1425 310.833 73.9265 310.833 73.6805C310.833 73.3025 310.722 72.9935 310.5 72.7535C310.278 72.5135 309.969 72.3935 309.573 72.3935C309.345 72.3935 309.132 72.4355 308.934 72.5195C308.736 72.5975 308.547 72.7295 308.367 72.9155C308.325 72.9635 308.268 73.0085 308.196 73.0505C308.13 73.0865 308.055 73.1045 307.971 73.1045C307.845 73.1045 307.749 73.0715 307.683 73.0055C307.617 72.9395 307.584 72.8495 307.584 72.7355V69.6845C307.584 69.5525 307.62 69.4505 307.692 69.3785C307.764 69.3065 307.866 69.2705 307.998 69.2705H311.013C311.145 69.2705 311.247 69.3035 311.319 69.3695C311.391 69.4355 311.427 69.5315 311.427 69.6575C311.427 69.7835 311.391 69.8825 311.319 69.9545C311.247 70.0205 311.145 70.0535 311.013 70.0535H308.493V72.3395H308.241C308.403 72.1115 308.616 71.9345 308.88 71.8085C309.15 71.6825 309.447 71.6195 309.771 71.6195C310.173 71.6195 310.521 71.7035 310.815 71.8715C311.109 72.0395 311.337 72.2765 311.499 72.5825C311.661 72.8825 311.742 73.2335 311.742 73.6355C311.742 74.0435 311.652 74.4035 311.472 74.7155C311.292 75.0215 311.037 75.2615 310.707 75.4355C310.377 75.6095 309.984 75.6965 309.528 75.6965ZM314.943 75.5885C314.895 75.6785 314.832 75.7385 314.754 75.7685C314.682 75.7985 314.61 75.8045 314.538 75.7865C314.466 75.7685 314.406 75.7325 314.358 75.6785C314.31 75.6245 314.28 75.5585 314.268 75.4805C314.262 75.4025 314.283 75.3185 314.331 75.2285L317.733 69.3155C317.781 69.2195 317.841 69.1565 317.913 69.1265C317.991 69.0965 318.063 69.0905 318.129 69.1085C318.201 69.1265 318.261 69.1625 318.309 69.2165C318.363 69.2705 318.396 69.3365 318.408 69.4145C318.42 69.4925 318.399 69.5765 318.345 69.6665L314.943 75.5885ZM314.142 73.0685C313.65 73.0685 313.266 72.8975 312.99 72.5555C312.714 72.2075 312.576 71.7305 312.576 71.1245C312.576 70.7165 312.639 70.3685 312.765 70.0805C312.891 69.7925 313.071 69.5735 313.305 69.4235C313.539 69.2675 313.818 69.1895 314.142 69.1895C314.628 69.1895 315.009 69.3605 315.285 69.7025C315.567 70.0445 315.708 70.5185 315.708 71.1245C315.708 71.5265 315.645 71.8745 315.519 72.1685C315.399 72.4565 315.222 72.6785 314.988 72.8345C314.754 72.9905 314.472 73.0685 314.142 73.0685ZM314.142 72.4295C314.31 72.4295 314.454 72.3815 314.574 72.2855C314.694 72.1895 314.784 72.0455 314.844 71.8535C314.91 71.6615 314.943 71.4185 314.943 71.1245C314.943 70.6865 314.871 70.3595 314.727 70.1435C314.589 69.9275 314.394 69.8195 314.142 69.8195C313.974 69.8195 313.83 69.8675 313.71 69.9635C313.59 70.0595 313.497 70.2035 313.431 70.3955C313.371 70.5875 313.341 70.8305 313.341 71.1245C313.341 71.5685 313.41 71.8985 313.548 72.1145C313.692 72.3245 313.89 72.4295 314.142 72.4295ZM318.543 75.6965C318.057 75.6965 317.676 75.5255 317.4 75.1835C317.124 74.8415 316.986 74.3645 316.986 73.7525C316.986 73.3505 317.046 73.0055 317.166 72.7175C317.292 72.4295 317.472 72.2075 317.706 72.0515C317.94 71.8955 318.219 71.8175 318.543 71.8175C319.035 71.8175 319.419 71.9915 319.695 72.3395C319.971 72.6815 320.109 73.1525 320.109 73.7525C320.109 74.1605 320.046 74.5115 319.92 74.8055C319.8 75.0935 319.623 75.3155 319.389 75.4715C319.155 75.6215 318.873 75.6965 318.543 75.6965ZM318.543 75.0665C318.711 75.0665 318.855 75.0185 318.975 74.9225C319.095 74.8265 319.185 74.6825 319.245 74.4905C319.311 74.2925 319.344 74.0465 319.344 73.7525C319.344 73.3205 319.272 72.9965 319.128 72.7805C318.99 72.5645 318.795 72.4565 318.543 72.4565C318.381 72.4565 318.237 72.5045 318.111 72.6005C317.991 72.6965 317.898 72.8405 317.832 73.0325C317.772 73.2245 317.742 73.4645 317.742 73.7525C317.742 74.1965 317.814 74.5265 317.958 74.7425C318.102 74.9585 318.297 75.0665 318.543 75.0665Z" fill="#999999"/>
<mask id="mask0_2074_509" style="mask-type:alpha" maskUnits="userSpaceOnUse" x="273" y="27" width="69" height="69">
<circle cx="307.33" cy="61.1156" r="32.5503" stroke="#00AC94" stroke-width="3"/>
</mask>
<g mask="url(#mask0_2074_509)">
<path d="M308.006 18.5449V21.8696L346.014 23.7582L344.361 98.1214H272.595L269.295 21.8696L308.006 18.5449Z" fill="#00AC94"/>
</g>
<g filter="url(#filter1_bd_2074_509)">
<rect x="4" width="79.3419" height="101.273" rx="8" fill="#4A7094" fill-opacity="0.8" shape-rendering="crispEdges"/>
<rect x="4.5" y="0.5" width="78.3419" height="100.273" rx="7.5" stroke="white" stroke-opacity="0.5" shape-rendering="crispEdges"/>
</g>
<path d="M18.6449 16.2652C18.3556 16.2652 18.1316 16.1859 17.9729 16.0272C17.8236 15.8592 17.7489 15.6305 17.7489 15.3412V7.0952C17.7489 6.79653 17.8236 6.56786 17.9729 6.4092C18.1316 6.25053 18.3556 6.1712 18.6449 6.1712C18.9342 6.1712 19.1536 6.25053 19.3029 6.4092C19.4616 6.56786 19.5409 6.79653 19.5409 7.0952V15.3412C19.5409 15.6305 19.4662 15.8592 19.3169 16.0272C19.1676 16.1859 18.9436 16.2652 18.6449 16.2652ZM22.4001 16.2652C22.1201 16.2652 21.9054 16.1905 21.7561 16.0412C21.6067 15.8825 21.5321 15.6585 21.5321 15.3692V10.0772C21.5321 9.78786 21.6067 9.56853 21.7561 9.4192C21.9054 9.26986 22.1154 9.1952 22.3861 9.1952C22.6567 9.1952 22.8667 9.26986 23.0161 9.4192C23.1654 9.56853 23.2401 9.78786 23.2401 10.0772V11.0292L23.0861 10.6792C23.2914 10.1845 23.6087 9.8112 24.0381 9.5592C24.4767 9.29786 24.9714 9.1672 25.5221 9.1672C26.0727 9.1672 26.5254 9.26986 26.8801 9.4752C27.2347 9.68053 27.5007 9.9932 27.6781 10.4132C27.8554 10.8239 27.9441 11.3465 27.9441 11.9812V15.3692C27.9441 15.6585 27.8694 15.8825 27.7201 16.0412C27.5707 16.1905 27.3561 16.2652 27.0761 16.2652C26.7961 16.2652 26.5767 16.1905 26.4181 16.0412C26.2687 15.8825 26.1941 15.6585 26.1941 15.3692V12.0652C26.1941 11.5332 26.0914 11.1459 25.8861 10.9032C25.6901 10.6605 25.3821 10.5392 24.9621 10.5392C24.4487 10.5392 24.0381 10.7025 23.7301 11.0292C23.4314 11.3465 23.2821 11.7712 23.2821 12.3032V15.3692C23.2821 15.9665 22.9881 16.2652 22.4001 16.2652ZM32.8855 16.2932C32.1669 16.2932 31.5415 16.1485 31.0095 15.8592C30.4775 15.5605 30.0669 15.1405 29.7775 14.5992C29.4882 14.0579 29.3435 13.4232 29.3435 12.6952C29.3435 12.1445 29.4229 11.6545 29.5815 11.2252C29.7495 10.7865 29.9875 10.4179 30.2955 10.1192C30.6035 9.8112 30.9769 9.57786 31.4155 9.4192C31.8542 9.2512 32.3442 9.1672 32.8855 9.1672C33.1935 9.1672 33.5249 9.2092 33.8795 9.2932C34.2435 9.3772 34.5842 9.5172 34.9015 9.7132C35.0509 9.80653 35.1489 9.91853 35.1955 10.0492C35.2422 10.1799 35.2515 10.3152 35.2235 10.4552C35.1955 10.5859 35.1349 10.7025 35.0415 10.8052C34.9575 10.8985 34.8502 10.9592 34.7195 10.9872C34.5889 11.0059 34.4442 10.9732 34.2855 10.8892C34.0802 10.7679 33.8702 10.6792 33.6555 10.6232C33.4409 10.5579 33.2355 10.5252 33.0395 10.5252C32.7315 10.5252 32.4609 10.5765 32.2275 10.6792C31.9942 10.7725 31.7935 10.9125 31.6255 11.0992C31.4669 11.2765 31.3455 11.5005 31.2615 11.7712C31.1775 12.0419 31.1355 12.3545 31.1355 12.7092C31.1355 13.3999 31.2989 13.9459 31.6255 14.3472C31.9615 14.7392 32.4329 14.9352 33.0395 14.9352C33.2355 14.9352 33.4362 14.9072 33.6415 14.8512C33.8562 14.7952 34.0709 14.7065 34.2855 14.5852C34.4442 14.5012 34.5842 14.4732 34.7055 14.5012C34.8362 14.5292 34.9435 14.5945 35.0275 14.6972C35.1115 14.7905 35.1629 14.9072 35.1815 15.0472C35.2002 15.1779 35.1815 15.3085 35.1255 15.4392C35.0789 15.5699 34.9855 15.6772 34.8455 15.7612C34.5375 15.9479 34.2109 16.0832 33.8655 16.1672C33.5202 16.2512 33.1935 16.2932 32.8855 16.2932ZM39.3103 16.2932C38.601 16.2932 37.985 16.1485 37.4623 15.8592C36.9397 15.5699 36.5337 15.1592 36.2443 14.6272C35.955 14.0859 35.8103 13.4512 35.8103 12.7232C35.8103 12.1725 35.8897 11.6825 36.0483 11.2532C36.2163 10.8145 36.4543 10.4412 36.7623 10.1332C37.0703 9.81586 37.439 9.57786 37.8683 9.4192C38.2977 9.2512 38.7783 9.1672 39.3103 9.1672C40.0197 9.1672 40.6357 9.31186 41.1583 9.6012C41.681 9.89053 42.087 10.3012 42.3763 10.8332C42.6657 11.3652 42.8103 11.9952 42.8103 12.7232C42.8103 13.2739 42.7263 13.7685 42.5583 14.2072C42.3997 14.6459 42.1663 15.0239 41.8583 15.3412C41.5503 15.6492 41.1817 15.8872 40.7523 16.0552C40.323 16.2139 39.8423 16.2932 39.3103 16.2932ZM39.3103 14.9632C39.6557 14.9632 39.959 14.8792 40.2203 14.7112C40.4817 14.5432 40.6823 14.2959 40.8223 13.9692C40.9717 13.6332 41.0463 13.2179 41.0463 12.7232C41.0463 11.9765 40.8877 11.4212 40.5703 11.0572C40.253 10.6839 39.833 10.4972 39.3103 10.4972C38.965 10.4972 38.6617 10.5812 38.4003 10.7492C38.139 10.9079 37.9337 11.1552 37.7843 11.4912C37.6443 11.8179 37.5743 12.2285 37.5743 12.7232C37.5743 13.4605 37.733 14.0205 38.0503 14.4032C38.3677 14.7765 38.7877 14.9632 39.3103 14.9632ZM45.1507 16.2652C44.8707 16.2652 44.6561 16.1905 44.5067 16.0412C44.3574 15.8825 44.2827 15.6585 44.2827 15.3692V10.0772C44.2827 9.78786 44.3574 9.56853 44.5067 9.4192C44.6561 9.26986 44.8661 9.1952 45.1367 9.1952C45.4074 9.1952 45.6174 9.26986 45.7667 9.4192C45.9161 9.56853 45.9907 9.78786 45.9907 10.0772V11.0992L45.8367 10.6792C46.0234 10.2125 46.3127 9.84386 46.7047 9.5732C47.0967 9.30253 47.5634 9.1672 48.1047 9.1672C48.6554 9.1672 49.1081 9.29786 49.4627 9.5592C49.8174 9.82053 50.0647 10.2219 50.2047 10.7632H50.0087C50.1954 10.2685 50.5034 9.8812 50.9327 9.6012C51.3621 9.31186 51.8567 9.1672 52.4167 9.1672C52.9394 9.1672 53.3687 9.26986 53.7047 9.4752C54.0501 9.68053 54.3067 9.9932 54.4747 10.4132C54.6427 10.8239 54.7267 11.3465 54.7267 11.9812V15.3692C54.7267 15.6585 54.6474 15.8825 54.4887 16.0412C54.3394 16.1905 54.1247 16.2652 53.8447 16.2652C53.5647 16.2652 53.3501 16.1905 53.2007 16.0412C53.0514 15.8825 52.9767 15.6585 52.9767 15.3692V12.0512C52.9767 11.5285 52.8881 11.1459 52.7107 10.9032C52.5427 10.6605 52.2534 10.5392 51.8427 10.5392C51.3854 10.5392 51.0261 10.7025 50.7647 11.0292C50.5034 11.3465 50.3727 11.7899 50.3727 12.3592V15.3692C50.3727 15.6585 50.2981 15.8825 50.1487 16.0412C49.9994 16.1905 49.7847 16.2652 49.5047 16.2652C49.2247 16.2652 49.0054 16.1905 48.8467 16.0412C48.6974 15.8825 48.6227 15.6585 48.6227 15.3692V12.0512C48.6227 11.5285 48.5341 11.1459 48.3567 10.9032C48.1887 10.6605 47.9041 10.5392 47.5027 10.5392C47.0454 10.5392 46.6861 10.7025 46.4247 11.0292C46.1634 11.3465 46.0327 11.7899 46.0327 12.3592V15.3692C46.0327 15.9665 45.7387 16.2652 45.1507 16.2652ZM59.9061 16.2932C59.1314 16.2932 58.4641 16.1485 57.9041 15.8592C57.3441 15.5699 56.9101 15.1592 56.6021 14.6272C56.3034 14.0952 56.1541 13.4652 56.1541 12.7372C56.1541 12.0279 56.2987 11.4072 56.5881 10.8752C56.8867 10.3432 57.2927 9.92786 57.8061 9.6292C58.3287 9.3212 58.9214 9.1672 59.5841 9.1672C60.0694 9.1672 60.5034 9.24653 60.8861 9.4052C61.2781 9.56386 61.6094 9.79253 61.8801 10.0912C62.1601 10.3899 62.3701 10.7539 62.5101 11.1832C62.6594 11.6032 62.7341 12.0792 62.7341 12.6112C62.7341 12.7792 62.6734 12.9099 62.5521 13.0032C62.4401 13.0872 62.2767 13.1292 62.0621 13.1292H57.5681V12.1212H61.5021L61.2781 12.3312C61.2781 11.9019 61.2127 11.5425 61.0821 11.2532C60.9607 10.9639 60.7787 10.7445 60.5361 10.5952C60.3027 10.4365 60.0087 10.3572 59.6541 10.3572C59.2621 10.3572 58.9261 10.4505 58.6461 10.6372C58.3754 10.8145 58.1654 11.0712 58.0161 11.4072C57.8761 11.7339 57.8061 12.1259 57.8061 12.5832V12.6812C57.8061 13.4465 57.9834 14.0205 58.3381 14.4032C58.7021 14.7765 59.2341 14.9632 59.9341 14.9632C60.1767 14.9632 60.4474 14.9352 60.7461 14.8792C61.0541 14.8139 61.3434 14.7065 61.6141 14.5572C61.8101 14.4452 61.9827 14.3985 62.1321 14.4172C62.2814 14.4265 62.3981 14.4779 62.4821 14.5712C62.5754 14.6645 62.6314 14.7812 62.6501 14.9212C62.6687 15.0519 62.6407 15.1872 62.5661 15.3272C62.5007 15.4672 62.3841 15.5885 62.2161 15.6912C61.8894 15.8965 61.5114 16.0505 61.0821 16.1532C60.6621 16.2465 60.2701 16.2932 59.9061 16.2932ZM66.626 16.2932C66.2246 16.2932 65.8 16.2512 65.352 16.1672C64.904 16.0832 64.5026 15.9385 64.148 15.7332C63.9986 15.6399 63.8913 15.5325 63.826 15.4112C63.77 15.2805 63.7466 15.1545 63.756 15.0332C63.7746 14.9025 63.8213 14.7905 63.896 14.6972C63.98 14.6039 64.0826 14.5432 64.204 14.5152C64.3346 14.4872 64.4746 14.5105 64.624 14.5852C64.9973 14.7625 65.3473 14.8885 65.674 14.9632C66.0006 15.0285 66.3226 15.0612 66.64 15.0612C67.088 15.0612 67.4193 14.9865 67.634 14.8372C67.858 14.6785 67.97 14.4732 67.97 14.2212C67.97 14.0065 67.8953 13.8432 67.746 13.7312C67.606 13.6099 67.3913 13.5212 67.102 13.4652L65.702 13.1992C65.1233 13.0872 64.68 12.8772 64.372 12.5692C64.0733 12.2519 63.924 11.8459 63.924 11.3512C63.924 10.9032 64.0453 10.5159 64.288 10.1892C64.54 9.86253 64.8853 9.61053 65.324 9.4332C65.7626 9.25586 66.2666 9.1672 66.836 9.1672C67.2466 9.1672 67.6293 9.21386 67.984 9.3072C68.348 9.3912 68.698 9.52653 69.034 9.7132C69.174 9.78786 69.2673 9.88586 69.314 10.0072C69.37 10.1285 69.384 10.2545 69.356 10.3852C69.328 10.5065 69.272 10.6185 69.188 10.7212C69.104 10.8145 68.9966 10.8752 68.866 10.9032C68.7446 10.9219 68.6046 10.8939 68.446 10.8192C68.1566 10.6699 67.8766 10.5625 67.606 10.4972C67.3446 10.4319 67.0926 10.3992 66.85 10.3992C66.3926 10.3992 66.052 10.4785 65.828 10.6372C65.6133 10.7959 65.506 11.0059 65.506 11.2672C65.506 11.4632 65.5713 11.6265 65.702 11.7572C65.8326 11.8879 66.0333 11.9765 66.304 12.0232L67.704 12.2892C68.3106 12.4012 68.768 12.6065 69.076 12.9052C69.3933 13.2039 69.552 13.6052 69.552 14.1092C69.552 14.7905 69.286 15.3272 68.754 15.7192C68.222 16.1019 67.5126 16.2932 66.626 16.2932Z" fill="white"/>
<path d="M19.7369 64.6155C19.5809 64.6155 19.4466 64.5592 19.3339 64.4465C19.2299 64.3339 19.1779 64.2039 19.1779 64.0565C19.1779 63.8919 19.2299 63.7575 19.3339 63.6535C19.4466 63.5495 19.5809 63.4975 19.7369 63.4975H20.7119L20.4649 63.7315V60.2215L20.6989 60.4945H19.6719C19.5332 60.4945 19.4162 60.4512 19.3209 60.3645C19.2256 60.2692 19.1779 60.1522 19.1779 60.0135C19.1779 59.8749 19.2256 59.7622 19.3209 59.6755C19.4162 59.5889 19.5332 59.5455 19.6719 59.5455H20.6989L20.4649 59.8055V58.0635C20.4649 57.5002 20.5732 57.0149 20.7899 56.6075C21.0066 56.2002 21.3316 55.8882 21.7649 55.6715C22.1982 55.4462 22.7399 55.3335 23.3899 55.3335C23.8319 55.3335 24.2739 55.4029 24.7159 55.5415C25.1666 55.6802 25.5392 55.8665 25.8339 56.1005C25.9552 56.1959 26.0332 56.3042 26.0679 56.4255C26.1026 56.5382 26.0982 56.6509 26.0549 56.7635C26.0202 56.8675 25.9596 56.9542 25.8729 57.0235C25.7862 57.0929 25.6822 57.1319 25.5609 57.1405C25.4482 57.1405 25.3312 57.0929 25.2099 56.9975C24.9326 56.7895 24.6422 56.6465 24.3389 56.5685C24.0442 56.4819 23.7366 56.4385 23.4159 56.4385C22.8786 56.4385 22.4756 56.5729 22.2069 56.8415C21.9382 57.1102 21.8039 57.5002 21.8039 58.0115V59.7795L21.6609 59.5455H23.6499C23.7886 59.5455 23.9056 59.5889 24.0009 59.6755C24.1049 59.7622 24.1569 59.8749 24.1569 60.0135C24.1569 60.1522 24.1049 60.2692 24.0009 60.3645C23.9056 60.4512 23.7886 60.4945 23.6499 60.4945H21.8039V63.4975H25.4309C25.5956 63.4975 25.7299 63.5495 25.8339 63.6535C25.9466 63.7575 26.0029 63.8919 26.0029 64.0565C26.0029 64.2039 25.9466 64.3339 25.8339 64.4465C25.7299 64.5592 25.5956 64.6155 25.4309 64.6155H19.7369ZM31.8738 64.7065C31.6658 64.7065 31.5012 64.6502 31.3798 64.5375C31.2585 64.4162 31.1978 64.2515 31.1978 64.0435V62.7565H27.7138C27.4972 62.7565 27.3238 62.7089 27.1938 62.6135C27.0638 62.5182 26.9988 62.3709 26.9988 62.1715C26.9988 62.0589 27.0248 61.9375 27.0768 61.8075C27.1375 61.6775 27.2415 61.5085 27.3888 61.3005L31.1718 55.8015C31.2672 55.6542 31.3755 55.5459 31.4968 55.4765C31.6182 55.3985 31.7568 55.3595 31.9128 55.3595C32.0948 55.3595 32.2422 55.4159 32.3548 55.5285C32.4762 55.6325 32.5368 55.7972 32.5368 56.0225V61.6255H33.3558C33.5638 61.6255 33.7155 61.6732 33.8108 61.7685C33.9148 61.8639 33.9668 62.0025 33.9668 62.1845C33.9668 62.3752 33.9148 62.5182 33.8108 62.6135C33.7155 62.7089 33.5638 62.7565 33.3558 62.7565H32.5368V64.0435C32.5368 64.2515 32.4762 64.4162 32.3548 64.5375C32.2422 64.6502 32.0818 64.7065 31.8738 64.7065ZM31.1978 61.6255V57.0365H31.5488L28.1558 61.9895V61.6255H31.1978ZM38.1607 64.7325C37.4674 64.7325 36.8694 64.6329 36.3667 64.4335C35.8727 64.2342 35.4914 63.9439 35.2227 63.5625C34.9627 63.1725 34.8327 62.7089 34.8327 62.1715C34.8327 61.7382 34.9194 61.3569 35.0927 61.0275C35.2661 60.6895 35.5087 60.4165 35.8207 60.2085C36.1327 60.0005 36.4924 59.8705 36.8997 59.8185V60.0525C36.3364 59.9312 35.8857 59.6669 35.5477 59.2595C35.2184 58.8435 35.0537 58.3495 35.0537 57.7775C35.0537 57.2662 35.1794 56.8285 35.4307 56.4645C35.6907 56.0919 36.0547 55.8102 36.5227 55.6195C36.9907 55.4289 37.5367 55.3335 38.1607 55.3335C38.7934 55.3335 39.3437 55.4289 39.8117 55.6195C40.2797 55.8102 40.6394 56.0919 40.8907 56.4645C41.1507 56.8285 41.2807 57.2662 41.2807 57.7775C41.2807 58.1589 41.2027 58.5099 41.0467 58.8305C40.8994 59.1425 40.6871 59.4069 40.4097 59.6235C40.1324 59.8315 39.8074 59.9702 39.4347 60.0395V59.8185C40.0501 59.9052 40.5441 60.1609 40.9167 60.5855C41.2981 61.0015 41.4887 61.5302 41.4887 62.1715C41.4887 62.7089 41.3544 63.1725 41.0857 63.5625C40.8257 63.9439 40.4487 64.2342 39.9547 64.4335C39.4607 64.6329 38.8627 64.7325 38.1607 64.7325ZM38.1607 63.6665C38.8454 63.6665 39.3611 63.5365 39.7077 63.2765C40.0544 63.0079 40.2277 62.6092 40.2277 62.0805C40.2277 61.5519 40.0544 61.1575 39.7077 60.8975C39.3611 60.6375 38.8454 60.5075 38.1607 60.5075C37.4847 60.5075 36.9691 60.6375 36.6137 60.8975C36.2671 61.1575 36.0937 61.5519 36.0937 62.0805C36.0937 62.6092 36.2671 63.0079 36.6137 63.2765C36.9691 63.5365 37.4847 63.6665 38.1607 63.6665ZM38.1607 59.4415C38.5507 59.4415 38.8801 59.3809 39.1487 59.2595C39.4261 59.1295 39.6384 58.9519 39.7857 58.7265C39.9331 58.4925 40.0067 58.2195 40.0067 57.9075C40.0067 57.4395 39.8421 57.0712 39.5127 56.8025C39.1921 56.5339 38.7414 56.3995 38.1607 56.3995C37.5801 56.3995 37.1294 56.5339 36.8087 56.8025C36.4881 57.0712 36.3277 57.4395 36.3277 57.9075C36.3277 58.3842 36.4881 58.7612 36.8087 59.0385C37.1294 59.3072 37.5801 59.4415 38.1607 59.4415ZM46.0987 64.7325C45.622 64.7325 45.141 64.6675 44.6557 64.5375C44.1703 64.3989 43.7283 64.1865 43.3297 63.9005C43.1997 63.8225 43.113 63.7229 43.0697 63.6015C43.0263 63.4802 43.0177 63.3632 43.0437 63.2505C43.0697 63.1292 43.1217 63.0295 43.1997 62.9515C43.2863 62.8735 43.3903 62.8302 43.5117 62.8215C43.633 62.8042 43.763 62.8389 43.9017 62.9255C44.2397 63.1422 44.5863 63.3069 44.9417 63.4195C45.3057 63.5322 45.6827 63.5885 46.0727 63.5885C46.4713 63.5885 46.8137 63.5149 47.0997 63.3675C47.3857 63.2202 47.6023 63.0165 47.7497 62.7565C47.9057 62.4879 47.9837 62.1759 47.9837 61.8205C47.9837 61.2745 47.8233 60.8282 47.5027 60.4815C47.182 60.1349 46.7357 59.9615 46.1637 59.9615C45.8343 59.9615 45.5267 60.0222 45.2407 60.1435C44.9547 60.2562 44.6817 60.4469 44.4217 60.7155C44.361 60.7849 44.2787 60.8499 44.1747 60.9105C44.0793 60.9625 43.971 60.9885 43.8497 60.9885C43.6677 60.9885 43.529 60.9409 43.4337 60.8455C43.3383 60.7502 43.2907 60.6202 43.2907 60.4555V56.0485C43.2907 55.8579 43.3427 55.7105 43.4467 55.6065C43.5507 55.5025 43.698 55.4505 43.8887 55.4505H48.2437C48.4343 55.4505 48.5817 55.4982 48.6857 55.5935C48.7897 55.6889 48.8417 55.8275 48.8417 56.0095C48.8417 56.1915 48.7897 56.3345 48.6857 56.4385C48.5817 56.5339 48.4343 56.5815 48.2437 56.5815H44.6037V59.8835H44.2397C44.4737 59.5542 44.7813 59.2985 45.1627 59.1165C45.5527 58.9345 45.9817 58.8435 46.4497 58.8435C47.0303 58.8435 47.533 58.9649 47.9577 59.2075C48.3823 59.4502 48.7117 59.7925 48.9457 60.2345C49.1797 60.6679 49.2967 61.1749 49.2967 61.7555C49.2967 62.3449 49.1667 62.8649 48.9067 63.3155C48.6467 63.7575 48.2783 64.1042 47.8017 64.3555C47.325 64.6069 46.7573 64.7325 46.0987 64.7325ZM51.4106 64.6675C51.1593 64.6675 50.9556 64.5895 50.7996 64.4335C50.6436 64.2775 50.5656 64.0782 50.5656 63.8355C50.5656 63.5929 50.6436 63.3979 50.7996 63.2505C50.9556 63.0945 51.1593 63.0165 51.4106 63.0165C51.6619 63.0165 51.8613 63.0945 52.0086 63.2505C52.1559 63.3979 52.2296 63.5929 52.2296 63.8355C52.2296 64.0782 52.1559 64.2775 52.0086 64.4335C51.8613 64.5895 51.6619 64.6675 51.4106 64.6675ZM56.1595 64.7325C55.7782 64.7325 55.3795 64.6675 54.9635 64.5375C54.5562 64.3989 54.1835 64.1952 53.8455 63.9265C53.7329 63.8485 53.6592 63.7532 53.6245 63.6405C53.5985 63.5192 53.5985 63.4065 53.6245 63.3025C53.6505 63.1899 53.7025 63.0945 53.7805 63.0165C53.8585 62.9299 53.9539 62.8822 54.0665 62.8735C54.1879 62.8562 54.3135 62.8909 54.4435 62.9775C54.7382 63.1942 55.0285 63.3502 55.3145 63.4455C55.6092 63.5409 55.8995 63.5885 56.1855 63.5885C56.7229 63.5885 57.1779 63.4585 57.5505 63.1985C57.9232 62.9385 58.2049 62.5485 58.3955 62.0285C58.5862 61.5085 58.6815 60.8629 58.6815 60.0915V58.9865H58.8245C58.7639 59.4459 58.6165 59.8489 58.3825 60.1955C58.1572 60.5422 57.8625 60.8065 57.4985 60.9885C57.1345 61.1705 56.7315 61.2615 56.2895 61.2615C55.7609 61.2615 55.2885 61.1359 54.8725 60.8845C54.4565 60.6332 54.1315 60.2865 53.8975 59.8445C53.6635 59.4025 53.5465 58.9042 53.5465 58.3495C53.5465 57.7602 53.6722 57.2402 53.9235 56.7895C54.1749 56.3302 54.5215 55.9749 54.9635 55.7235C55.4142 55.4635 55.9299 55.3335 56.5105 55.3335C57.2559 55.3335 57.8842 55.5112 58.3955 55.8665C58.9069 56.2132 59.2969 56.7245 59.5655 57.4005C59.8429 58.0765 59.9815 58.8869 59.9815 59.8315C59.9815 60.6202 59.8949 61.3179 59.7215 61.9245C59.5482 62.5312 59.2969 63.0425 58.9675 63.4585C58.6382 63.8745 58.2352 64.1909 57.7585 64.4075C57.2905 64.6242 56.7575 64.7325 56.1595 64.7325ZM56.6015 60.1565C56.9482 60.1565 57.2559 60.0785 57.5245 59.9225C57.7932 59.7665 58.0012 59.5455 58.1485 59.2595C58.3045 58.9735 58.3825 58.6485 58.3825 58.2845C58.3825 57.9119 58.3045 57.5869 58.1485 57.3095C58.0012 57.0235 57.7932 56.8025 57.5245 56.6465C57.2559 56.4905 56.9482 56.4125 56.6015 56.4125C56.2462 56.4125 55.9342 56.4905 55.6655 56.6465C55.4055 56.8025 55.1975 57.0235 55.0415 57.3095C54.8942 57.5869 54.8205 57.9119 54.8205 58.2845C54.8205 58.6485 54.8942 58.9735 55.0415 59.2595C55.1975 59.5455 55.4055 59.7665 55.6655 59.9225C55.9342 60.0785 56.2462 60.1565 56.6015 60.1565ZM64.6305 64.7325C63.9371 64.7325 63.3391 64.6329 62.8365 64.4335C62.3425 64.2342 61.9611 63.9439 61.6925 63.5625C61.4325 63.1725 61.3025 62.7089 61.3025 62.1715C61.3025 61.7382 61.3891 61.3569 61.5625 61.0275C61.7358 60.6895 61.9785 60.4165 62.2905 60.2085C62.6025 60.0005 62.9621 59.8705 63.3695 59.8185V60.0525C62.8061 59.9312 62.3555 59.6669 62.0175 59.2595C61.6881 58.8435 61.5235 58.3495 61.5235 57.7775C61.5235 57.2662 61.6491 56.8285 61.9005 56.4645C62.1605 56.0919 62.5245 55.8102 62.9925 55.6195C63.4605 55.4289 64.0065 55.3335 64.6305 55.3335C65.2631 55.3335 65.8135 55.4289 66.2815 55.6195C66.7495 55.8102 67.1091 56.0919 67.3605 56.4645C67.6205 56.8285 67.7505 57.2662 67.7505 57.7775C67.7505 58.1589 67.6725 58.5099 67.5165 58.8305C67.3691 59.1425 67.1568 59.4069 66.8795 59.6235C66.6021 59.8315 66.2771 59.9702 65.9045 60.0395V59.8185C66.5198 59.9052 67.0138 60.1609 67.3865 60.5855C67.7678 61.0015 67.9585 61.5302 67.9585 62.1715C67.9585 62.7089 67.8241 63.1725 67.5555 63.5625C67.2955 63.9439 66.9185 64.2342 66.4245 64.4335C65.9305 64.6329 65.3325 64.7325 64.6305 64.7325ZM64.6305 63.6665C65.3151 63.6665 65.8308 63.5365 66.1775 63.2765C66.5241 63.0079 66.6975 62.6092 66.6975 62.0805C66.6975 61.5519 66.5241 61.1575 66.1775 60.8975C65.8308 60.6375 65.3151 60.5075 64.6305 60.5075C63.9545 60.5075 63.4388 60.6375 63.0835 60.8975C62.7368 61.1575 62.5635 61.5519 62.5635 62.0805C62.5635 62.6092 62.7368 63.0079 63.0835 63.2765C63.4388 63.5365 63.9545 63.6665 64.6305 63.6665ZM64.6305 59.4415C65.0205 59.4415 65.3498 59.3809 65.6185 59.2595C65.8958 59.1295 66.1081 58.9519 66.2555 58.7265C66.4028 58.4925 66.4765 58.2195 66.4765 57.9075C66.4765 57.4395 66.3118 57.0712 65.9825 56.8025C65.6618 56.5339 65.2111 56.3995 64.6305 56.3995C64.0498 56.3995 63.5991 56.5339 63.2785 56.8025C62.9578 57.0712 62.7975 57.4395 62.7975 57.9075C62.7975 58.3842 62.9578 58.7612 63.2785 59.0385C63.5991 59.3072 64.0498 59.4415 64.6305 59.4415Z" fill="#EAEAEA"/>
<mask id="mask1_2074_509" style="mask-type:alpha" maskUnits="userSpaceOnUse" x="8" y="26" width="70" height="70">
<circle cx="42.769" cy="61.1156" r="32.5503" stroke="#01FF48" stroke-width="4"/>
</mask>
<g mask="url(#mask1_2074_509)">
<path d="M43.4453 65.3071V21.8696L81.4531 23.7582L79.8007 98.1213H8.03433L5.6736 18.0924L43.4453 65.3071Z" fill="#00AC94"/>
</g>
<path d="M27.2145 73.5815C27.1065 73.5815 27.0165 73.5455 26.9445 73.4735C26.8725 73.4015 26.8365 73.3145 26.8365 73.2125C26.8365 73.1045 26.8725 73.0175 26.9445 72.9515C27.0165 72.8795 27.1065 72.8435 27.2145 72.8435H29.1945C29.2965 72.8435 29.3835 72.8795 29.4555 72.9515C29.5275 73.0175 29.5635 73.1045 29.5635 73.2125C29.5635 73.3145 29.5275 73.4015 29.4555 73.4735C29.3835 73.5455 29.2965 73.5815 29.1945 73.5815H27.2145ZM30.8659 75.6155C30.7579 75.6155 30.6649 75.5765 30.5869 75.4985C30.5149 75.4205 30.4789 75.3305 30.4789 75.2285C30.4789 75.1145 30.5149 75.0215 30.5869 74.9495C30.6649 74.8775 30.7579 74.8415 30.8659 74.8415H31.5409L31.3699 75.0035V72.5735L31.5319 72.7625H30.8209C30.7249 72.7625 30.6439 72.7325 30.5779 72.6725C30.5119 72.6065 30.4789 72.5255 30.4789 72.4295C30.4789 72.3335 30.5119 72.2555 30.5779 72.1955C30.6439 72.1355 30.7249 72.1055 30.8209 72.1055H31.5319L31.3699 72.2855V71.0795C31.3699 70.6895 31.4449 70.3535 31.5949 70.0715C31.7449 69.7895 31.9699 69.5735 32.2699 69.4235C32.5699 69.2675 32.9449 69.1895 33.3949 69.1895C33.7009 69.1895 34.0069 69.2375 34.3129 69.3335C34.6249 69.4295 34.8829 69.5585 35.0869 69.7205C35.1709 69.7865 35.2249 69.8615 35.2489 69.9455C35.2729 70.0235 35.2699 70.1015 35.2399 70.1795C35.2159 70.2515 35.1739 70.3115 35.1139 70.3595C35.0539 70.4075 34.9819 70.4345 34.8979 70.4405C34.8199 70.4405 34.7389 70.4075 34.6549 70.3415C34.4629 70.1975 34.2619 70.0985 34.0519 70.0445C33.8479 69.9845 33.6349 69.9545 33.4129 69.9545C33.0409 69.9545 32.7619 70.0475 32.5759 70.2335C32.3899 70.4195 32.2969 70.6895 32.2969 71.0435V72.2675L32.1979 72.1055H33.5749C33.6709 72.1055 33.7519 72.1355 33.8179 72.1955C33.8899 72.2555 33.9259 72.3335 33.9259 72.4295C33.9259 72.5255 33.8899 72.6065 33.8179 72.6725C33.7519 72.7325 33.6709 72.7625 33.5749 72.7625H32.2969V74.8415H34.8079C34.9219 74.8415 35.0149 74.8775 35.0869 74.9495C35.1649 75.0215 35.2039 75.1145 35.2039 75.2285C35.2039 75.3305 35.1649 75.4205 35.0869 75.4985C35.0149 75.5765 34.9219 75.6155 34.8079 75.6155H30.8659ZM36.9194 75.6155C36.7934 75.6155 36.6944 75.5795 36.6224 75.5075C36.5504 75.4355 36.5144 75.3395 36.5144 75.2195C36.5144 75.0935 36.5504 74.9975 36.6224 74.9315C36.6944 74.8655 36.7934 74.8325 36.9194 74.8325H38.0174V70.0445H38.4854L37.1714 70.8815C37.0754 70.9355 36.9854 70.9565 36.9014 70.9445C36.8234 70.9325 36.7544 70.8995 36.6944 70.8455C36.6404 70.7915 36.6014 70.7255 36.5774 70.6475C36.5594 70.5695 36.5654 70.4885 36.5954 70.4045C36.6314 70.3205 36.6944 70.2515 36.7844 70.1975L38.0264 69.4145C38.1284 69.3545 38.2244 69.3065 38.3144 69.2705C38.4104 69.2285 38.5004 69.2075 38.5844 69.2075C38.6864 69.2075 38.7704 69.2375 38.8364 69.2975C38.9084 69.3515 38.9444 69.4445 38.9444 69.5765V74.8325H39.9524C40.0844 74.8325 40.1864 74.8655 40.2584 74.9315C40.3304 74.9975 40.3664 75.0935 40.3664 75.2195C40.3664 75.3455 40.3304 75.4445 40.2584 75.5165C40.1864 75.5825 40.0844 75.6155 39.9524 75.6155H36.9194ZM43.8459 75.6965C43.3359 75.6965 42.9009 75.5735 42.5409 75.3275C42.1869 75.0815 41.9139 74.7275 41.7219 74.2655C41.5359 73.7975 41.4429 73.2365 41.4429 72.5825C41.4429 72.0365 41.5029 71.5535 41.6229 71.1335C41.7429 70.7135 41.9169 70.3595 42.1449 70.0715C42.3729 69.7835 42.6489 69.5645 42.9729 69.4145C43.3029 69.2645 43.6749 69.1895 44.0889 69.1895C44.3589 69.1895 44.6349 69.2375 44.9169 69.3335C45.1989 69.4235 45.4569 69.5615 45.6909 69.7475C45.7689 69.8015 45.8169 69.8705 45.8349 69.9545C45.8589 70.0325 45.8619 70.1105 45.8439 70.1885C45.8259 70.2605 45.7899 70.3235 45.7359 70.3775C45.6819 70.4315 45.6129 70.4645 45.5289 70.4765C45.4509 70.4825 45.3669 70.4555 45.2769 70.3955C45.0729 70.2455 44.8689 70.1405 44.6649 70.0805C44.4669 70.0145 44.2689 69.9815 44.0709 69.9815C43.6989 69.9815 43.3839 70.0715 43.1259 70.2515C42.8679 70.4315 42.6729 70.7015 42.5409 71.0615C42.4089 71.4215 42.3429 71.8685 42.3429 72.4025V73.1675H42.2439C42.2859 72.8435 42.3849 72.5645 42.5409 72.3305C42.7029 72.0905 42.9099 71.9075 43.1619 71.7815C43.4139 71.6555 43.6929 71.5925 43.9989 71.5925C44.3709 71.5925 44.6979 71.6795 44.9799 71.8535C45.2679 72.0275 45.4929 72.2675 45.6549 72.5735C45.8169 72.8735 45.8979 73.2185 45.8979 73.6085C45.8979 74.0105 45.8109 74.3705 45.6369 74.6885C45.4629 75.0065 45.2199 75.2555 44.9079 75.4355C44.6019 75.6095 44.2479 75.6965 43.8459 75.6965ZM43.7919 74.9405C44.0379 74.9405 44.2539 74.8865 44.4399 74.7785C44.6259 74.6705 44.7699 74.5205 44.8719 74.3285C44.9739 74.1305 45.0249 73.9025 45.0249 73.6445C45.0249 73.3865 44.9739 73.1615 44.8719 72.9695C44.7699 72.7775 44.6259 72.6275 44.4399 72.5195C44.2539 72.4055 44.0379 72.3485 43.7919 72.3485C43.5459 72.3485 43.3299 72.4055 43.1439 72.5195C42.9639 72.6275 42.8199 72.7775 42.7119 72.9695C42.6099 73.1615 42.5589 73.3865 42.5589 73.6445C42.5589 73.9025 42.6099 74.1305 42.7119 74.3285C42.8199 74.5205 42.9639 74.6705 43.1439 74.7785C43.3299 74.8865 43.5459 74.9405 43.7919 74.9405ZM47.3974 75.6515C47.2234 75.6515 47.0824 75.5975 46.9744 75.4895C46.8664 75.3815 46.8124 75.2435 46.8124 75.0755C46.8124 74.9075 46.8664 74.7725 46.9744 74.6705C47.0824 74.5625 47.2234 74.5085 47.3974 74.5085C47.5714 74.5085 47.7094 74.5625 47.8114 74.6705C47.9134 74.7725 47.9644 74.9075 47.9644 75.0755C47.9644 75.2435 47.9134 75.3815 47.8114 75.4895C47.7094 75.5975 47.5714 75.6515 47.3974 75.6515ZM51.1531 75.6965C50.4151 75.6965 49.8511 75.4175 49.4611 74.8595C49.0771 74.2955 48.8851 73.4885 48.8851 72.4385C48.8851 71.7245 48.9721 71.1275 49.1461 70.6475C49.3201 70.1675 49.5751 69.8045 49.9111 69.5585C50.2471 69.3125 50.6611 69.1895 51.1531 69.1895C51.8971 69.1895 52.4611 69.4655 52.8451 70.0175C53.2291 70.5635 53.4211 71.3675 53.4211 72.4295C53.4211 73.1315 53.3341 73.7255 53.1601 74.2115C52.9861 74.6975 52.7311 75.0665 52.3951 75.3185C52.0591 75.5705 51.6451 75.6965 51.1531 75.6965ZM51.1531 74.9225C51.6151 74.9225 51.9541 74.7215 52.1701 74.3195C52.3921 73.9115 52.5031 73.2815 52.5031 72.4295C52.5031 71.5715 52.3921 70.9475 52.1701 70.5575C51.9541 70.1615 51.6151 69.9635 51.1531 69.9635C50.6971 69.9635 50.3581 70.1615 50.1361 70.5575C49.9141 70.9475 49.8031 71.5715 49.8031 72.4295C49.8031 73.2815 49.9141 73.9115 50.1361 74.3195C50.3581 74.7215 50.6971 74.9225 51.1531 74.9225ZM55.0286 75.6155C54.8666 75.6155 54.7496 75.5795 54.6776 75.5075C54.6056 75.4295 54.5696 75.3245 54.5696 75.1925C54.5696 75.1085 54.5906 75.0275 54.6326 74.9495C54.6746 74.8715 54.7346 74.7905 54.8126 74.7065L56.7296 72.6545C57.0236 72.3425 57.2336 72.0575 57.3596 71.7995C57.4916 71.5355 57.5576 71.2715 57.5576 71.0075C57.5576 70.6715 57.4556 70.4165 57.2516 70.2425C57.0476 70.0685 56.7476 69.9815 56.3516 69.9815C56.1116 69.9815 55.8806 70.0175 55.6586 70.0895C55.4366 70.1615 55.2146 70.2785 54.9926 70.4405C54.9026 70.5005 54.8186 70.5275 54.7406 70.5215C54.6626 70.5155 54.5936 70.4855 54.5336 70.4315C54.4796 70.3775 54.4436 70.3115 54.4256 70.2335C54.4076 70.1555 54.4106 70.0745 54.4346 69.9905C54.4586 69.9065 54.5156 69.8345 54.6056 69.7745C54.8516 69.5885 55.1366 69.4445 55.4606 69.3425C55.7846 69.2405 56.1146 69.1895 56.4506 69.1895C56.8886 69.1895 57.2576 69.2585 57.5576 69.3965C57.8636 69.5285 58.0946 69.7235 58.2506 69.9815C58.4066 70.2395 58.4846 70.5545 58.4846 70.9265C58.4846 71.1785 58.4426 71.4245 58.3586 71.6645C58.2806 71.9045 58.1576 72.1505 57.9896 72.4025C57.8276 72.6485 57.6146 72.9095 57.3506 73.1855L55.5326 75.0935V74.8325H58.3946C58.5266 74.8325 58.6286 74.8655 58.7006 74.9315C58.7726 74.9975 58.8086 75.0935 58.8086 75.2195C58.8086 75.3455 58.7726 75.4445 58.7006 75.5165C58.6286 75.5825 58.5266 75.6155 58.3946 75.6155H55.0286Z" fill="#AAAAAA"/>
<g filter="url(#filter2_bd_2074_509)">
<rect x="91.8867" width="79.3419" height="101.273" rx="8" fill="#4A7094" fill-opacity="0.8" shape-rendering="crispEdges"/>
<rect x="92.3867" y="0.5" width="78.3419" height="100.273" rx="7.5" stroke="white" stroke-opacity="0.5" shape-rendering="crispEdges"/>
</g>
<path d="M103.088 16.1532C102.78 16.1532 102.542 16.0739 102.374 15.9152C102.215 15.7472 102.136 15.5092 102.136 15.2012V7.2352C102.136 6.9272 102.215 6.69386 102.374 6.5352C102.542 6.3672 102.78 6.2832 103.088 6.2832H108.086C108.319 6.2832 108.496 6.34386 108.618 6.4652C108.748 6.58653 108.814 6.7592 108.814 6.9832C108.814 7.21653 108.748 7.39853 108.618 7.5292C108.496 7.65053 108.319 7.7112 108.086 7.7112H103.858V10.4272H107.778C108.02 10.4272 108.202 10.4879 108.324 10.6092C108.445 10.7305 108.506 10.9079 108.506 11.1412C108.506 11.3745 108.445 11.5519 108.324 11.6732C108.202 11.7945 108.02 11.8552 107.778 11.8552H103.858V14.7252H108.086C108.319 14.7252 108.496 14.7859 108.618 14.9072C108.748 15.0285 108.814 15.2059 108.814 15.4392C108.814 15.6725 108.748 15.8499 108.618 15.9712C108.496 16.0925 108.319 16.1532 108.086 16.1532H103.088ZM110.797 16.2232C110.592 16.2232 110.419 16.1672 110.279 16.0552C110.148 15.9339 110.078 15.7799 110.069 15.5932C110.069 15.4065 110.148 15.2105 110.307 15.0052L112.575 12.2052V13.0312L110.447 10.4132C110.279 10.2079 110.2 10.0119 110.209 9.8252C110.218 9.63853 110.288 9.4892 110.419 9.3772C110.559 9.25586 110.732 9.1952 110.937 9.1952C111.152 9.1952 111.329 9.23253 111.469 9.3072C111.618 9.38186 111.754 9.49853 111.875 9.6572L113.555 11.8132H112.939L114.633 9.6572C114.764 9.49853 114.899 9.38186 115.039 9.3072C115.179 9.23253 115.352 9.1952 115.557 9.1952C115.772 9.1952 115.944 9.25586 116.075 9.3772C116.206 9.49853 116.271 9.65253 116.271 9.8392C116.28 10.0259 116.201 10.2219 116.033 10.4272L113.919 13.0172V12.2332L116.187 15.0052C116.355 15.2012 116.434 15.3925 116.425 15.5792C116.416 15.7659 116.341 15.9199 116.201 16.0412C116.07 16.1625 115.898 16.2232 115.683 16.2232C115.478 16.2232 115.305 16.1859 115.165 16.1112C115.025 16.0365 114.89 15.9199 114.759 15.7612L112.939 13.4652H113.527L111.721 15.7612C111.6 15.9105 111.469 16.0272 111.329 16.1112C111.189 16.1859 111.012 16.2232 110.797 16.2232ZM118.832 18.7852C118.552 18.7852 118.337 18.7105 118.188 18.5612C118.038 18.4119 117.964 18.1925 117.964 17.9032V10.0772C117.964 9.78786 118.038 9.56853 118.188 9.4192C118.337 9.26986 118.547 9.1952 118.818 9.1952C119.098 9.1952 119.312 9.26986 119.462 9.4192C119.611 9.56853 119.686 9.78786 119.686 10.0772V11.1692L119.532 10.7492C119.672 10.2732 119.956 9.89053 120.386 9.6012C120.824 9.31186 121.333 9.1672 121.912 9.1672C122.509 9.1672 123.032 9.31186 123.48 9.6012C123.937 9.89053 124.292 10.3012 124.544 10.8332C124.796 11.3559 124.922 11.9859 124.922 12.7232C124.922 13.4512 124.796 14.0859 124.544 14.6272C124.292 15.1592 123.942 15.5699 123.494 15.8592C123.046 16.1485 122.518 16.2932 121.912 16.2932C121.342 16.2932 120.843 16.1532 120.414 15.8732C119.984 15.5839 119.695 15.2105 119.546 14.7532H119.714V17.9032C119.714 18.1925 119.634 18.4119 119.476 18.5612C119.326 18.7105 119.112 18.7852 118.832 18.7852ZM121.422 14.9632C121.767 14.9632 122.07 14.8792 122.332 14.7112C122.593 14.5432 122.794 14.2959 122.934 13.9692C123.083 13.6332 123.158 13.2179 123.158 12.7232C123.158 11.9765 122.999 11.4212 122.682 11.0572C122.364 10.6839 121.944 10.4972 121.422 10.4972C121.076 10.4972 120.773 10.5812 120.512 10.7492C120.25 10.9079 120.045 11.1552 119.896 11.4912C119.756 11.8179 119.686 12.2285 119.686 12.7232C119.686 13.4605 119.844 14.0205 120.162 14.4032C120.479 14.7765 120.899 14.9632 121.422 14.9632ZM129.732 16.2932C128.958 16.2932 128.29 16.1485 127.73 15.8592C127.17 15.5699 126.736 15.1592 126.428 14.6272C126.13 14.0952 125.98 13.4652 125.98 12.7372C125.98 12.0279 126.125 11.4072 126.414 10.8752C126.713 10.3432 127.119 9.92786 127.632 9.6292C128.155 9.3212 128.748 9.1672 129.41 9.1672C129.896 9.1672 130.33 9.24653 130.712 9.4052C131.104 9.56386 131.436 9.79253 131.706 10.0912C131.986 10.3899 132.196 10.7539 132.336 11.1832C132.486 11.6032 132.56 12.0792 132.56 12.6112C132.56 12.7792 132.5 12.9099 132.378 13.0032C132.266 13.0872 132.103 13.1292 131.888 13.1292H127.394V12.1212H131.328L131.104 12.3312C131.104 11.9019 131.039 11.5425 130.908 11.2532C130.787 10.9639 130.605 10.7445 130.362 10.5952C130.129 10.4365 129.835 10.3572 129.48 10.3572C129.088 10.3572 128.752 10.4505 128.472 10.6372C128.202 10.8145 127.992 11.0712 127.842 11.4072C127.702 11.7339 127.632 12.1259 127.632 12.5832V12.6812C127.632 13.4465 127.81 14.0205 128.164 14.4032C128.528 14.7765 129.06 14.9632 129.76 14.9632C130.003 14.9632 130.274 14.9352 130.572 14.8792C130.88 14.8139 131.17 14.7065 131.44 14.5572C131.636 14.4452 131.809 14.3985 131.958 14.4172C132.108 14.4265 132.224 14.4779 132.308 14.5712C132.402 14.6645 132.458 14.7812 132.476 14.9212C132.495 15.0519 132.467 15.1872 132.392 15.3272C132.327 15.4672 132.21 15.5885 132.042 15.6912C131.716 15.8965 131.338 16.0505 130.908 16.1532C130.488 16.2465 130.096 16.2932 129.732 16.2932ZM134.814 16.2652C134.534 16.2652 134.319 16.1905 134.17 16.0412C134.021 15.8825 133.946 15.6585 133.946 15.3692V10.0772C133.946 9.78786 134.021 9.56853 134.17 9.4192C134.319 9.26986 134.529 9.1952 134.8 9.1952C135.071 9.1952 135.281 9.26986 135.43 9.4192C135.579 9.56853 135.654 9.78786 135.654 10.0772V11.0292L135.5 10.6792C135.705 10.1845 136.023 9.8112 136.452 9.5592C136.891 9.29786 137.385 9.1672 137.936 9.1672C138.487 9.1672 138.939 9.26986 139.294 9.4752C139.649 9.68053 139.915 9.9932 140.092 10.4132C140.269 10.8239 140.358 11.3465 140.358 11.9812V15.3692C140.358 15.6585 140.283 15.8825 140.134 16.0412C139.985 16.1905 139.77 16.2652 139.49 16.2652C139.21 16.2652 138.991 16.1905 138.832 16.0412C138.683 15.8825 138.608 15.6585 138.608 15.3692V12.0652C138.608 11.5332 138.505 11.1459 138.3 10.9032C138.104 10.6605 137.796 10.5392 137.376 10.5392C136.863 10.5392 136.452 10.7025 136.144 11.0292C135.845 11.3465 135.696 11.7712 135.696 12.3032V15.3692C135.696 15.9665 135.402 16.2652 134.814 16.2652ZM144.642 16.2932C144.24 16.2932 143.816 16.2512 143.368 16.1672C142.92 16.0832 142.518 15.9385 142.164 15.7332C142.014 15.6399 141.907 15.5325 141.842 15.4112C141.786 15.2805 141.762 15.1545 141.772 15.0332C141.79 14.9025 141.837 14.7905 141.912 14.6972C141.996 14.6039 142.098 14.5432 142.22 14.5152C142.35 14.4872 142.49 14.5105 142.64 14.5852C143.013 14.7625 143.363 14.8885 143.69 14.9632C144.016 15.0285 144.338 15.0612 144.656 15.0612C145.104 15.0612 145.435 14.9865 145.65 14.8372C145.874 14.6785 145.986 14.4732 145.986 14.2212C145.986 14.0065 145.911 13.8432 145.762 13.7312C145.622 13.6099 145.407 13.5212 145.118 13.4652L143.718 13.1992C143.139 13.0872 142.696 12.8772 142.388 12.5692C142.089 12.2519 141.94 11.8459 141.94 11.3512C141.94 10.9032 142.061 10.5159 142.304 10.1892C142.556 9.86253 142.901 9.61053 143.34 9.4332C143.778 9.25586 144.282 9.1672 144.852 9.1672C145.262 9.1672 145.645 9.21386 146 9.3072C146.364 9.3912 146.714 9.52653 147.05 9.7132C147.19 9.78786 147.283 9.88586 147.33 10.0072C147.386 10.1285 147.4 10.2545 147.372 10.3852C147.344 10.5065 147.288 10.6185 147.204 10.7212C147.12 10.8145 147.012 10.8752 146.882 10.9032C146.76 10.9219 146.62 10.8939 146.462 10.8192C146.172 10.6699 145.892 10.5625 145.622 10.4972C145.36 10.4319 145.108 10.3992 144.866 10.3992C144.408 10.3992 144.068 10.4785 143.844 10.6372C143.629 10.7959 143.522 11.0059 143.522 11.2672C143.522 11.4632 143.587 11.6265 143.718 11.7572C143.848 11.8879 144.049 11.9765 144.32 12.0232L145.72 12.2892C146.326 12.4012 146.784 12.6065 147.092 12.9052C147.409 13.2039 147.568 13.6052 147.568 14.1092C147.568 14.7905 147.302 15.3272 146.77 15.7192C146.238 16.1019 145.528 16.2932 144.642 16.2932ZM152.346 16.2932C151.571 16.2932 150.904 16.1485 150.344 15.8592C149.784 15.5699 149.35 15.1592 149.042 14.6272C148.743 14.0952 148.594 13.4652 148.594 12.7372C148.594 12.0279 148.738 11.4072 149.028 10.8752C149.326 10.3432 149.732 9.92786 150.246 9.6292C150.768 9.3212 151.361 9.1672 152.024 9.1672C152.509 9.1672 152.943 9.24653 153.326 9.4052C153.718 9.56386 154.049 9.79253 154.32 10.0912C154.6 10.3899 154.81 10.7539 154.95 11.1832C155.099 11.6032 155.174 12.0792 155.174 12.6112C155.174 12.7792 155.113 12.9099 154.992 13.0032C154.88 13.0872 154.716 13.1292 154.502 13.1292H150.008V12.1212H153.942L153.718 12.3312C153.718 11.9019 153.652 11.5425 153.522 11.2532C153.4 10.9639 153.218 10.7445 152.976 10.5952C152.742 10.4365 152.448 10.3572 152.094 10.3572C151.702 10.3572 151.366 10.4505 151.086 10.6372C150.815 10.8145 150.605 11.0712 150.456 11.4072C150.316 11.7339 150.246 12.1259 150.246 12.5832V12.6812C150.246 13.4465 150.423 14.0205 150.778 14.4032C151.142 14.7765 151.674 14.9632 152.374 14.9632C152.616 14.9632 152.887 14.9352 153.186 14.8792C153.494 14.8139 153.783 14.7065 154.054 14.5572C154.25 14.4452 154.422 14.3985 154.572 14.4172C154.721 14.4265 154.838 14.4779 154.922 14.5712C155.015 14.6645 155.071 14.7812 155.09 14.9212C155.108 15.0519 155.08 15.1872 155.006 15.3272C154.94 15.4672 154.824 15.5885 154.656 15.6912C154.329 15.8965 153.951 16.0505 153.522 16.1532C153.102 16.2465 152.71 16.2932 152.346 16.2932ZM159.065 16.2932C158.664 16.2932 158.239 16.2512 157.791 16.1672C157.343 16.0832 156.942 15.9385 156.587 15.7332C156.438 15.6399 156.331 15.5325 156.265 15.4112C156.209 15.2805 156.186 15.1545 156.195 15.0332C156.214 14.9025 156.261 14.7905 156.335 14.6972C156.419 14.6039 156.522 14.5432 156.643 14.5152C156.774 14.4872 156.914 14.5105 157.063 14.5852C157.437 14.7625 157.787 14.8885 158.113 14.9632C158.44 15.0285 158.762 15.0612 159.079 15.0612C159.527 15.0612 159.859 14.9865 160.073 14.8372C160.297 14.6785 160.409 14.4732 160.409 14.2212C160.409 14.0065 160.335 13.8432 160.185 13.7312C160.045 13.6099 159.831 13.5212 159.541 13.4652L158.141 13.1992C157.563 13.0872 157.119 12.8772 156.811 12.5692C156.513 12.2519 156.363 11.8459 156.363 11.3512C156.363 10.9032 156.485 10.5159 156.727 10.1892C156.979 9.86253 157.325 9.61053 157.763 9.4332C158.202 9.25586 158.706 9.1672 159.275 9.1672C159.686 9.1672 160.069 9.21386 160.423 9.3072C160.787 9.3912 161.137 9.52653 161.473 9.7132C161.613 9.78786 161.707 9.88586 161.753 10.0072C161.809 10.1285 161.823 10.2545 161.795 10.3852C161.767 10.5065 161.711 10.6185 161.627 10.7212C161.543 10.8145 161.436 10.8752 161.305 10.9032C161.184 10.9219 161.044 10.8939 160.885 10.8192C160.596 10.6699 160.316 10.5625 160.045 10.4972C159.784 10.4319 159.532 10.3992 159.289 10.3992C158.832 10.3992 158.491 10.4785 158.267 10.6372C158.053 10.7959 157.945 11.0059 157.945 11.2672C157.945 11.4632 158.011 11.6265 158.141 11.7572C158.272 11.8879 158.473 11.9765 158.743 12.0232L160.143 12.2892C160.75 12.4012 161.207 12.6065 161.515 12.9052C161.833 13.2039 161.991 13.6052 161.991 14.1092C161.991 14.7905 161.725 15.3272 161.193 15.7192C160.661 16.1019 159.952 16.2932 159.065 16.2932Z" fill="white"/>
<path d="M111.124 64.6155C110.968 64.6155 110.833 64.5592 110.721 64.4465C110.617 64.3339 110.565 64.2039 110.565 64.0565C110.565 63.8919 110.617 63.7575 110.721 63.6535C110.833 63.5495 110.968 63.4975 111.124 63.4975H112.099L111.852 63.7315V60.2215L112.086 60.4945H111.059C110.92 60.4945 110.803 60.4512 110.708 60.3645C110.612 60.2692 110.565 60.1522 110.565 60.0135C110.565 59.8749 110.612 59.7622 110.708 59.6755C110.803 59.5889 110.92 59.5455 111.059 59.5455H112.086L111.852 59.8055V58.0635C111.852 57.5002 111.96 57.0149 112.177 56.6075C112.393 56.2002 112.718 55.8882 113.152 55.6715C113.585 55.4462 114.127 55.3335 114.777 55.3335C115.219 55.3335 115.661 55.4029 116.103 55.5415C116.553 55.6802 116.926 55.8665 117.221 56.1005C117.342 56.1959 117.42 56.3042 117.455 56.4255C117.489 56.5382 117.485 56.6509 117.442 56.7635C117.407 56.8675 117.346 56.9542 117.26 57.0235C117.173 57.0929 117.069 57.1319 116.948 57.1405C116.835 57.1405 116.718 57.0929 116.597 56.9975C116.319 56.7895 116.029 56.6465 115.726 56.5685C115.431 56.4819 115.123 56.4385 114.803 56.4385C114.265 56.4385 113.862 56.5729 113.594 56.8415C113.325 57.1102 113.191 57.5002 113.191 58.0115V59.7795L113.048 59.5455H115.037C115.175 59.5455 115.292 59.5889 115.388 59.6755C115.492 59.7622 115.544 59.8749 115.544 60.0135C115.544 60.1522 115.492 60.2692 115.388 60.3645C115.292 60.4512 115.175 60.4945 115.037 60.4945H113.191V63.4975H116.818C116.982 63.4975 117.117 63.5495 117.221 63.6535C117.333 63.7575 117.39 63.8919 117.39 64.0565C117.39 64.2039 117.333 64.3339 117.221 64.4465C117.117 64.5592 116.982 64.6155 116.818 64.6155H111.124ZM123.261 64.7065C123.053 64.7065 122.888 64.6502 122.767 64.5375C122.645 64.4162 122.585 64.2515 122.585 64.0435V62.7565H119.101C118.884 62.7565 118.711 62.7089 118.581 62.6135C118.451 62.5182 118.386 62.3709 118.386 62.1715C118.386 62.0589 118.412 61.9375 118.464 61.8075C118.524 61.6775 118.628 61.5085 118.776 61.3005L122.559 55.8015C122.654 55.6542 122.762 55.5459 122.884 55.4765C123.005 55.3985 123.144 55.3595 123.3 55.3595C123.482 55.3595 123.629 55.4159 123.742 55.5285C123.863 55.6325 123.924 55.7972 123.924 56.0225V61.6255H124.743C124.951 61.6255 125.102 61.6732 125.198 61.7685C125.302 61.8639 125.354 62.0025 125.354 62.1845C125.354 62.3752 125.302 62.5182 125.198 62.6135C125.102 62.7089 124.951 62.7565 124.743 62.7565H123.924V64.0435C123.924 64.2515 123.863 64.4162 123.742 64.5375C123.629 64.6502 123.469 64.7065 123.261 64.7065ZM122.585 61.6255V57.0365H122.936L119.543 61.9895V61.6255H122.585ZM129.69 64.7325C129.214 64.7325 128.733 64.6675 128.247 64.5375C127.762 64.3989 127.32 64.1865 126.921 63.9005C126.791 63.8225 126.705 63.7229 126.661 63.6015C126.618 63.4802 126.609 63.3632 126.635 63.2505C126.661 63.1292 126.713 63.0295 126.791 62.9515C126.878 62.8735 126.982 62.8302 127.103 62.8215C127.225 62.8042 127.355 62.8389 127.493 62.9255C127.831 63.1422 128.178 63.3069 128.533 63.4195C128.897 63.5322 129.274 63.5885 129.664 63.5885C130.063 63.5885 130.405 63.5149 130.691 63.3675C130.977 63.2202 131.194 63.0165 131.341 62.7565C131.497 62.4879 131.575 62.1759 131.575 61.8205C131.575 61.2745 131.415 60.8282 131.094 60.4815C130.774 60.1349 130.327 59.9615 129.755 59.9615C129.426 59.9615 129.118 60.0222 128.832 60.1435C128.546 60.2562 128.273 60.4469 128.013 60.7155C127.953 60.7849 127.87 60.8499 127.766 60.9105C127.671 60.9625 127.563 60.9885 127.441 60.9885C127.259 60.9885 127.121 60.9409 127.025 60.8455C126.93 60.7502 126.882 60.6202 126.882 60.4555V56.0485C126.882 55.8579 126.934 55.7105 127.038 55.6065C127.142 55.5025 127.29 55.4505 127.48 55.4505H131.835C132.026 55.4505 132.173 55.4982 132.277 55.5935C132.381 55.6889 132.433 55.8275 132.433 56.0095C132.433 56.1915 132.381 56.3345 132.277 56.4385C132.173 56.5339 132.026 56.5815 131.835 56.5815H128.195V59.8835H127.831C128.065 59.5542 128.373 59.2985 128.754 59.1165C129.144 58.9345 129.573 58.8435 130.041 58.8435C130.622 58.8435 131.125 58.9649 131.549 59.2075C131.974 59.4502 132.303 59.7925 132.537 60.2345C132.771 60.6679 132.888 61.1749 132.888 61.7555C132.888 62.3449 132.758 62.8649 132.498 63.3155C132.238 63.7575 131.87 64.1042 131.393 64.3555C130.917 64.6069 130.349 64.7325 129.69 64.7325ZM135.002 64.6675C134.751 64.6675 134.547 64.5895 134.391 64.4335C134.235 64.2775 134.157 64.0782 134.157 63.8355C134.157 63.5929 134.235 63.3979 134.391 63.2505C134.547 63.0945 134.751 63.0165 135.002 63.0165C135.254 63.0165 135.453 63.0945 135.6 63.2505C135.748 63.3979 135.821 63.5929 135.821 63.8355C135.821 64.0782 135.748 64.2775 135.6 64.4335C135.453 64.5895 135.254 64.6675 135.002 64.6675ZM139.751 64.7325C139.37 64.7325 138.971 64.6675 138.555 64.5375C138.148 64.3989 137.775 64.1952 137.437 63.9265C137.325 63.8485 137.251 63.7532 137.216 63.6405C137.19 63.5192 137.19 63.4065 137.216 63.3025C137.242 63.1899 137.294 63.0945 137.372 63.0165C137.45 62.9299 137.546 62.8822 137.658 62.8735C137.78 62.8562 137.905 62.8909 138.035 62.9775C138.33 63.1942 138.62 63.3502 138.906 63.4455C139.201 63.5409 139.491 63.5885 139.777 63.5885C140.315 63.5885 140.77 63.4585 141.142 63.1985C141.515 62.9385 141.797 62.5485 141.987 62.0285C142.178 61.5085 142.273 60.8629 142.273 60.0915V58.9865H142.416C142.356 59.4459 142.208 59.8489 141.974 60.1955C141.749 60.5422 141.454 60.8065 141.09 60.9885C140.726 61.1705 140.323 61.2615 139.881 61.2615C139.353 61.2615 138.88 61.1359 138.464 60.8845C138.048 60.6332 137.723 60.2865 137.489 59.8445C137.255 59.4025 137.138 58.9042 137.138 58.3495C137.138 57.7602 137.264 57.2402 137.515 56.7895C137.767 56.3302 138.113 55.9749 138.555 55.7235C139.006 55.4635 139.522 55.3335 140.102 55.3335C140.848 55.3335 141.476 55.5112 141.987 55.8665C142.499 56.2132 142.889 56.7245 143.157 57.4005C143.435 58.0765 143.573 58.8869 143.573 59.8315C143.573 60.6202 143.487 61.3179 143.313 61.9245C143.14 62.5312 142.889 63.0425 142.559 63.4585C142.23 63.8745 141.827 64.1909 141.35 64.4075C140.882 64.6242 140.349 64.7325 139.751 64.7325ZM140.193 60.1565C140.54 60.1565 140.848 60.0785 141.116 59.9225C141.385 59.7665 141.593 59.5455 141.74 59.2595C141.896 58.9735 141.974 58.6485 141.974 58.2845C141.974 57.9119 141.896 57.5869 141.74 57.3095C141.593 57.0235 141.385 56.8025 141.116 56.6465C140.848 56.4905 140.54 56.4125 140.193 56.4125C139.838 56.4125 139.526 56.4905 139.257 56.6465C138.997 56.8025 138.789 57.0235 138.633 57.3095C138.486 57.5869 138.412 57.9119 138.412 58.2845C138.412 58.6485 138.486 58.9735 138.633 59.2595C138.789 59.5455 138.997 59.7665 139.257 59.9225C139.526 60.0785 139.838 60.1565 140.193 60.1565ZM148.222 64.7325C147.529 64.7325 146.931 64.6329 146.428 64.4335C145.934 64.2342 145.553 63.9439 145.284 63.5625C145.024 63.1725 144.894 62.7089 144.894 62.1715C144.894 61.7382 144.981 61.3569 145.154 61.0275C145.328 60.6895 145.57 60.4165 145.882 60.2085C146.194 60.0005 146.554 59.8705 146.961 59.8185V60.0525C146.398 59.9312 145.947 59.6669 145.609 59.2595C145.28 58.8435 145.115 58.3495 145.115 57.7775C145.115 57.2662 145.241 56.8285 145.492 56.4645C145.752 56.0919 146.116 55.8102 146.584 55.6195C147.052 55.4289 147.598 55.3335 148.222 55.3335C148.855 55.3335 149.405 55.4289 149.873 55.6195C150.341 55.8102 150.701 56.0919 150.952 56.4645C151.212 56.8285 151.342 57.2662 151.342 57.7775C151.342 58.1589 151.264 58.5099 151.108 58.8305C150.961 59.1425 150.749 59.4069 150.471 59.6235C150.194 59.8315 149.869 59.9702 149.496 60.0395V59.8185C150.112 59.9052 150.606 60.1609 150.978 60.5855C151.36 61.0015 151.55 61.5302 151.55 62.1715C151.55 62.7089 151.416 63.1725 151.147 63.5625C150.887 63.9439 150.51 64.2342 150.016 64.4335C149.522 64.6329 148.924 64.7325 148.222 64.7325ZM148.222 63.6665C148.907 63.6665 149.423 63.5365 149.769 63.2765C150.116 63.0079 150.289 62.6092 150.289 62.0805C150.289 61.5519 150.116 61.1575 149.769 60.8975C149.423 60.6375 148.907 60.5075 148.222 60.5075C147.546 60.5075 147.031 60.6375 146.675 60.8975C146.329 61.1575 146.155 61.5519 146.155 62.0805C146.155 62.6092 146.329 63.0079 146.675 63.2765C147.031 63.5365 147.546 63.6665 148.222 63.6665ZM148.222 59.4415C148.612 59.4415 148.942 59.3809 149.21 59.2595C149.488 59.1295 149.7 58.9519 149.847 58.7265C149.995 58.4925 150.068 58.2195 150.068 57.9075C150.068 57.4395 149.904 57.0712 149.574 56.8025C149.254 56.5339 148.803 56.3995 148.222 56.3995C147.642 56.3995 147.191 56.5339 146.87 56.8025C146.55 57.0712 146.389 57.4395 146.389 57.9075C146.389 58.3842 146.55 58.7612 146.87 59.0385C147.191 59.3072 147.642 59.4415 148.222 59.4415Z" fill="#EAEAEA"/>
<path d="M120.29 75.6965C120.026 75.6965 119.75 75.6515 119.462 75.5615C119.18 75.4655 118.922 75.3245 118.688 75.1385C118.61 75.0845 118.559 75.0185 118.535 74.9405C118.517 74.8565 118.517 74.7785 118.535 74.7065C118.553 74.6285 118.589 74.5625 118.643 74.5085C118.697 74.4485 118.763 74.4155 118.841 74.4095C118.925 74.3975 119.012 74.4215 119.102 74.4815C119.306 74.6315 119.507 74.7395 119.705 74.8055C119.909 74.8715 120.11 74.9045 120.308 74.9045C120.68 74.9045 120.995 74.8145 121.253 74.6345C121.511 74.4545 121.706 74.1845 121.838 73.8245C121.97 73.4645 122.036 73.0175 122.036 72.4835V71.7185H122.135C122.093 72.0365 121.991 72.3155 121.829 72.5555C121.673 72.7955 121.469 72.9785 121.217 73.1045C120.965 73.2305 120.686 73.2935 120.38 73.2935C120.014 73.2935 119.687 73.2065 119.399 73.0325C119.111 72.8585 118.886 72.6185 118.724 72.3125C118.562 72.0065 118.481 71.6615 118.481 71.2775C118.481 70.8695 118.568 70.5095 118.742 70.1975C118.916 69.8795 119.156 69.6335 119.462 69.4595C119.774 69.2795 120.131 69.1895 120.533 69.1895C121.049 69.1895 121.484 69.3125 121.838 69.5585C122.192 69.7985 122.462 70.1525 122.648 70.6205C122.84 71.0885 122.936 71.6495 122.936 72.3035C122.936 72.8495 122.876 73.3325 122.756 73.7525C122.636 74.1725 122.462 74.5265 122.234 74.8145C122.006 75.1025 121.727 75.3215 121.397 75.4715C121.073 75.6215 120.704 75.6965 120.29 75.6965ZM120.596 72.5285C120.836 72.5285 121.049 72.4745 121.235 72.3665C121.421 72.2585 121.565 72.1055 121.667 71.9075C121.775 71.7095 121.829 71.4845 121.829 71.2325C121.829 70.9745 121.775 70.7495 121.667 70.5575C121.565 70.3595 121.421 70.2065 121.235 70.0985C121.049 69.9905 120.836 69.9365 120.596 69.9365C120.35 69.9365 120.134 69.9905 119.948 70.0985C119.768 70.2065 119.624 70.3595 119.516 70.5575C119.414 70.7495 119.363 70.9745 119.363 71.2325C119.363 71.4845 119.414 71.7095 119.516 71.9075C119.624 72.1055 119.768 72.2585 119.948 72.3665C120.134 72.4745 120.35 72.5285 120.596 72.5285ZM124.534 75.6515C124.36 75.6515 124.219 75.5975 124.111 75.4895C124.003 75.3815 123.949 75.2435 123.949 75.0755C123.949 74.9075 124.003 74.7725 124.111 74.6705C124.219 74.5625 124.36 74.5085 124.534 74.5085C124.708 74.5085 124.846 74.5625 124.948 74.6705C125.05 74.7725 125.101 74.9075 125.101 75.0755C125.101 75.2435 125.05 75.3815 124.948 75.4895C124.846 75.5975 124.708 75.6515 124.534 75.6515ZM128.389 75.6965C128.059 75.6965 127.726 75.6515 127.39 75.5615C127.054 75.4655 126.748 75.3185 126.472 75.1205C126.382 75.0665 126.322 74.9975 126.292 74.9135C126.262 74.8295 126.256 74.7485 126.274 74.6705C126.292 74.5865 126.328 74.5175 126.382 74.4635C126.442 74.4095 126.514 74.3795 126.598 74.3735C126.682 74.3615 126.772 74.3855 126.868 74.4455C127.102 74.5955 127.342 74.7095 127.588 74.7875C127.84 74.8655 128.101 74.9045 128.371 74.9045C128.647 74.9045 128.884 74.8535 129.082 74.7515C129.28 74.6495 129.43 74.5085 129.532 74.3285C129.64 74.1425 129.694 73.9265 129.694 73.6805C129.694 73.3025 129.583 72.9935 129.361 72.7535C129.139 72.5135 128.83 72.3935 128.434 72.3935C128.206 72.3935 127.993 72.4355 127.795 72.5195C127.597 72.5975 127.408 72.7295 127.228 72.9155C127.186 72.9635 127.129 73.0085 127.057 73.0505C126.991 73.0865 126.916 73.1045 126.832 73.1045C126.706 73.1045 126.61 73.0715 126.544 73.0055C126.478 72.9395 126.445 72.8495 126.445 72.7355V69.6845C126.445 69.5525 126.481 69.4505 126.553 69.3785C126.625 69.3065 126.727 69.2705 126.859 69.2705H129.874C130.006 69.2705 130.108 69.3035 130.18 69.3695C130.252 69.4355 130.288 69.5315 130.288 69.6575C130.288 69.7835 130.252 69.8825 130.18 69.9545C130.108 70.0205 130.006 70.0535 129.874 70.0535H127.354V72.3395H127.102C127.264 72.1115 127.477 71.9345 127.741 71.8085C128.011 71.6825 128.308 71.6195 128.632 71.6195C129.034 71.6195 129.382 71.7035 129.676 71.8715C129.97 72.0395 130.198 72.2765 130.36 72.5825C130.522 72.8825 130.603 73.2335 130.603 73.6355C130.603 74.0435 130.513 74.4035 130.333 74.7155C130.153 75.0215 129.898 75.2615 129.568 75.4355C129.238 75.6095 128.845 75.6965 128.389 75.6965ZM132.165 75.6155C132.003 75.6155 131.886 75.5795 131.814 75.5075C131.742 75.4295 131.706 75.3245 131.706 75.1925C131.706 75.1085 131.727 75.0275 131.769 74.9495C131.811 74.8715 131.871 74.7905 131.949 74.7065L133.866 72.6545C134.16 72.3425 134.37 72.0575 134.496 71.7995C134.628 71.5355 134.694 71.2715 134.694 71.0075C134.694 70.6715 134.592 70.4165 134.388 70.2425C134.184 70.0685 133.884 69.9815 133.488 69.9815C133.248 69.9815 133.017 70.0175 132.795 70.0895C132.573 70.1615 132.351 70.2785 132.129 70.4405C132.039 70.5005 131.955 70.5275 131.877 70.5215C131.799 70.5155 131.73 70.4855 131.67 70.4315C131.616 70.3775 131.58 70.3115 131.562 70.2335C131.544 70.1555 131.547 70.0745 131.571 69.9905C131.595 69.9065 131.652 69.8345 131.742 69.7745C131.988 69.5885 132.273 69.4445 132.597 69.3425C132.921 69.2405 133.251 69.1895 133.587 69.1895C134.025 69.1895 134.394 69.2585 134.694 69.3965C135 69.5285 135.231 69.7235 135.387 69.9815C135.543 70.2395 135.621 70.5545 135.621 70.9265C135.621 71.1785 135.579 71.4245 135.495 71.6645C135.417 71.9045 135.294 72.1505 135.126 72.4025C134.964 72.6485 134.751 72.9095 134.487 73.1855L132.669 75.0935V74.8325H135.531C135.663 74.8325 135.765 74.8655 135.837 74.9315C135.909 74.9975 135.945 75.0935 135.945 75.2195C135.945 75.3455 135.909 75.4445 135.837 75.5165C135.765 75.5825 135.663 75.6155 135.531 75.6155H132.165ZM139.2 75.5885C139.152 75.6785 139.089 75.7385 139.011 75.7685C138.939 75.7985 138.867 75.8045 138.795 75.7865C138.723 75.7685 138.663 75.7325 138.615 75.6785C138.567 75.6245 138.537 75.5585 138.525 75.4805C138.519 75.4025 138.54 75.3185 138.588 75.2285L141.99 69.3155C142.038 69.2195 142.098 69.1565 142.17 69.1265C142.248 69.0965 142.32 69.0905 142.386 69.1085C142.458 69.1265 142.518 69.1625 142.566 69.2165C142.62 69.2705 142.653 69.3365 142.665 69.4145C142.677 69.4925 142.656 69.5765 142.602 69.6665L139.2 75.5885ZM138.399 73.0685C137.907 73.0685 137.523 72.8975 137.247 72.5555C136.971 72.2075 136.833 71.7305 136.833 71.1245C136.833 70.7165 136.896 70.3685 137.022 70.0805C137.148 69.7925 137.328 69.5735 137.562 69.4235C137.796 69.2675 138.075 69.1895 138.399 69.1895C138.885 69.1895 139.266 69.3605 139.542 69.7025C139.824 70.0445 139.965 70.5185 139.965 71.1245C139.965 71.5265 139.902 71.8745 139.776 72.1685C139.656 72.4565 139.479 72.6785 139.245 72.8345C139.011 72.9905 138.729 73.0685 138.399 73.0685ZM138.399 72.4295C138.567 72.4295 138.711 72.3815 138.831 72.2855C138.951 72.1895 139.041 72.0455 139.101 71.8535C139.167 71.6615 139.2 71.4185 139.2 71.1245C139.2 70.6865 139.128 70.3595 138.984 70.1435C138.846 69.9275 138.651 69.8195 138.399 69.8195C138.231 69.8195 138.087 69.8675 137.967 69.9635C137.847 70.0595 137.754 70.2035 137.688 70.3955C137.628 70.5875 137.598 70.8305 137.598 71.1245C137.598 71.5685 137.667 71.8985 137.805 72.1145C137.949 72.3245 138.147 72.4295 138.399 72.4295ZM142.8 75.6965C142.314 75.6965 141.933 75.5255 141.657 75.1835C141.381 74.8415 141.243 74.3645 141.243 73.7525C141.243 73.3505 141.303 73.0055 141.423 72.7175C141.549 72.4295 141.729 72.2075 141.963 72.0515C142.197 71.8955 142.476 71.8175 142.8 71.8175C143.292 71.8175 143.676 71.9915 143.952 72.3395C144.228 72.6815 144.366 73.1525 144.366 73.7525C144.366 74.1605 144.303 74.5115 144.177 74.8055C144.057 75.0935 143.88 75.3155 143.646 75.4715C143.412 75.6215 143.13 75.6965 142.8 75.6965ZM142.8 75.0665C142.968 75.0665 143.112 75.0185 143.232 74.9225C143.352 74.8265 143.442 74.6825 143.502 74.4905C143.568 74.2925 143.601 74.0465 143.601 73.7525C143.601 73.3205 143.529 72.9965 143.385 72.7805C143.247 72.5645 143.052 72.4565 142.8 72.4565C142.638 72.4565 142.494 72.5045 142.368 72.6005C142.248 72.6965 142.155 72.8405 142.089 73.0325C142.029 73.2245 141.999 73.4645 141.999 73.7525C141.999 74.1965 142.071 74.5265 142.215 74.7425C142.359 74.9585 142.554 75.0665 142.8 75.0665Z" fill="#999999"/>
<mask id="mask2_2074_509" style="mask-type:alpha" maskUnits="userSpaceOnUse" x="96" y="27" width="69" height="69">
<circle cx="130.656" cy="61.1156" r="32.5503" stroke="#00AC94" stroke-width="3"/>
</mask>
<g mask="url(#mask2_2074_509)">
<path d="M131.332 65.3072V21.8696L169.34 23.7582V33.4372L166.542 39.103L167.5 80L131.332 65.3072Z" fill="#00AC94"/>
</g>
<g filter="url(#filter3_bd_2074_509)">
<rect x="179.772" width="79.3419" height="101.273" rx="8" fill="#4A7094" fill-opacity="0.8" shape-rendering="crispEdges"/>
<rect x="180.272" y="0.5" width="78.3419" height="100.273" rx="7.5" stroke="white" stroke-opacity="0.5" shape-rendering="crispEdges"/>
</g>
<path d="M201.917 16.2653C201.628 16.2653 201.404 16.1859 201.245 16.0273C201.096 15.8593 201.021 15.6306 201.021 15.3413V7.09526C201.021 6.79659 201.096 6.56793 201.245 6.40926C201.404 6.25059 201.628 6.17126 201.917 6.17126C202.207 6.17126 202.426 6.25059 202.575 6.40926C202.734 6.56793 202.813 6.79659 202.813 7.09526V10.3993H207.895V7.09526C207.895 6.79659 207.97 6.56793 208.119 6.40926C208.278 6.25059 208.502 6.17126 208.791 6.17126C209.081 6.17126 209.3 6.25059 209.449 6.40926C209.608 6.56793 209.687 6.79659 209.687 7.09526V15.3413C209.687 15.6306 209.608 15.8593 209.449 16.0273C209.3 16.1859 209.081 16.2653 208.791 16.2653C208.502 16.2653 208.278 16.1859 208.119 16.0273C207.97 15.8593 207.895 15.6306 207.895 15.3413V11.8973H202.813V15.3413C202.813 15.6306 202.739 15.8593 202.589 16.0273C202.44 16.1859 202.216 16.2653 201.917 16.2653ZM214.803 16.2933C214.094 16.2933 213.478 16.1486 212.955 15.8593C212.433 15.5699 212.027 15.1593 211.737 14.6273C211.448 14.0859 211.303 13.4513 211.303 12.7233C211.303 12.1726 211.383 11.6826 211.541 11.2533C211.709 10.8146 211.947 10.4413 212.255 10.1333C212.563 9.81593 212.932 9.57793 213.361 9.41926C213.791 9.25126 214.271 9.16726 214.803 9.16726C215.513 9.16726 216.129 9.31193 216.651 9.60126C217.174 9.89059 217.58 10.3013 217.869 10.8333C218.159 11.3653 218.303 11.9953 218.303 12.7233C218.303 13.2739 218.219 13.7686 218.051 14.2073C217.893 14.6459 217.659 15.0239 217.351 15.3413C217.043 15.6493 216.675 15.8873 216.245 16.0553C215.816 16.2139 215.335 16.2933 214.803 16.2933ZM214.803 14.9633C215.149 14.9633 215.452 14.8793 215.713 14.7113C215.975 14.5433 216.175 14.2959 216.315 13.9693C216.465 13.6333 216.539 13.2179 216.539 12.7233C216.539 11.9766 216.381 11.4213 216.063 11.0573C215.746 10.6839 215.326 10.4973 214.803 10.4973C214.458 10.4973 214.155 10.5813 213.893 10.7493C213.632 10.9079 213.427 11.1553 213.277 11.4913C213.137 11.8179 213.067 12.2286 213.067 12.7233C213.067 13.4606 213.226 14.0206 213.543 14.4033C213.861 14.7766 214.281 14.9633 214.803 14.9633ZM222.226 16.2933C221.657 16.2933 221.185 16.1906 220.812 15.9853C220.439 15.7706 220.159 15.4533 219.972 15.0333C219.795 14.6133 219.706 14.0906 219.706 13.4653V10.0773C219.706 9.77859 219.781 9.55926 219.93 9.41926C220.079 9.26993 220.294 9.19526 220.574 9.19526C220.854 9.19526 221.069 9.26993 221.218 9.41926C221.377 9.55926 221.456 9.77859 221.456 10.0773V13.4933C221.456 13.9786 221.554 14.3379 221.75 14.5713C221.946 14.8046 222.259 14.9213 222.688 14.9213C223.155 14.9213 223.537 14.7626 223.836 14.4453C224.135 14.1186 224.284 13.6893 224.284 13.1573V10.0773C224.284 9.77859 224.359 9.55926 224.508 9.41926C224.657 9.26993 224.872 9.19526 225.152 9.19526C225.432 9.19526 225.647 9.26993 225.796 9.41926C225.955 9.55926 226.034 9.77859 226.034 10.0773V15.3693C226.034 15.9666 225.749 16.2653 225.18 16.2653C224.909 16.2653 224.699 16.1906 224.55 16.0413C224.401 15.8826 224.326 15.6586 224.326 15.3693V14.3053L224.522 14.7253C224.326 15.2293 224.027 15.6166 223.626 15.8873C223.234 16.1579 222.767 16.2933 222.226 16.2933ZM228.751 16.2653C228.462 16.2653 228.238 16.1906 228.079 16.0413C227.93 15.8826 227.855 15.6586 227.855 15.3693V10.0773C227.855 9.78793 227.93 9.56859 228.079 9.41926C228.229 9.26993 228.439 9.19526 228.709 9.19526C228.98 9.19526 229.19 9.26993 229.339 9.41926C229.489 9.56859 229.563 9.78793 229.563 10.0773V10.9593H229.423C229.554 10.3993 229.811 9.97459 230.193 9.68526C230.576 9.39593 231.085 9.22326 231.719 9.16726C231.915 9.14859 232.069 9.19993 232.181 9.32126C232.303 9.43326 232.373 9.61059 232.391 9.85326C232.41 10.0866 232.354 10.2779 232.223 10.4273C232.102 10.5673 231.915 10.6513 231.663 10.6793L231.355 10.7073C230.786 10.7633 230.357 10.9406 230.067 11.2393C229.778 11.5286 229.633 11.9393 229.633 12.4713V15.3693C229.633 15.6586 229.559 15.8826 229.409 16.0413C229.26 16.1906 229.041 16.2653 228.751 16.2653ZM235.775 16.2933C235.374 16.2933 234.949 16.2513 234.501 16.1673C234.053 16.0833 233.652 15.9386 233.297 15.7333C233.148 15.6399 233.041 15.5326 232.975 15.4113C232.919 15.2806 232.896 15.1546 232.905 15.0333C232.924 14.9026 232.971 14.7906 233.045 14.6973C233.129 14.6039 233.232 14.5433 233.353 14.5153C233.484 14.4873 233.624 14.5106 233.773 14.5853C234.147 14.7626 234.497 14.8886 234.823 14.9633C235.15 15.0286 235.472 15.0613 235.789 15.0613C236.237 15.0613 236.569 14.9866 236.783 14.8373C237.007 14.6786 237.119 14.4733 237.119 14.2213C237.119 14.0066 237.045 13.8433 236.895 13.7313C236.755 13.6099 236.541 13.5213 236.251 13.4653L234.851 13.1993C234.273 13.0873 233.829 12.8773 233.521 12.5693C233.223 12.2519 233.073 11.8459 233.073 11.3513C233.073 10.9033 233.195 10.5159 233.437 10.1893C233.689 9.86259 234.035 9.61059 234.473 9.43326C234.912 9.25593 235.416 9.16726 235.985 9.16726C236.396 9.16726 236.779 9.21393 237.133 9.30726C237.497 9.39126 237.847 9.52659 238.183 9.71326C238.323 9.78793 238.417 9.88593 238.463 10.0073C238.519 10.1286 238.533 10.2546 238.505 10.3853C238.477 10.5066 238.421 10.6186 238.337 10.7213C238.253 10.8146 238.146 10.8753 238.015 10.9033C237.894 10.9219 237.754 10.8939 237.595 10.8193C237.306 10.6699 237.026 10.5626 236.755 10.4973C236.494 10.4319 236.242 10.3993 235.999 10.3993C235.542 10.3993 235.201 10.4786 234.977 10.6373C234.763 10.7959 234.655 11.0059 234.655 11.2673C234.655 11.4633 234.721 11.6266 234.851 11.7573C234.982 11.8879 235.183 11.9766 235.453 12.0233L236.853 12.2893C237.46 12.4013 237.917 12.6066 238.225 12.9053C238.543 13.2039 238.701 13.6053 238.701 14.1093C238.701 14.7906 238.435 15.3273 237.903 15.7193C237.371 16.1019 236.662 16.2933 235.775 16.2933Z" fill="white"/>
<path d="M201.7 64.7325C201.215 64.7325 200.721 64.6675 200.218 64.5375C199.716 64.3989 199.278 64.1952 198.905 63.9265C198.767 63.8399 198.671 63.7359 198.619 63.6145C198.576 63.4845 198.567 63.3675 198.593 63.2635C198.619 63.1509 198.671 63.0555 198.749 62.9775C198.836 62.8995 198.94 62.8562 199.061 62.8475C199.183 62.8302 199.317 62.8649 199.464 62.9515C199.837 63.1769 200.201 63.3415 200.556 63.4455C200.912 63.5409 201.28 63.5885 201.661 63.5885C202.077 63.5885 202.428 63.5279 202.714 63.4065C203 63.2852 203.213 63.1075 203.351 62.8735C203.499 62.6395 203.572 62.3579 203.572 62.0285C203.572 61.5345 203.408 61.1662 203.078 60.9235C202.758 60.6722 202.29 60.5465 201.674 60.5465H200.79C200.591 60.5465 200.439 60.4989 200.335 60.4035C200.231 60.2995 200.179 60.1565 200.179 59.9745C200.179 59.8012 200.231 59.6669 200.335 59.5715C200.439 59.4675 200.591 59.4155 200.79 59.4155H201.544C201.917 59.4155 202.233 59.3549 202.493 59.2335C202.753 59.1035 202.953 58.9259 203.091 58.7005C203.239 58.4665 203.312 58.1849 203.312 57.8555C203.312 57.4135 203.165 57.0755 202.87 56.8415C202.584 56.5989 202.164 56.4775 201.609 56.4775C201.254 56.4775 200.916 56.5252 200.595 56.6205C200.283 56.7159 199.958 56.8849 199.62 57.1275C199.49 57.2142 199.365 57.2532 199.243 57.2445C199.131 57.2272 199.031 57.1839 198.944 57.1145C198.866 57.0365 198.81 56.9412 198.775 56.8285C198.749 56.7159 198.758 56.5989 198.801 56.4775C198.845 56.3562 198.931 56.2522 199.061 56.1655C199.425 55.8969 199.837 55.6932 200.296 55.5545C200.756 55.4072 201.228 55.3335 201.713 55.3335C202.32 55.3335 202.84 55.4289 203.273 55.6195C203.715 55.8102 204.049 56.0832 204.274 56.4385C204.508 56.7939 204.625 57.2185 204.625 57.7125C204.625 58.0852 204.556 58.4232 204.417 58.7265C204.279 59.0299 204.079 59.2899 203.819 59.5065C203.568 59.7145 203.26 59.8619 202.896 59.9485V59.8055C203.529 59.9095 204.019 60.1695 204.365 60.5855C204.712 60.9929 204.885 61.5042 204.885 62.1195C204.885 62.6569 204.755 63.1249 204.495 63.5235C204.244 63.9135 203.88 64.2125 203.403 64.4205C202.927 64.6285 202.359 64.7325 201.7 64.7325ZM207.441 64.6155C207.207 64.6155 207.038 64.5635 206.934 64.4595C206.83 64.3469 206.778 64.1952 206.778 64.0045C206.778 63.8832 206.809 63.7662 206.869 63.6535C206.93 63.5409 207.017 63.4239 207.129 63.3025L209.898 60.3385C210.323 59.8879 210.626 59.4762 210.808 59.1035C210.999 58.7222 211.094 58.3409 211.094 57.9595C211.094 57.4742 210.947 57.1059 210.652 56.8545C210.358 56.6032 209.924 56.4775 209.352 56.4775C209.006 56.4775 208.672 56.5295 208.351 56.6335C208.031 56.7375 207.71 56.9065 207.389 57.1405C207.259 57.2272 207.138 57.2662 207.025 57.2575C206.913 57.2489 206.813 57.2055 206.726 57.1275C206.648 57.0495 206.596 56.9542 206.57 56.8415C206.544 56.7289 206.549 56.6119 206.583 56.4905C206.618 56.3692 206.7 56.2652 206.83 56.1785C207.186 55.9099 207.597 55.7019 208.065 55.5545C208.533 55.4072 209.01 55.3335 209.495 55.3335C210.128 55.3335 210.661 55.4332 211.094 55.6325C211.536 55.8232 211.87 56.1049 212.095 56.4775C212.321 56.8502 212.433 57.3052 212.433 57.8425C212.433 58.2065 212.373 58.5619 212.251 58.9085C212.139 59.2552 211.961 59.6105 211.718 59.9745C211.484 60.3299 211.177 60.7069 210.795 61.1055L208.169 63.8615V63.4845H212.303C212.494 63.4845 212.641 63.5322 212.745 63.6275C212.849 63.7229 212.901 63.8615 212.901 64.0435C212.901 64.2255 212.849 64.3685 212.745 64.4725C212.641 64.5679 212.494 64.6155 212.303 64.6155H207.441ZM215.093 64.6675C214.842 64.6675 214.638 64.5895 214.482 64.4335C214.326 64.2775 214.248 64.0782 214.248 63.8355C214.248 63.5929 214.326 63.3979 214.482 63.2505C214.638 63.0945 214.842 63.0165 215.093 63.0165C215.345 63.0165 215.544 63.0945 215.691 63.2505C215.839 63.3979 215.912 63.5929 215.912 63.8355C215.912 64.0782 215.839 64.2775 215.691 64.4335C215.544 64.5895 215.345 64.6675 215.093 64.6675ZM220.661 64.7325C220.184 64.7325 219.703 64.6675 219.218 64.5375C218.733 64.3989 218.291 64.1865 217.892 63.9005C217.762 63.8225 217.675 63.7229 217.632 63.6015C217.589 63.4802 217.58 63.3632 217.606 63.2505C217.632 63.1292 217.684 63.0295 217.762 62.9515C217.849 62.8735 217.953 62.8302 218.074 62.8215C218.195 62.8042 218.325 62.8389 218.464 62.9255C218.802 63.1422 219.149 63.3069 219.504 63.4195C219.868 63.5322 220.245 63.5885 220.635 63.5885C221.034 63.5885 221.376 63.5149 221.662 63.3675C221.948 63.2202 222.165 63.0165 222.312 62.7565C222.468 62.4879 222.546 62.1759 222.546 61.8205C222.546 61.2745 222.386 60.8282 222.065 60.4815C221.744 60.1349 221.298 59.9615 220.726 59.9615C220.397 59.9615 220.089 60.0222 219.803 60.1435C219.517 60.2562 219.244 60.4469 218.984 60.7155C218.923 60.7849 218.841 60.8499 218.737 60.9105C218.642 60.9625 218.533 60.9885 218.412 60.9885C218.23 60.9885 218.091 60.9409 217.996 60.8455C217.901 60.7502 217.853 60.6202 217.853 60.4555V56.0485C217.853 55.8579 217.905 55.7105 218.009 55.6065C218.113 55.5025 218.26 55.4505 218.451 55.4505H222.806C222.997 55.4505 223.144 55.4982 223.248 55.5935C223.352 55.6889 223.404 55.8275 223.404 56.0095C223.404 56.1915 223.352 56.3345 223.248 56.4385C223.144 56.5339 222.997 56.5815 222.806 56.5815H219.166V59.8835H218.802C219.036 59.5542 219.344 59.2985 219.725 59.1165C220.115 58.9345 220.544 58.8435 221.012 58.8435C221.593 58.8435 222.095 58.9649 222.52 59.2075C222.945 59.4502 223.274 59.7925 223.508 60.2345C223.742 60.6679 223.859 61.1749 223.859 61.7555C223.859 62.3449 223.729 62.8649 223.469 63.3155C223.209 63.7575 222.841 64.1042 222.364 64.3555C221.887 64.6069 221.32 64.7325 220.661 64.7325ZM229.414 64.7065C229.206 64.7065 229.045 64.6502 228.933 64.5375C228.82 64.4162 228.764 64.2515 228.764 64.0435V56.0225C228.764 55.8059 228.82 55.6412 228.933 55.5285C229.045 55.4159 229.206 55.3595 229.414 55.3595C229.622 55.3595 229.782 55.4159 229.895 55.5285C230.016 55.6412 230.077 55.8059 230.077 56.0225V59.6235H229.895C230.085 59.1382 230.384 58.7742 230.792 58.5315C231.199 58.2802 231.667 58.1545 232.196 58.1545C232.698 58.1545 233.114 58.2499 233.444 58.4405C233.782 58.6225 234.033 58.9042 234.198 59.2855C234.362 59.6582 234.445 60.1305 234.445 60.7025V64.0435C234.445 64.2515 234.388 64.4162 234.276 64.5375C234.163 64.6502 234.003 64.7065 233.795 64.7065C233.578 64.7065 233.413 64.6502 233.301 64.5375C233.188 64.4162 233.132 64.2515 233.132 64.0435V60.7805C233.132 60.2345 233.023 59.8359 232.807 59.5845C232.599 59.3332 232.269 59.2075 231.819 59.2075C231.29 59.2075 230.865 59.3722 230.545 59.7015C230.233 60.0309 230.077 60.4729 230.077 61.0275V64.0435C230.077 64.4855 229.856 64.7065 229.414 64.7065ZM236.891 64.6675C236.64 64.6675 236.436 64.5895 236.28 64.4335C236.124 64.2775 236.046 64.0782 236.046 63.8355C236.046 63.5929 236.124 63.3979 236.28 63.2505C236.436 63.0945 236.64 63.0165 236.891 63.0165C237.142 63.0165 237.342 63.0945 237.489 63.2505C237.636 63.3979 237.71 63.5929 237.71 63.8355C237.71 64.0782 237.636 64.2775 237.489 64.4335C237.342 64.5895 237.142 64.6675 236.891 64.6675Z" fill="#EAEAEA"/>
<path d="M205.643 75.3185C205.529 75.3185 205.442 75.2885 205.382 75.2285C205.328 75.1625 205.301 75.0755 205.301 74.9675V73.3655H203.726C203.618 73.3655 203.534 73.3385 203.474 73.2845C203.414 73.2245 203.384 73.1405 203.384 73.0325C203.384 72.9245 203.414 72.8435 203.474 72.7895C203.534 72.7295 203.618 72.6995 203.726 72.6995H205.301V71.1425C205.301 71.0345 205.328 70.9505 205.382 70.8905C205.442 70.8305 205.532 70.8005 205.652 70.8005C205.76 70.8005 205.841 70.8305 205.895 70.8905C205.955 70.9505 205.985 71.0345 205.985 71.1425V72.6995H207.56C207.674 72.6995 207.758 72.7295 207.812 72.7895C207.872 72.8435 207.902 72.9245 207.902 73.0325C207.902 73.1405 207.872 73.2245 207.812 73.2845C207.758 73.3385 207.674 73.3655 207.56 73.3655H205.985V74.9675C205.985 75.0755 205.955 75.1625 205.895 75.2285C205.841 75.2885 205.757 75.3185 205.643 75.3185ZM211.892 75.6155C211.73 75.6155 211.613 75.5795 211.541 75.5075C211.469 75.4295 211.433 75.3245 211.433 75.1925C211.433 75.1085 211.454 75.0275 211.496 74.9495C211.538 74.8715 211.598 74.7905 211.676 74.7065L213.593 72.6545C213.887 72.3425 214.097 72.0575 214.223 71.7995C214.355 71.5355 214.421 71.2715 214.421 71.0075C214.421 70.6715 214.319 70.4165 214.115 70.2425C213.911 70.0685 213.611 69.9815 213.215 69.9815C212.975 69.9815 212.744 70.0175 212.522 70.0895C212.3 70.1615 212.078 70.2785 211.856 70.4405C211.766 70.5005 211.682 70.5275 211.604 70.5215C211.526 70.5155 211.457 70.4855 211.397 70.4315C211.343 70.3775 211.307 70.3115 211.289 70.2335C211.271 70.1555 211.274 70.0745 211.298 69.9905C211.322 69.9065 211.379 69.8345 211.469 69.7745C211.715 69.5885 212 69.4445 212.324 69.3425C212.648 69.2405 212.978 69.1895 213.314 69.1895C213.752 69.1895 214.121 69.2585 214.421 69.3965C214.727 69.5285 214.958 69.7235 215.114 69.9815C215.27 70.2395 215.348 70.5545 215.348 70.9265C215.348 71.1785 215.306 71.4245 215.222 71.6645C215.144 71.9045 215.021 72.1505 214.853 72.4025C214.691 72.6485 214.478 72.9095 214.214 73.1855L212.396 75.0935V74.8325H215.258C215.39 74.8325 215.492 74.8655 215.564 74.9315C215.636 74.9975 215.672 75.0935 215.672 75.2195C215.672 75.3455 215.636 75.4445 215.564 75.5165C215.492 75.5825 215.39 75.6155 215.258 75.6155H211.892ZM217.189 75.6515C217.015 75.6515 216.874 75.5975 216.766 75.4895C216.658 75.3815 216.604 75.2435 216.604 75.0755C216.604 74.9075 216.658 74.7725 216.766 74.6705C216.874 74.5625 217.015 74.5085 217.189 74.5085C217.363 74.5085 217.501 74.5625 217.603 74.6705C217.705 74.7725 217.756 74.9075 217.756 75.0755C217.756 75.2435 217.705 75.3815 217.603 75.4895C217.501 75.5975 217.363 75.6515 217.189 75.6515ZM221.044 75.6965C220.714 75.6965 220.381 75.6515 220.045 75.5615C219.709 75.4655 219.403 75.3185 219.127 75.1205C219.037 75.0665 218.977 74.9975 218.947 74.9135C218.917 74.8295 218.911 74.7485 218.929 74.6705C218.947 74.5865 218.983 74.5175 219.037 74.4635C219.097 74.4095 219.169 74.3795 219.253 74.3735C219.337 74.3615 219.427 74.3855 219.523 74.4455C219.757 74.5955 219.997 74.7095 220.243 74.7875C220.495 74.8655 220.756 74.9045 221.026 74.9045C221.302 74.9045 221.539 74.8535 221.737 74.7515C221.935 74.6495 222.085 74.5085 222.187 74.3285C222.295 74.1425 222.349 73.9265 222.349 73.6805C222.349 73.3025 222.238 72.9935 222.016 72.7535C221.794 72.5135 221.485 72.3935 221.089 72.3935C220.861 72.3935 220.648 72.4355 220.45 72.5195C220.252 72.5975 220.063 72.7295 219.883 72.9155C219.841 72.9635 219.784 73.0085 219.712 73.0505C219.646 73.0865 219.571 73.1045 219.487 73.1045C219.361 73.1045 219.265 73.0715 219.199 73.0055C219.133 72.9395 219.1 72.8495 219.1 72.7355V69.6845C219.1 69.5525 219.136 69.4505 219.208 69.3785C219.28 69.3065 219.382 69.2705 219.514 69.2705H222.529C222.661 69.2705 222.763 69.3035 222.835 69.3695C222.907 69.4355 222.943 69.5315 222.943 69.6575C222.943 69.7835 222.907 69.8825 222.835 69.9545C222.763 70.0205 222.661 70.0535 222.529 70.0535H220.009V72.3395H219.757C219.919 72.1115 220.132 71.9345 220.396 71.8085C220.666 71.6825 220.963 71.6195 221.287 71.6195C221.689 71.6195 222.037 71.7035 222.331 71.8715C222.625 72.0395 222.853 72.2765 223.015 72.5825C223.177 72.8825 223.258 73.2335 223.258 73.6355C223.258 74.0435 223.168 74.4035 222.988 74.7155C222.808 75.0215 222.553 75.2615 222.223 75.4355C221.893 75.6095 221.5 75.6965 221.044 75.6965ZM227.104 75.6785C226.96 75.6785 226.849 75.6395 226.771 75.5615C226.693 75.4775 226.654 75.3635 226.654 75.2195V69.6665C226.654 69.5165 226.693 69.4025 226.771 69.3245C226.849 69.2465 226.96 69.2075 227.104 69.2075C227.248 69.2075 227.359 69.2465 227.437 69.3245C227.521 69.4025 227.563 69.5165 227.563 69.6665V72.1595H227.437C227.569 71.8235 227.776 71.5715 228.058 71.4035C228.34 71.2295 228.664 71.1425 229.03 71.1425C229.378 71.1425 229.666 71.2085 229.894 71.3405C230.128 71.4665 230.302 71.6615 230.416 71.9255C230.53 72.1835 230.587 72.5105 230.587 72.9065V75.2195C230.587 75.3635 230.548 75.4775 230.47 75.5615C230.392 75.6395 230.281 75.6785 230.137 75.6785C229.987 75.6785 229.873 75.6395 229.795 75.5615C229.717 75.4775 229.678 75.3635 229.678 75.2195V72.9605C229.678 72.5825 229.603 72.3065 229.453 72.1325C229.309 71.9585 229.081 71.8715 228.769 71.8715C228.403 71.8715 228.109 71.9855 227.887 72.2135C227.671 72.4415 227.563 72.7475 227.563 73.1315V75.2195C227.563 75.5255 227.41 75.6785 227.104 75.6785ZM232.28 75.6515C232.106 75.6515 231.965 75.5975 231.857 75.4895C231.749 75.3815 231.695 75.2435 231.695 75.0755C231.695 74.9075 231.749 74.7725 231.857 74.6705C231.965 74.5625 232.106 74.5085 232.28 74.5085C232.454 74.5085 232.592 74.5625 232.694 74.6705C232.796 74.7725 232.847 74.9075 232.847 75.0755C232.847 75.2435 232.796 75.3815 232.694 75.4895C232.592 75.5975 232.454 75.6515 232.28 75.6515Z" fill="#999999"/>
<mask id="mask3_2074_509" style="mask-type:alpha" maskUnits="userSpaceOnUse" x="184" y="27" width="69" height="69">
<circle cx="218.541" cy="61.1156" r="32.5503" stroke="#00AC94" stroke-width="3"/>
</mask>
<g mask="url(#mask3_2074_509)">
<path d="M184.671 98.1926L182.022 21.8696L259.114 23.7581V33.4372L256.316 39.1029V98.1926H184.671Z" fill="#F5A8A8"/>
</g>
<defs>
<filter id="filter0_bd_2074_509" x="263.658" y="-4" width="87.3418" height="113.273" filterUnits="userSpaceOnUse" color-interpolation-filters="sRGB">
<feFlood flood-opacity="0" result="BackgroundImageFix"/>
<feGaussianBlur in="BackgroundImageFix" stdDeviation="2"/>
<feComposite in2="SourceAlpha" operator="in" result="effect1_backgroundBlur_2074_509"/>
<feColorMatrix in="SourceAlpha" type="matrix" values="0 0 0 0 0 0 0 0 0 0 0 0 0 0 0 0 0 0 127 0" result="hardAlpha"/>
<feOffset dy="4"/>
<feGaussianBlur stdDeviation="2"/>
<feComposite in2="hardAlpha" operator="out"/>
<feColorMatrix type="matrix" values="0 0 0 0 0 0 0 0 0 0 0 0 0 0 0 0 0 0 0.25 0"/>
<feBlend mode="normal" in2="effect1_backgroundBlur_2074_509" result="effect2_dropShadow_2074_509"/>
<feBlend mode="normal" in="SourceGraphic" in2="effect2_dropShadow_2074_509" result="shape"/>
</filter>
<filter id="filter1_bd_2074_509" x="0" y="-4" width="87.3418" height="113.273" filterUnits="userSpaceOnUse" color-interpolation-filters="sRGB">
<feFlood flood-opacity="0" result="BackgroundImageFix"/>
<feGaussianBlur in="BackgroundImageFix" stdDeviation="2"/>
<feComposite in2="SourceAlpha" operator="in" result="effect1_backgroundBlur_2074_509"/>
<feColorMatrix in="SourceAlpha" type="matrix" values="0 0 0 0 0 0 0 0 0 0 0 0 0 0 0 0 0 0 127 0" result="hardAlpha"/>
<feOffset dy="4"/>
<feGaussianBlur stdDeviation="2"/>
<feComposite in2="hardAlpha" operator="out"/>
<feColorMatrix type="matrix" values="0 0 0 0 0 0 0 0 0 0 0 0 0 0 0 0 0 0 0.25 0"/>
<feBlend mode="normal" in2="effect1_backgroundBlur_2074_509" result="effect2_dropShadow_2074_509"/>
<feBlend mode="normal" in="SourceGraphic" in2="effect2_dropShadow_2074_509" result="shape"/>
</filter>
<filter id="filter2_bd_2074_509" x="87.8867" y="-4" width="87.3418" height="113.273" filterUnits="userSpaceOnUse" color-interpolation-filters="sRGB">
<feFlood flood-opacity="0" result="BackgroundImageFix"/>
<feGaussianBlur in="BackgroundImageFix" stdDeviation="2"/>
<feComposite in2="SourceAlpha" operator="in" result="effect1_backgroundBlur_2074_509"/>
<feColorMatrix in="SourceAlpha" type="matrix" values="0 0 0 0 0 0 0 0 0 0 0 0 0 0 0 0 0 0 127 0" result="hardAlpha"/>
<feOffset dy="4"/>
<feGaussianBlur stdDeviation="2"/>
<feComposite in2="hardAlpha" operator="out"/>
<feColorMatrix type="matrix" values="0 0 0 0 0 0 0 0 0 0 0 0 0 0 0 0 0 0 0.25 0"/>
<feBlend mode="normal" in2="effect1_backgroundBlur_2074_509" result="effect2_dropShadow_2074_509"/>
<feBlend mode="normal" in="SourceGraphic" in2="effect2_dropShadow_2074_509" result="shape"/>
</filter>
<filter id="filter3_bd_2074_509" x="175.772" y="-4" width="87.3418" height="113.273" filterUnits="userSpaceOnUse" color-interpolation-filters="sRGB">
<feFlood flood-opacity="0" result="BackgroundImageFix"/>
<feGaussianBlur in="BackgroundImageFix" stdDeviation="2"/>
<feComposite in2="SourceAlpha" operator="in" result="effect1_backgroundBlur_2074_509"/>
<feColorMatrix in="SourceAlpha" type="matrix" values="0 0 0 0 0 0 0 0 0 0 0 0 0 0 0 0 0 0 127 0" result="hardAlpha"/>
<feOffset dy="4"/>
<feGaussianBlur stdDeviation="2"/>
<feComposite in2="hardAlpha" operator="out"/>
<feColorMatrix type="matrix" values="0 0 0 0 0 0 0 0 0 0 0 0 0 0 0 0 0 0 0.25 0"/>
<feBlend mode="normal" in2="effect1_backgroundBlur_2074_509" result="effect2_dropShadow_2074_509"/>
<feBlend mode="normal" in="SourceGraphic" in2="effect2_dropShadow_2074_509" result="shape"/>
</filter>
</defs>
</svg>
